M48
; DRILL file {KiCad 8.0.1} date 2024-03-24T23:40:04+0200
; FORMAT={-:-/ absolute / inch / decimal}
; #@! TF.CreationDate,2024-03-24T23:40:04+02:00
; #@! TF.GenerationSoftware,Kicad,Pcbnew,8.0.1
; #@! TF.FileFunction,Plated,1,2,PTH
FMAT,2
INCH
; #@! TA.AperFunction,Plated,PTH,ViaDrill
T1C0.0118
; #@! TA.AperFunction,Plated,PTH,ComponentDrill
T2C0.0295
; #@! TA.AperFunction,Plated,PTH,ComponentDrill
T3C0.0394
; #@! TA.AperFunction,Plated,PTH,ComponentDrill
T4C0.0709
%
G90
G05
T1
X4.2933Y-2.4129
X4.3694Y-2.5617
X4.3776Y-2.5313
X4.3795Y-2.4813
X4.4055Y-2.5592
X4.4193Y-2.4705
X4.4255Y-2.5233
X4.4764Y-2.5923
X4.5063Y-2.4705
X4.5965Y-2.7913
X4.6161Y-2.2413
X4.6457Y-2.6575
X4.7343Y-2.5497
X4.7343Y-2.2933
X4.7411Y-2.4114
X4.7539Y-2.687
X4.8061Y-2.4114
X4.8492Y-2.5984
X4.8607Y-2.2161
X4.9114Y-2.2638
X4.9122Y-2.6083
X4.9433Y-2.2366
X4.9484Y-2.5787
X5.0057Y-2.8896
X5.128Y-2.9213
X5.2461Y-2.4213
X5.2657Y-2.5443
X5.2953Y-2.5689
X5.2953Y-2.5689
X5.3059Y-2.6181
X5.3839Y-2.4803
X5.4331Y-2.5886
T2
X4.4488Y-2.8346
X4.4488Y-2.9134
T3
X4.5953Y-2.0669
X4.5953Y-2.1669
X4.6953Y-2.0669
X4.6953Y-2.1669
X4.7953Y-2.0669
X4.7953Y-2.1669
X4.8953Y-2.0669
X4.8953Y-2.1669
X4.9953Y-2.0669
X4.9953Y-2.1669
X5.0953Y-2.0669
X5.0953Y-2.1669
X5.1953Y-2.0669
X5.1953Y-2.1669
X5.2953Y-2.0669
X5.2953Y-2.1669
T4
X4.9409Y-2.8346
X5.126Y-2.8346
X5.311Y-2.8346
M30
