M48
; DRILL file {KiCad 8.0.1} date 2024-03-24T15:03:03+0200
; FORMAT={-:-/ absolute / metric / decimal}
; #@! TF.CreationDate,2024-03-24T15:03:03+02:00
; #@! TF.GenerationSoftware,Kicad,Pcbnew,8.0.1
; #@! TF.FileFunction,Plated,1,2,PTH
FMAT,2
METRIC
; #@! TA.AperFunction,Plated,PTH,ViaDrill
T1C0.400
; #@! TA.AperFunction,Plated,PTH,ComponentDrill
T2C0.900
; #@! TA.AperFunction,Plated,PTH,ComponentDrill
T3C1.000
%
G90
G05
T1
X152.25Y-95.25
X154.75Y-79.5
X155.75Y-75.0
X156.0Y-91.25
X158.375Y-91.45
X158.55Y-83.5
X159.55Y-94.7
X160.391Y-90.541
X160.95Y-80.75
X163.0Y-90.5
X164.0Y-80.75
X164.0Y-87.5
X165.5Y-84.3
X166.0Y-88.75
X166.2Y-80.75
X168.25Y-84.5
X171.25Y-81.25
X172.5Y-86.25
X173.5Y-80.25
X178.75Y-79.5
X181.25Y-80.25
X184.75Y-81.75
X185.25Y-78.25
X185.5Y-80.0
X189.0Y-80.25
X191.0Y-89.5
X192.8Y-86.5
X194.0Y-88.5
X194.75Y-78.0
X196.25Y-75.5
X199.0Y-82.75
X200.25Y-88.25
X200.75Y-93.75
X202.5Y-85.75
X202.55Y-93.0
X203.675Y-95.5
X204.5Y-81.0
X207.5Y-92.5
X209.5Y-86.5
X211.0Y-76.0
X213.0Y-90.0
T2
X148.975Y-75.475
X148.975Y-78.015
X148.975Y-83.225
X148.975Y-85.765
X148.975Y-90.975
X148.975Y-93.515
X172.985Y-76.475
X175.525Y-76.475
X180.735Y-76.475
X183.275Y-76.475
X188.485Y-76.475
X191.025Y-76.475
X215.025Y-75.485
X215.025Y-78.025
X215.025Y-83.235
X215.025Y-85.775
X215.025Y-90.985
X215.025Y-93.525
T3
X165.43Y-92.25
X165.43Y-94.79
X167.97Y-92.25
X167.97Y-94.79
X170.51Y-92.25
X170.51Y-94.79
X173.05Y-92.25
X173.05Y-94.79
X175.59Y-92.25
X175.59Y-94.79
X178.13Y-92.25
X178.13Y-94.79
X180.67Y-92.25
X180.67Y-94.79
X183.21Y-92.25
X183.21Y-94.79
X185.75Y-92.25
X185.75Y-94.79
X188.29Y-92.25
X188.29Y-94.79
X190.83Y-92.25
X190.83Y-94.79
X193.37Y-92.25
X193.37Y-94.79
X195.91Y-92.25
X195.91Y-94.79
X198.45Y-92.25
X198.45Y-94.79
M30
