%TF.GenerationSoftware,KiCad,Pcbnew,8.0.1*%
%TF.CreationDate,2024-03-24T15:01:24+02:00*%
%TF.ProjectId,EEE3088_HLDZUH001_Sensing,45454533-3038-4385-9f48-4c445a554830,rev?*%
%TF.SameCoordinates,Original*%
%TF.FileFunction,Soldermask,Bot*%
%TF.FilePolarity,Negative*%
%FSLAX46Y46*%
G04 Gerber Fmt 4.6, Leading zero omitted, Abs format (unit mm)*
G04 Created by KiCad (PCBNEW 8.0.1) date 2024-03-24 15:01:24*
%MOMM*%
%LPD*%
G01*
G04 APERTURE LIST*
%ADD10R,1.800000X1.800000*%
%ADD11C,1.800000*%
%ADD12R,1.700000X1.700000*%
%ADD13O,1.700000X1.700000*%
G04 APERTURE END LIST*
D10*
%TO.C,D3*%
X215025000Y-93525000D03*
D11*
X215025000Y-90985000D03*
%TD*%
%TO.C,D9*%
X215025000Y-83235000D03*
D10*
X215025000Y-85775000D03*
%TD*%
%TO.C,D8*%
X183275000Y-76475000D03*
D11*
X180735000Y-76475000D03*
%TD*%
D10*
%TO.C,D7*%
X148975000Y-83225000D03*
D11*
X148975000Y-85765000D03*
%TD*%
D12*
%TO.C,J2*%
X198450000Y-94790000D03*
D13*
X198450000Y-92250000D03*
X195910000Y-94790000D03*
X195910000Y-92250000D03*
X193370000Y-94790000D03*
X193370000Y-92250000D03*
X190830000Y-94790000D03*
X190830000Y-92250000D03*
X188290000Y-94790000D03*
X188290000Y-92250000D03*
X185750000Y-94790000D03*
X185750000Y-92250000D03*
X183210000Y-94790000D03*
X183210000Y-92250000D03*
X180670000Y-94790000D03*
X180670000Y-92250000D03*
X178130000Y-94790000D03*
X178130000Y-92250000D03*
X175590000Y-94790000D03*
X175590000Y-92250000D03*
X173050000Y-94790000D03*
X173050000Y-92250000D03*
X170510000Y-94790000D03*
X170510000Y-92250000D03*
X167970000Y-94790000D03*
X167970000Y-92250000D03*
X165430000Y-94790000D03*
X165430000Y-92250000D03*
%TD*%
D10*
%TO.C,D6*%
X215025000Y-78025000D03*
D11*
X215025000Y-75485000D03*
%TD*%
D10*
%TO.C,D5*%
X175525000Y-76475000D03*
D11*
X172985000Y-76475000D03*
%TD*%
D10*
%TO.C,D4*%
X148975000Y-90975000D03*
D11*
X148975000Y-93515000D03*
%TD*%
D10*
%TO.C,D2*%
X191025000Y-76475000D03*
D11*
X188485000Y-76475000D03*
%TD*%
D10*
%TO.C,D1*%
X148975000Y-75475000D03*
D11*
X148975000Y-78015000D03*
%TD*%
M02*
