%TF.GenerationSoftware,KiCad,Pcbnew,8.0.1*%
%TF.CreationDate,2024-03-24T15:01:24+02:00*%
%TF.ProjectId,EEE3088_HLDZUH001_Sensing,45454533-3038-4385-9f48-4c445a554830,rev?*%
%TF.SameCoordinates,Original*%
%TF.FileFunction,Legend,Top*%
%TF.FilePolarity,Positive*%
%FSLAX46Y46*%
G04 Gerber Fmt 4.6, Leading zero omitted, Abs format (unit mm)*
G04 Created by KiCad (PCBNEW 8.0.1) date 2024-03-24 15:01:24*
%MOMM*%
%LPD*%
G01*
G04 APERTURE LIST*
%ADD10C,0.150000*%
%ADD11C,0.120000*%
G04 APERTURE END LIST*
D10*
X213519819Y-92993094D02*
X212519819Y-92993094D01*
X212519819Y-92993094D02*
X212519819Y-92754999D01*
X212519819Y-92754999D02*
X212567438Y-92612142D01*
X212567438Y-92612142D02*
X212662676Y-92516904D01*
X212662676Y-92516904D02*
X212757914Y-92469285D01*
X212757914Y-92469285D02*
X212948390Y-92421666D01*
X212948390Y-92421666D02*
X213091247Y-92421666D01*
X213091247Y-92421666D02*
X213281723Y-92469285D01*
X213281723Y-92469285D02*
X213376961Y-92516904D01*
X213376961Y-92516904D02*
X213472200Y-92612142D01*
X213472200Y-92612142D02*
X213519819Y-92754999D01*
X213519819Y-92754999D02*
X213519819Y-92993094D01*
X212519819Y-92088332D02*
X212519819Y-91469285D01*
X212519819Y-91469285D02*
X212900771Y-91802618D01*
X212900771Y-91802618D02*
X212900771Y-91659761D01*
X212900771Y-91659761D02*
X212948390Y-91564523D01*
X212948390Y-91564523D02*
X212996009Y-91516904D01*
X212996009Y-91516904D02*
X213091247Y-91469285D01*
X213091247Y-91469285D02*
X213329342Y-91469285D01*
X213329342Y-91469285D02*
X213424580Y-91516904D01*
X213424580Y-91516904D02*
X213472200Y-91564523D01*
X213472200Y-91564523D02*
X213519819Y-91659761D01*
X213519819Y-91659761D02*
X213519819Y-91945475D01*
X213519819Y-91945475D02*
X213472200Y-92040713D01*
X213472200Y-92040713D02*
X213424580Y-92088332D01*
X213519819Y-85243094D02*
X212519819Y-85243094D01*
X212519819Y-85243094D02*
X212519819Y-85004999D01*
X212519819Y-85004999D02*
X212567438Y-84862142D01*
X212567438Y-84862142D02*
X212662676Y-84766904D01*
X212662676Y-84766904D02*
X212757914Y-84719285D01*
X212757914Y-84719285D02*
X212948390Y-84671666D01*
X212948390Y-84671666D02*
X213091247Y-84671666D01*
X213091247Y-84671666D02*
X213281723Y-84719285D01*
X213281723Y-84719285D02*
X213376961Y-84766904D01*
X213376961Y-84766904D02*
X213472200Y-84862142D01*
X213472200Y-84862142D02*
X213519819Y-85004999D01*
X213519819Y-85004999D02*
X213519819Y-85243094D01*
X213519819Y-84195475D02*
X213519819Y-84004999D01*
X213519819Y-84004999D02*
X213472200Y-83909761D01*
X213472200Y-83909761D02*
X213424580Y-83862142D01*
X213424580Y-83862142D02*
X213281723Y-83766904D01*
X213281723Y-83766904D02*
X213091247Y-83719285D01*
X213091247Y-83719285D02*
X212710295Y-83719285D01*
X212710295Y-83719285D02*
X212615057Y-83766904D01*
X212615057Y-83766904D02*
X212567438Y-83814523D01*
X212567438Y-83814523D02*
X212519819Y-83909761D01*
X212519819Y-83909761D02*
X212519819Y-84100237D01*
X212519819Y-84100237D02*
X212567438Y-84195475D01*
X212567438Y-84195475D02*
X212615057Y-84243094D01*
X212615057Y-84243094D02*
X212710295Y-84290713D01*
X212710295Y-84290713D02*
X212948390Y-84290713D01*
X212948390Y-84290713D02*
X213043628Y-84243094D01*
X213043628Y-84243094D02*
X213091247Y-84195475D01*
X213091247Y-84195475D02*
X213138866Y-84100237D01*
X213138866Y-84100237D02*
X213138866Y-83909761D01*
X213138866Y-83909761D02*
X213091247Y-83814523D01*
X213091247Y-83814523D02*
X213043628Y-83766904D01*
X213043628Y-83766904D02*
X212948390Y-83719285D01*
X181266905Y-78889819D02*
X181266905Y-77889819D01*
X181266905Y-77889819D02*
X181505000Y-77889819D01*
X181505000Y-77889819D02*
X181647857Y-77937438D01*
X181647857Y-77937438D02*
X181743095Y-78032676D01*
X181743095Y-78032676D02*
X181790714Y-78127914D01*
X181790714Y-78127914D02*
X181838333Y-78318390D01*
X181838333Y-78318390D02*
X181838333Y-78461247D01*
X181838333Y-78461247D02*
X181790714Y-78651723D01*
X181790714Y-78651723D02*
X181743095Y-78746961D01*
X181743095Y-78746961D02*
X181647857Y-78842200D01*
X181647857Y-78842200D02*
X181505000Y-78889819D01*
X181505000Y-78889819D02*
X181266905Y-78889819D01*
X182409762Y-78318390D02*
X182314524Y-78270771D01*
X182314524Y-78270771D02*
X182266905Y-78223152D01*
X182266905Y-78223152D02*
X182219286Y-78127914D01*
X182219286Y-78127914D02*
X182219286Y-78080295D01*
X182219286Y-78080295D02*
X182266905Y-77985057D01*
X182266905Y-77985057D02*
X182314524Y-77937438D01*
X182314524Y-77937438D02*
X182409762Y-77889819D01*
X182409762Y-77889819D02*
X182600238Y-77889819D01*
X182600238Y-77889819D02*
X182695476Y-77937438D01*
X182695476Y-77937438D02*
X182743095Y-77985057D01*
X182743095Y-77985057D02*
X182790714Y-78080295D01*
X182790714Y-78080295D02*
X182790714Y-78127914D01*
X182790714Y-78127914D02*
X182743095Y-78223152D01*
X182743095Y-78223152D02*
X182695476Y-78270771D01*
X182695476Y-78270771D02*
X182600238Y-78318390D01*
X182600238Y-78318390D02*
X182409762Y-78318390D01*
X182409762Y-78318390D02*
X182314524Y-78366009D01*
X182314524Y-78366009D02*
X182266905Y-78413628D01*
X182266905Y-78413628D02*
X182219286Y-78508866D01*
X182219286Y-78508866D02*
X182219286Y-78699342D01*
X182219286Y-78699342D02*
X182266905Y-78794580D01*
X182266905Y-78794580D02*
X182314524Y-78842200D01*
X182314524Y-78842200D02*
X182409762Y-78889819D01*
X182409762Y-78889819D02*
X182600238Y-78889819D01*
X182600238Y-78889819D02*
X182695476Y-78842200D01*
X182695476Y-78842200D02*
X182743095Y-78794580D01*
X182743095Y-78794580D02*
X182790714Y-78699342D01*
X182790714Y-78699342D02*
X182790714Y-78508866D01*
X182790714Y-78508866D02*
X182743095Y-78413628D01*
X182743095Y-78413628D02*
X182695476Y-78366009D01*
X182695476Y-78366009D02*
X182600238Y-78318390D01*
X151389819Y-85233094D02*
X150389819Y-85233094D01*
X150389819Y-85233094D02*
X150389819Y-84994999D01*
X150389819Y-84994999D02*
X150437438Y-84852142D01*
X150437438Y-84852142D02*
X150532676Y-84756904D01*
X150532676Y-84756904D02*
X150627914Y-84709285D01*
X150627914Y-84709285D02*
X150818390Y-84661666D01*
X150818390Y-84661666D02*
X150961247Y-84661666D01*
X150961247Y-84661666D02*
X151151723Y-84709285D01*
X151151723Y-84709285D02*
X151246961Y-84756904D01*
X151246961Y-84756904D02*
X151342200Y-84852142D01*
X151342200Y-84852142D02*
X151389819Y-84994999D01*
X151389819Y-84994999D02*
X151389819Y-85233094D01*
X150389819Y-84328332D02*
X150389819Y-83661666D01*
X150389819Y-83661666D02*
X151389819Y-84090237D01*
X201238095Y-83206819D02*
X201809523Y-83206819D01*
X201523809Y-84206819D02*
X201523809Y-83206819D01*
X202142857Y-84206819D02*
X202142857Y-83206819D01*
X202142857Y-83206819D02*
X202523809Y-83206819D01*
X202523809Y-83206819D02*
X202619047Y-83254438D01*
X202619047Y-83254438D02*
X202666666Y-83302057D01*
X202666666Y-83302057D02*
X202714285Y-83397295D01*
X202714285Y-83397295D02*
X202714285Y-83540152D01*
X202714285Y-83540152D02*
X202666666Y-83635390D01*
X202666666Y-83635390D02*
X202619047Y-83683009D01*
X202619047Y-83683009D02*
X202523809Y-83730628D01*
X202523809Y-83730628D02*
X202142857Y-83730628D01*
X203619047Y-83206819D02*
X203142857Y-83206819D01*
X203142857Y-83206819D02*
X203095238Y-83683009D01*
X203095238Y-83683009D02*
X203142857Y-83635390D01*
X203142857Y-83635390D02*
X203238095Y-83587771D01*
X203238095Y-83587771D02*
X203476190Y-83587771D01*
X203476190Y-83587771D02*
X203571428Y-83635390D01*
X203571428Y-83635390D02*
X203619047Y-83683009D01*
X203619047Y-83683009D02*
X203666666Y-83778247D01*
X203666666Y-83778247D02*
X203666666Y-84016342D01*
X203666666Y-84016342D02*
X203619047Y-84111580D01*
X203619047Y-84111580D02*
X203571428Y-84159200D01*
X203571428Y-84159200D02*
X203476190Y-84206819D01*
X203476190Y-84206819D02*
X203238095Y-84206819D01*
X203238095Y-84206819D02*
X203142857Y-84159200D01*
X203142857Y-84159200D02*
X203095238Y-84111580D01*
X160488095Y-82956819D02*
X161059523Y-82956819D01*
X160773809Y-83956819D02*
X160773809Y-82956819D01*
X161392857Y-83956819D02*
X161392857Y-82956819D01*
X161392857Y-82956819D02*
X161773809Y-82956819D01*
X161773809Y-82956819D02*
X161869047Y-83004438D01*
X161869047Y-83004438D02*
X161916666Y-83052057D01*
X161916666Y-83052057D02*
X161964285Y-83147295D01*
X161964285Y-83147295D02*
X161964285Y-83290152D01*
X161964285Y-83290152D02*
X161916666Y-83385390D01*
X161916666Y-83385390D02*
X161869047Y-83433009D01*
X161869047Y-83433009D02*
X161773809Y-83480628D01*
X161773809Y-83480628D02*
X161392857Y-83480628D01*
X162821428Y-83290152D02*
X162821428Y-83956819D01*
X162583333Y-82909200D02*
X162345238Y-83623485D01*
X162345238Y-83623485D02*
X162964285Y-83623485D01*
X199488095Y-72956819D02*
X200059523Y-72956819D01*
X199773809Y-73956819D02*
X199773809Y-72956819D01*
X200392857Y-73956819D02*
X200392857Y-72956819D01*
X200392857Y-72956819D02*
X200773809Y-72956819D01*
X200773809Y-72956819D02*
X200869047Y-73004438D01*
X200869047Y-73004438D02*
X200916666Y-73052057D01*
X200916666Y-73052057D02*
X200964285Y-73147295D01*
X200964285Y-73147295D02*
X200964285Y-73290152D01*
X200964285Y-73290152D02*
X200916666Y-73385390D01*
X200916666Y-73385390D02*
X200869047Y-73433009D01*
X200869047Y-73433009D02*
X200773809Y-73480628D01*
X200773809Y-73480628D02*
X200392857Y-73480628D01*
X201297619Y-72956819D02*
X201916666Y-72956819D01*
X201916666Y-72956819D02*
X201583333Y-73337771D01*
X201583333Y-73337771D02*
X201726190Y-73337771D01*
X201726190Y-73337771D02*
X201821428Y-73385390D01*
X201821428Y-73385390D02*
X201869047Y-73433009D01*
X201869047Y-73433009D02*
X201916666Y-73528247D01*
X201916666Y-73528247D02*
X201916666Y-73766342D01*
X201916666Y-73766342D02*
X201869047Y-73861580D01*
X201869047Y-73861580D02*
X201821428Y-73909200D01*
X201821428Y-73909200D02*
X201726190Y-73956819D01*
X201726190Y-73956819D02*
X201440476Y-73956819D01*
X201440476Y-73956819D02*
X201345238Y-73909200D01*
X201345238Y-73909200D02*
X201297619Y-73861580D01*
X194988095Y-72956819D02*
X195559523Y-72956819D01*
X195273809Y-73956819D02*
X195273809Y-72956819D01*
X195892857Y-73956819D02*
X195892857Y-72956819D01*
X195892857Y-72956819D02*
X196273809Y-72956819D01*
X196273809Y-72956819D02*
X196369047Y-73004438D01*
X196369047Y-73004438D02*
X196416666Y-73052057D01*
X196416666Y-73052057D02*
X196464285Y-73147295D01*
X196464285Y-73147295D02*
X196464285Y-73290152D01*
X196464285Y-73290152D02*
X196416666Y-73385390D01*
X196416666Y-73385390D02*
X196369047Y-73433009D01*
X196369047Y-73433009D02*
X196273809Y-73480628D01*
X196273809Y-73480628D02*
X195892857Y-73480628D01*
X196845238Y-73052057D02*
X196892857Y-73004438D01*
X196892857Y-73004438D02*
X196988095Y-72956819D01*
X196988095Y-72956819D02*
X197226190Y-72956819D01*
X197226190Y-72956819D02*
X197321428Y-73004438D01*
X197321428Y-73004438D02*
X197369047Y-73052057D01*
X197369047Y-73052057D02*
X197416666Y-73147295D01*
X197416666Y-73147295D02*
X197416666Y-73242533D01*
X197416666Y-73242533D02*
X197369047Y-73385390D01*
X197369047Y-73385390D02*
X196797619Y-73956819D01*
X196797619Y-73956819D02*
X197416666Y-73956819D01*
X158738095Y-72956819D02*
X159309523Y-72956819D01*
X159023809Y-73956819D02*
X159023809Y-72956819D01*
X159642857Y-73956819D02*
X159642857Y-72956819D01*
X159642857Y-72956819D02*
X160023809Y-72956819D01*
X160023809Y-72956819D02*
X160119047Y-73004438D01*
X160119047Y-73004438D02*
X160166666Y-73052057D01*
X160166666Y-73052057D02*
X160214285Y-73147295D01*
X160214285Y-73147295D02*
X160214285Y-73290152D01*
X160214285Y-73290152D02*
X160166666Y-73385390D01*
X160166666Y-73385390D02*
X160119047Y-73433009D01*
X160119047Y-73433009D02*
X160023809Y-73480628D01*
X160023809Y-73480628D02*
X159642857Y-73480628D01*
X161166666Y-73956819D02*
X160595238Y-73956819D01*
X160880952Y-73956819D02*
X160880952Y-72956819D01*
X160880952Y-72956819D02*
X160785714Y-73099676D01*
X160785714Y-73099676D02*
X160690476Y-73194914D01*
X160690476Y-73194914D02*
X160595238Y-73242533D01*
X206932142Y-95954819D02*
X206598809Y-95478628D01*
X206360714Y-95954819D02*
X206360714Y-94954819D01*
X206360714Y-94954819D02*
X206741666Y-94954819D01*
X206741666Y-94954819D02*
X206836904Y-95002438D01*
X206836904Y-95002438D02*
X206884523Y-95050057D01*
X206884523Y-95050057D02*
X206932142Y-95145295D01*
X206932142Y-95145295D02*
X206932142Y-95288152D01*
X206932142Y-95288152D02*
X206884523Y-95383390D01*
X206884523Y-95383390D02*
X206836904Y-95431009D01*
X206836904Y-95431009D02*
X206741666Y-95478628D01*
X206741666Y-95478628D02*
X206360714Y-95478628D01*
X207884523Y-95954819D02*
X207313095Y-95954819D01*
X207598809Y-95954819D02*
X207598809Y-94954819D01*
X207598809Y-94954819D02*
X207503571Y-95097676D01*
X207503571Y-95097676D02*
X207408333Y-95192914D01*
X207408333Y-95192914D02*
X207313095Y-95240533D01*
X208741666Y-94954819D02*
X208551190Y-94954819D01*
X208551190Y-94954819D02*
X208455952Y-95002438D01*
X208455952Y-95002438D02*
X208408333Y-95050057D01*
X208408333Y-95050057D02*
X208313095Y-95192914D01*
X208313095Y-95192914D02*
X208265476Y-95383390D01*
X208265476Y-95383390D02*
X208265476Y-95764342D01*
X208265476Y-95764342D02*
X208313095Y-95859580D01*
X208313095Y-95859580D02*
X208360714Y-95907200D01*
X208360714Y-95907200D02*
X208455952Y-95954819D01*
X208455952Y-95954819D02*
X208646428Y-95954819D01*
X208646428Y-95954819D02*
X208741666Y-95907200D01*
X208741666Y-95907200D02*
X208789285Y-95859580D01*
X208789285Y-95859580D02*
X208836904Y-95764342D01*
X208836904Y-95764342D02*
X208836904Y-95526247D01*
X208836904Y-95526247D02*
X208789285Y-95431009D01*
X208789285Y-95431009D02*
X208741666Y-95383390D01*
X208741666Y-95383390D02*
X208646428Y-95335771D01*
X208646428Y-95335771D02*
X208455952Y-95335771D01*
X208455952Y-95335771D02*
X208360714Y-95383390D01*
X208360714Y-95383390D02*
X208313095Y-95431009D01*
X208313095Y-95431009D02*
X208265476Y-95526247D01*
X206857142Y-94204819D02*
X206523809Y-93728628D01*
X206285714Y-94204819D02*
X206285714Y-93204819D01*
X206285714Y-93204819D02*
X206666666Y-93204819D01*
X206666666Y-93204819D02*
X206761904Y-93252438D01*
X206761904Y-93252438D02*
X206809523Y-93300057D01*
X206809523Y-93300057D02*
X206857142Y-93395295D01*
X206857142Y-93395295D02*
X206857142Y-93538152D01*
X206857142Y-93538152D02*
X206809523Y-93633390D01*
X206809523Y-93633390D02*
X206761904Y-93681009D01*
X206761904Y-93681009D02*
X206666666Y-93728628D01*
X206666666Y-93728628D02*
X206285714Y-93728628D01*
X207809523Y-94204819D02*
X207238095Y-94204819D01*
X207523809Y-94204819D02*
X207523809Y-93204819D01*
X207523809Y-93204819D02*
X207428571Y-93347676D01*
X207428571Y-93347676D02*
X207333333Y-93442914D01*
X207333333Y-93442914D02*
X207238095Y-93490533D01*
X208714285Y-93204819D02*
X208238095Y-93204819D01*
X208238095Y-93204819D02*
X208190476Y-93681009D01*
X208190476Y-93681009D02*
X208238095Y-93633390D01*
X208238095Y-93633390D02*
X208333333Y-93585771D01*
X208333333Y-93585771D02*
X208571428Y-93585771D01*
X208571428Y-93585771D02*
X208666666Y-93633390D01*
X208666666Y-93633390D02*
X208714285Y-93681009D01*
X208714285Y-93681009D02*
X208761904Y-93776247D01*
X208761904Y-93776247D02*
X208761904Y-94014342D01*
X208761904Y-94014342D02*
X208714285Y-94109580D01*
X208714285Y-94109580D02*
X208666666Y-94157200D01*
X208666666Y-94157200D02*
X208571428Y-94204819D01*
X208571428Y-94204819D02*
X208333333Y-94204819D01*
X208333333Y-94204819D02*
X208238095Y-94157200D01*
X208238095Y-94157200D02*
X208190476Y-94109580D01*
X155607142Y-95954819D02*
X155273809Y-95478628D01*
X155035714Y-95954819D02*
X155035714Y-94954819D01*
X155035714Y-94954819D02*
X155416666Y-94954819D01*
X155416666Y-94954819D02*
X155511904Y-95002438D01*
X155511904Y-95002438D02*
X155559523Y-95050057D01*
X155559523Y-95050057D02*
X155607142Y-95145295D01*
X155607142Y-95145295D02*
X155607142Y-95288152D01*
X155607142Y-95288152D02*
X155559523Y-95383390D01*
X155559523Y-95383390D02*
X155511904Y-95431009D01*
X155511904Y-95431009D02*
X155416666Y-95478628D01*
X155416666Y-95478628D02*
X155035714Y-95478628D01*
X156559523Y-95954819D02*
X155988095Y-95954819D01*
X156273809Y-95954819D02*
X156273809Y-94954819D01*
X156273809Y-94954819D02*
X156178571Y-95097676D01*
X156178571Y-95097676D02*
X156083333Y-95192914D01*
X156083333Y-95192914D02*
X155988095Y-95240533D01*
X157416666Y-95288152D02*
X157416666Y-95954819D01*
X157178571Y-94907200D02*
X156940476Y-95621485D01*
X156940476Y-95621485D02*
X157559523Y-95621485D01*
X155607142Y-94204819D02*
X155273809Y-93728628D01*
X155035714Y-94204819D02*
X155035714Y-93204819D01*
X155035714Y-93204819D02*
X155416666Y-93204819D01*
X155416666Y-93204819D02*
X155511904Y-93252438D01*
X155511904Y-93252438D02*
X155559523Y-93300057D01*
X155559523Y-93300057D02*
X155607142Y-93395295D01*
X155607142Y-93395295D02*
X155607142Y-93538152D01*
X155607142Y-93538152D02*
X155559523Y-93633390D01*
X155559523Y-93633390D02*
X155511904Y-93681009D01*
X155511904Y-93681009D02*
X155416666Y-93728628D01*
X155416666Y-93728628D02*
X155035714Y-93728628D01*
X156559523Y-94204819D02*
X155988095Y-94204819D01*
X156273809Y-94204819D02*
X156273809Y-93204819D01*
X156273809Y-93204819D02*
X156178571Y-93347676D01*
X156178571Y-93347676D02*
X156083333Y-93442914D01*
X156083333Y-93442914D02*
X155988095Y-93490533D01*
X156892857Y-93204819D02*
X157511904Y-93204819D01*
X157511904Y-93204819D02*
X157178571Y-93585771D01*
X157178571Y-93585771D02*
X157321428Y-93585771D01*
X157321428Y-93585771D02*
X157416666Y-93633390D01*
X157416666Y-93633390D02*
X157464285Y-93681009D01*
X157464285Y-93681009D02*
X157511904Y-93776247D01*
X157511904Y-93776247D02*
X157511904Y-94014342D01*
X157511904Y-94014342D02*
X157464285Y-94109580D01*
X157464285Y-94109580D02*
X157416666Y-94157200D01*
X157416666Y-94157200D02*
X157321428Y-94204819D01*
X157321428Y-94204819D02*
X157035714Y-94204819D01*
X157035714Y-94204819D02*
X156940476Y-94157200D01*
X156940476Y-94157200D02*
X156892857Y-94109580D01*
X206774819Y-84967857D02*
X206298628Y-85301190D01*
X206774819Y-85539285D02*
X205774819Y-85539285D01*
X205774819Y-85539285D02*
X205774819Y-85158333D01*
X205774819Y-85158333D02*
X205822438Y-85063095D01*
X205822438Y-85063095D02*
X205870057Y-85015476D01*
X205870057Y-85015476D02*
X205965295Y-84967857D01*
X205965295Y-84967857D02*
X206108152Y-84967857D01*
X206108152Y-84967857D02*
X206203390Y-85015476D01*
X206203390Y-85015476D02*
X206251009Y-85063095D01*
X206251009Y-85063095D02*
X206298628Y-85158333D01*
X206298628Y-85158333D02*
X206298628Y-85539285D01*
X206774819Y-84015476D02*
X206774819Y-84586904D01*
X206774819Y-84301190D02*
X205774819Y-84301190D01*
X205774819Y-84301190D02*
X205917676Y-84396428D01*
X205917676Y-84396428D02*
X206012914Y-84491666D01*
X206012914Y-84491666D02*
X206060533Y-84586904D01*
X205870057Y-83634523D02*
X205822438Y-83586904D01*
X205822438Y-83586904D02*
X205774819Y-83491666D01*
X205774819Y-83491666D02*
X205774819Y-83253571D01*
X205774819Y-83253571D02*
X205822438Y-83158333D01*
X205822438Y-83158333D02*
X205870057Y-83110714D01*
X205870057Y-83110714D02*
X205965295Y-83063095D01*
X205965295Y-83063095D02*
X206060533Y-83063095D01*
X206060533Y-83063095D02*
X206203390Y-83110714D01*
X206203390Y-83110714D02*
X206774819Y-83682142D01*
X206774819Y-83682142D02*
X206774819Y-83063095D01*
X181432142Y-85134819D02*
X181098809Y-84658628D01*
X180860714Y-85134819D02*
X180860714Y-84134819D01*
X180860714Y-84134819D02*
X181241666Y-84134819D01*
X181241666Y-84134819D02*
X181336904Y-84182438D01*
X181336904Y-84182438D02*
X181384523Y-84230057D01*
X181384523Y-84230057D02*
X181432142Y-84325295D01*
X181432142Y-84325295D02*
X181432142Y-84468152D01*
X181432142Y-84468152D02*
X181384523Y-84563390D01*
X181384523Y-84563390D02*
X181336904Y-84611009D01*
X181336904Y-84611009D02*
X181241666Y-84658628D01*
X181241666Y-84658628D02*
X180860714Y-84658628D01*
X182384523Y-85134819D02*
X181813095Y-85134819D01*
X182098809Y-85134819D02*
X182098809Y-84134819D01*
X182098809Y-84134819D02*
X182003571Y-84277676D01*
X182003571Y-84277676D02*
X181908333Y-84372914D01*
X181908333Y-84372914D02*
X181813095Y-84420533D01*
X183336904Y-85134819D02*
X182765476Y-85134819D01*
X183051190Y-85134819D02*
X183051190Y-84134819D01*
X183051190Y-84134819D02*
X182955952Y-84277676D01*
X182955952Y-84277676D02*
X182860714Y-84372914D01*
X182860714Y-84372914D02*
X182765476Y-84420533D01*
X157954819Y-84967857D02*
X157478628Y-85301190D01*
X157954819Y-85539285D02*
X156954819Y-85539285D01*
X156954819Y-85539285D02*
X156954819Y-85158333D01*
X156954819Y-85158333D02*
X157002438Y-85063095D01*
X157002438Y-85063095D02*
X157050057Y-85015476D01*
X157050057Y-85015476D02*
X157145295Y-84967857D01*
X157145295Y-84967857D02*
X157288152Y-84967857D01*
X157288152Y-84967857D02*
X157383390Y-85015476D01*
X157383390Y-85015476D02*
X157431009Y-85063095D01*
X157431009Y-85063095D02*
X157478628Y-85158333D01*
X157478628Y-85158333D02*
X157478628Y-85539285D01*
X157954819Y-84015476D02*
X157954819Y-84586904D01*
X157954819Y-84301190D02*
X156954819Y-84301190D01*
X156954819Y-84301190D02*
X157097676Y-84396428D01*
X157097676Y-84396428D02*
X157192914Y-84491666D01*
X157192914Y-84491666D02*
X157240533Y-84586904D01*
X156954819Y-83396428D02*
X156954819Y-83301190D01*
X156954819Y-83301190D02*
X157002438Y-83205952D01*
X157002438Y-83205952D02*
X157050057Y-83158333D01*
X157050057Y-83158333D02*
X157145295Y-83110714D01*
X157145295Y-83110714D02*
X157335771Y-83063095D01*
X157335771Y-83063095D02*
X157573866Y-83063095D01*
X157573866Y-83063095D02*
X157764342Y-83110714D01*
X157764342Y-83110714D02*
X157859580Y-83158333D01*
X157859580Y-83158333D02*
X157907200Y-83205952D01*
X157907200Y-83205952D02*
X157954819Y-83301190D01*
X157954819Y-83301190D02*
X157954819Y-83396428D01*
X157954819Y-83396428D02*
X157907200Y-83491666D01*
X157907200Y-83491666D02*
X157859580Y-83539285D01*
X157859580Y-83539285D02*
X157764342Y-83586904D01*
X157764342Y-83586904D02*
X157573866Y-83634523D01*
X157573866Y-83634523D02*
X157335771Y-83634523D01*
X157335771Y-83634523D02*
X157145295Y-83586904D01*
X157145295Y-83586904D02*
X157050057Y-83539285D01*
X157050057Y-83539285D02*
X157002438Y-83491666D01*
X157002438Y-83491666D02*
X156954819Y-83396428D01*
X210024819Y-84491666D02*
X209548628Y-84824999D01*
X210024819Y-85063094D02*
X209024819Y-85063094D01*
X209024819Y-85063094D02*
X209024819Y-84682142D01*
X209024819Y-84682142D02*
X209072438Y-84586904D01*
X209072438Y-84586904D02*
X209120057Y-84539285D01*
X209120057Y-84539285D02*
X209215295Y-84491666D01*
X209215295Y-84491666D02*
X209358152Y-84491666D01*
X209358152Y-84491666D02*
X209453390Y-84539285D01*
X209453390Y-84539285D02*
X209501009Y-84586904D01*
X209501009Y-84586904D02*
X209548628Y-84682142D01*
X209548628Y-84682142D02*
X209548628Y-85063094D01*
X210024819Y-84015475D02*
X210024819Y-83824999D01*
X210024819Y-83824999D02*
X209977200Y-83729761D01*
X209977200Y-83729761D02*
X209929580Y-83682142D01*
X209929580Y-83682142D02*
X209786723Y-83586904D01*
X209786723Y-83586904D02*
X209596247Y-83539285D01*
X209596247Y-83539285D02*
X209215295Y-83539285D01*
X209215295Y-83539285D02*
X209120057Y-83586904D01*
X209120057Y-83586904D02*
X209072438Y-83634523D01*
X209072438Y-83634523D02*
X209024819Y-83729761D01*
X209024819Y-83729761D02*
X209024819Y-83920237D01*
X209024819Y-83920237D02*
X209072438Y-84015475D01*
X209072438Y-84015475D02*
X209120057Y-84063094D01*
X209120057Y-84063094D02*
X209215295Y-84110713D01*
X209215295Y-84110713D02*
X209453390Y-84110713D01*
X209453390Y-84110713D02*
X209548628Y-84063094D01*
X209548628Y-84063094D02*
X209596247Y-84015475D01*
X209596247Y-84015475D02*
X209643866Y-83920237D01*
X209643866Y-83920237D02*
X209643866Y-83729761D01*
X209643866Y-83729761D02*
X209596247Y-83634523D01*
X209596247Y-83634523D02*
X209548628Y-83586904D01*
X209548628Y-83586904D02*
X209453390Y-83539285D01*
X181908333Y-82134819D02*
X181575000Y-81658628D01*
X181336905Y-82134819D02*
X181336905Y-81134819D01*
X181336905Y-81134819D02*
X181717857Y-81134819D01*
X181717857Y-81134819D02*
X181813095Y-81182438D01*
X181813095Y-81182438D02*
X181860714Y-81230057D01*
X181860714Y-81230057D02*
X181908333Y-81325295D01*
X181908333Y-81325295D02*
X181908333Y-81468152D01*
X181908333Y-81468152D02*
X181860714Y-81563390D01*
X181860714Y-81563390D02*
X181813095Y-81611009D01*
X181813095Y-81611009D02*
X181717857Y-81658628D01*
X181717857Y-81658628D02*
X181336905Y-81658628D01*
X182479762Y-81563390D02*
X182384524Y-81515771D01*
X182384524Y-81515771D02*
X182336905Y-81468152D01*
X182336905Y-81468152D02*
X182289286Y-81372914D01*
X182289286Y-81372914D02*
X182289286Y-81325295D01*
X182289286Y-81325295D02*
X182336905Y-81230057D01*
X182336905Y-81230057D02*
X182384524Y-81182438D01*
X182384524Y-81182438D02*
X182479762Y-81134819D01*
X182479762Y-81134819D02*
X182670238Y-81134819D01*
X182670238Y-81134819D02*
X182765476Y-81182438D01*
X182765476Y-81182438D02*
X182813095Y-81230057D01*
X182813095Y-81230057D02*
X182860714Y-81325295D01*
X182860714Y-81325295D02*
X182860714Y-81372914D01*
X182860714Y-81372914D02*
X182813095Y-81468152D01*
X182813095Y-81468152D02*
X182765476Y-81515771D01*
X182765476Y-81515771D02*
X182670238Y-81563390D01*
X182670238Y-81563390D02*
X182479762Y-81563390D01*
X182479762Y-81563390D02*
X182384524Y-81611009D01*
X182384524Y-81611009D02*
X182336905Y-81658628D01*
X182336905Y-81658628D02*
X182289286Y-81753866D01*
X182289286Y-81753866D02*
X182289286Y-81944342D01*
X182289286Y-81944342D02*
X182336905Y-82039580D01*
X182336905Y-82039580D02*
X182384524Y-82087200D01*
X182384524Y-82087200D02*
X182479762Y-82134819D01*
X182479762Y-82134819D02*
X182670238Y-82134819D01*
X182670238Y-82134819D02*
X182765476Y-82087200D01*
X182765476Y-82087200D02*
X182813095Y-82039580D01*
X182813095Y-82039580D02*
X182860714Y-81944342D01*
X182860714Y-81944342D02*
X182860714Y-81753866D01*
X182860714Y-81753866D02*
X182813095Y-81658628D01*
X182813095Y-81658628D02*
X182765476Y-81611009D01*
X182765476Y-81611009D02*
X182670238Y-81563390D01*
X154634819Y-84491666D02*
X154158628Y-84824999D01*
X154634819Y-85063094D02*
X153634819Y-85063094D01*
X153634819Y-85063094D02*
X153634819Y-84682142D01*
X153634819Y-84682142D02*
X153682438Y-84586904D01*
X153682438Y-84586904D02*
X153730057Y-84539285D01*
X153730057Y-84539285D02*
X153825295Y-84491666D01*
X153825295Y-84491666D02*
X153968152Y-84491666D01*
X153968152Y-84491666D02*
X154063390Y-84539285D01*
X154063390Y-84539285D02*
X154111009Y-84586904D01*
X154111009Y-84586904D02*
X154158628Y-84682142D01*
X154158628Y-84682142D02*
X154158628Y-85063094D01*
X153634819Y-84158332D02*
X153634819Y-83491666D01*
X153634819Y-83491666D02*
X154634819Y-83920237D01*
X210024819Y-76991666D02*
X209548628Y-77324999D01*
X210024819Y-77563094D02*
X209024819Y-77563094D01*
X209024819Y-77563094D02*
X209024819Y-77182142D01*
X209024819Y-77182142D02*
X209072438Y-77086904D01*
X209072438Y-77086904D02*
X209120057Y-77039285D01*
X209120057Y-77039285D02*
X209215295Y-76991666D01*
X209215295Y-76991666D02*
X209358152Y-76991666D01*
X209358152Y-76991666D02*
X209453390Y-77039285D01*
X209453390Y-77039285D02*
X209501009Y-77086904D01*
X209501009Y-77086904D02*
X209548628Y-77182142D01*
X209548628Y-77182142D02*
X209548628Y-77563094D01*
X209024819Y-76134523D02*
X209024819Y-76324999D01*
X209024819Y-76324999D02*
X209072438Y-76420237D01*
X209072438Y-76420237D02*
X209120057Y-76467856D01*
X209120057Y-76467856D02*
X209262914Y-76563094D01*
X209262914Y-76563094D02*
X209453390Y-76610713D01*
X209453390Y-76610713D02*
X209834342Y-76610713D01*
X209834342Y-76610713D02*
X209929580Y-76563094D01*
X209929580Y-76563094D02*
X209977200Y-76515475D01*
X209977200Y-76515475D02*
X210024819Y-76420237D01*
X210024819Y-76420237D02*
X210024819Y-76229761D01*
X210024819Y-76229761D02*
X209977200Y-76134523D01*
X209977200Y-76134523D02*
X209929580Y-76086904D01*
X209929580Y-76086904D02*
X209834342Y-76039285D01*
X209834342Y-76039285D02*
X209596247Y-76039285D01*
X209596247Y-76039285D02*
X209501009Y-76086904D01*
X209501009Y-76086904D02*
X209453390Y-76134523D01*
X209453390Y-76134523D02*
X209405771Y-76229761D01*
X209405771Y-76229761D02*
X209405771Y-76420237D01*
X209405771Y-76420237D02*
X209453390Y-76515475D01*
X209453390Y-76515475D02*
X209501009Y-76563094D01*
X209501009Y-76563094D02*
X209596247Y-76610713D01*
X174158333Y-82134819D02*
X173825000Y-81658628D01*
X173586905Y-82134819D02*
X173586905Y-81134819D01*
X173586905Y-81134819D02*
X173967857Y-81134819D01*
X173967857Y-81134819D02*
X174063095Y-81182438D01*
X174063095Y-81182438D02*
X174110714Y-81230057D01*
X174110714Y-81230057D02*
X174158333Y-81325295D01*
X174158333Y-81325295D02*
X174158333Y-81468152D01*
X174158333Y-81468152D02*
X174110714Y-81563390D01*
X174110714Y-81563390D02*
X174063095Y-81611009D01*
X174063095Y-81611009D02*
X173967857Y-81658628D01*
X173967857Y-81658628D02*
X173586905Y-81658628D01*
X175063095Y-81134819D02*
X174586905Y-81134819D01*
X174586905Y-81134819D02*
X174539286Y-81611009D01*
X174539286Y-81611009D02*
X174586905Y-81563390D01*
X174586905Y-81563390D02*
X174682143Y-81515771D01*
X174682143Y-81515771D02*
X174920238Y-81515771D01*
X174920238Y-81515771D02*
X175015476Y-81563390D01*
X175015476Y-81563390D02*
X175063095Y-81611009D01*
X175063095Y-81611009D02*
X175110714Y-81706247D01*
X175110714Y-81706247D02*
X175110714Y-81944342D01*
X175110714Y-81944342D02*
X175063095Y-82039580D01*
X175063095Y-82039580D02*
X175015476Y-82087200D01*
X175015476Y-82087200D02*
X174920238Y-82134819D01*
X174920238Y-82134819D02*
X174682143Y-82134819D01*
X174682143Y-82134819D02*
X174586905Y-82087200D01*
X174586905Y-82087200D02*
X174539286Y-82039580D01*
X154634819Y-92091666D02*
X154158628Y-92424999D01*
X154634819Y-92663094D02*
X153634819Y-92663094D01*
X153634819Y-92663094D02*
X153634819Y-92282142D01*
X153634819Y-92282142D02*
X153682438Y-92186904D01*
X153682438Y-92186904D02*
X153730057Y-92139285D01*
X153730057Y-92139285D02*
X153825295Y-92091666D01*
X153825295Y-92091666D02*
X153968152Y-92091666D01*
X153968152Y-92091666D02*
X154063390Y-92139285D01*
X154063390Y-92139285D02*
X154111009Y-92186904D01*
X154111009Y-92186904D02*
X154158628Y-92282142D01*
X154158628Y-92282142D02*
X154158628Y-92663094D01*
X153968152Y-91234523D02*
X154634819Y-91234523D01*
X153587200Y-91472618D02*
X154301485Y-91710713D01*
X154301485Y-91710713D02*
X154301485Y-91091666D01*
X210024819Y-92491666D02*
X209548628Y-92824999D01*
X210024819Y-93063094D02*
X209024819Y-93063094D01*
X209024819Y-93063094D02*
X209024819Y-92682142D01*
X209024819Y-92682142D02*
X209072438Y-92586904D01*
X209072438Y-92586904D02*
X209120057Y-92539285D01*
X209120057Y-92539285D02*
X209215295Y-92491666D01*
X209215295Y-92491666D02*
X209358152Y-92491666D01*
X209358152Y-92491666D02*
X209453390Y-92539285D01*
X209453390Y-92539285D02*
X209501009Y-92586904D01*
X209501009Y-92586904D02*
X209548628Y-92682142D01*
X209548628Y-92682142D02*
X209548628Y-93063094D01*
X209024819Y-92158332D02*
X209024819Y-91539285D01*
X209024819Y-91539285D02*
X209405771Y-91872618D01*
X209405771Y-91872618D02*
X209405771Y-91729761D01*
X209405771Y-91729761D02*
X209453390Y-91634523D01*
X209453390Y-91634523D02*
X209501009Y-91586904D01*
X209501009Y-91586904D02*
X209596247Y-91539285D01*
X209596247Y-91539285D02*
X209834342Y-91539285D01*
X209834342Y-91539285D02*
X209929580Y-91586904D01*
X209929580Y-91586904D02*
X209977200Y-91634523D01*
X209977200Y-91634523D02*
X210024819Y-91729761D01*
X210024819Y-91729761D02*
X210024819Y-92015475D01*
X210024819Y-92015475D02*
X209977200Y-92110713D01*
X209977200Y-92110713D02*
X209929580Y-92158332D01*
X189658333Y-82134819D02*
X189325000Y-81658628D01*
X189086905Y-82134819D02*
X189086905Y-81134819D01*
X189086905Y-81134819D02*
X189467857Y-81134819D01*
X189467857Y-81134819D02*
X189563095Y-81182438D01*
X189563095Y-81182438D02*
X189610714Y-81230057D01*
X189610714Y-81230057D02*
X189658333Y-81325295D01*
X189658333Y-81325295D02*
X189658333Y-81468152D01*
X189658333Y-81468152D02*
X189610714Y-81563390D01*
X189610714Y-81563390D02*
X189563095Y-81611009D01*
X189563095Y-81611009D02*
X189467857Y-81658628D01*
X189467857Y-81658628D02*
X189086905Y-81658628D01*
X190039286Y-81230057D02*
X190086905Y-81182438D01*
X190086905Y-81182438D02*
X190182143Y-81134819D01*
X190182143Y-81134819D02*
X190420238Y-81134819D01*
X190420238Y-81134819D02*
X190515476Y-81182438D01*
X190515476Y-81182438D02*
X190563095Y-81230057D01*
X190563095Y-81230057D02*
X190610714Y-81325295D01*
X190610714Y-81325295D02*
X190610714Y-81420533D01*
X190610714Y-81420533D02*
X190563095Y-81563390D01*
X190563095Y-81563390D02*
X189991667Y-82134819D01*
X189991667Y-82134819D02*
X190610714Y-82134819D01*
X154634819Y-76991666D02*
X154158628Y-77324999D01*
X154634819Y-77563094D02*
X153634819Y-77563094D01*
X153634819Y-77563094D02*
X153634819Y-77182142D01*
X153634819Y-77182142D02*
X153682438Y-77086904D01*
X153682438Y-77086904D02*
X153730057Y-77039285D01*
X153730057Y-77039285D02*
X153825295Y-76991666D01*
X153825295Y-76991666D02*
X153968152Y-76991666D01*
X153968152Y-76991666D02*
X154063390Y-77039285D01*
X154063390Y-77039285D02*
X154111009Y-77086904D01*
X154111009Y-77086904D02*
X154158628Y-77182142D01*
X154158628Y-77182142D02*
X154158628Y-77563094D01*
X154634819Y-76039285D02*
X154634819Y-76610713D01*
X154634819Y-76324999D02*
X153634819Y-76324999D01*
X153634819Y-76324999D02*
X153777676Y-76420237D01*
X153777676Y-76420237D02*
X153872914Y-76515475D01*
X153872914Y-76515475D02*
X153920533Y-76610713D01*
X204404761Y-88650057D02*
X204309523Y-88602438D01*
X204309523Y-88602438D02*
X204214285Y-88507200D01*
X204214285Y-88507200D02*
X204071428Y-88364342D01*
X204071428Y-88364342D02*
X203976190Y-88316723D01*
X203976190Y-88316723D02*
X203880952Y-88316723D01*
X203928571Y-88554819D02*
X203833333Y-88507200D01*
X203833333Y-88507200D02*
X203738095Y-88411961D01*
X203738095Y-88411961D02*
X203690476Y-88221485D01*
X203690476Y-88221485D02*
X203690476Y-87888152D01*
X203690476Y-87888152D02*
X203738095Y-87697676D01*
X203738095Y-87697676D02*
X203833333Y-87602438D01*
X203833333Y-87602438D02*
X203928571Y-87554819D01*
X203928571Y-87554819D02*
X204119047Y-87554819D01*
X204119047Y-87554819D02*
X204214285Y-87602438D01*
X204214285Y-87602438D02*
X204309523Y-87697676D01*
X204309523Y-87697676D02*
X204357142Y-87888152D01*
X204357142Y-87888152D02*
X204357142Y-88221485D01*
X204357142Y-88221485D02*
X204309523Y-88411961D01*
X204309523Y-88411961D02*
X204214285Y-88507200D01*
X204214285Y-88507200D02*
X204119047Y-88554819D01*
X204119047Y-88554819D02*
X203928571Y-88554819D01*
X204738095Y-87650057D02*
X204785714Y-87602438D01*
X204785714Y-87602438D02*
X204880952Y-87554819D01*
X204880952Y-87554819D02*
X205119047Y-87554819D01*
X205119047Y-87554819D02*
X205214285Y-87602438D01*
X205214285Y-87602438D02*
X205261904Y-87650057D01*
X205261904Y-87650057D02*
X205309523Y-87745295D01*
X205309523Y-87745295D02*
X205309523Y-87840533D01*
X205309523Y-87840533D02*
X205261904Y-87983390D01*
X205261904Y-87983390D02*
X204690476Y-88554819D01*
X204690476Y-88554819D02*
X205309523Y-88554819D01*
X159217261Y-88650057D02*
X159122023Y-88602438D01*
X159122023Y-88602438D02*
X159026785Y-88507200D01*
X159026785Y-88507200D02*
X158883928Y-88364342D01*
X158883928Y-88364342D02*
X158788690Y-88316723D01*
X158788690Y-88316723D02*
X158693452Y-88316723D01*
X158741071Y-88554819D02*
X158645833Y-88507200D01*
X158645833Y-88507200D02*
X158550595Y-88411961D01*
X158550595Y-88411961D02*
X158502976Y-88221485D01*
X158502976Y-88221485D02*
X158502976Y-87888152D01*
X158502976Y-87888152D02*
X158550595Y-87697676D01*
X158550595Y-87697676D02*
X158645833Y-87602438D01*
X158645833Y-87602438D02*
X158741071Y-87554819D01*
X158741071Y-87554819D02*
X158931547Y-87554819D01*
X158931547Y-87554819D02*
X159026785Y-87602438D01*
X159026785Y-87602438D02*
X159122023Y-87697676D01*
X159122023Y-87697676D02*
X159169642Y-87888152D01*
X159169642Y-87888152D02*
X159169642Y-88221485D01*
X159169642Y-88221485D02*
X159122023Y-88411961D01*
X159122023Y-88411961D02*
X159026785Y-88507200D01*
X159026785Y-88507200D02*
X158931547Y-88554819D01*
X158931547Y-88554819D02*
X158741071Y-88554819D01*
X160122023Y-88554819D02*
X159550595Y-88554819D01*
X159836309Y-88554819D02*
X159836309Y-87554819D01*
X159836309Y-87554819D02*
X159741071Y-87697676D01*
X159741071Y-87697676D02*
X159645833Y-87792914D01*
X159645833Y-87792914D02*
X159550595Y-87840533D01*
X195540476Y-84154819D02*
X195540476Y-84869104D01*
X195540476Y-84869104D02*
X195492857Y-85011961D01*
X195492857Y-85011961D02*
X195397619Y-85107200D01*
X195397619Y-85107200D02*
X195254762Y-85154819D01*
X195254762Y-85154819D02*
X195159524Y-85154819D01*
X196016667Y-85154819D02*
X196016667Y-84154819D01*
X196016667Y-84154819D02*
X196397619Y-84154819D01*
X196397619Y-84154819D02*
X196492857Y-84202438D01*
X196492857Y-84202438D02*
X196540476Y-84250057D01*
X196540476Y-84250057D02*
X196588095Y-84345295D01*
X196588095Y-84345295D02*
X196588095Y-84488152D01*
X196588095Y-84488152D02*
X196540476Y-84583390D01*
X196540476Y-84583390D02*
X196492857Y-84631009D01*
X196492857Y-84631009D02*
X196397619Y-84678628D01*
X196397619Y-84678628D02*
X196016667Y-84678628D01*
X197540476Y-85154819D02*
X196969048Y-85154819D01*
X197254762Y-85154819D02*
X197254762Y-84154819D01*
X197254762Y-84154819D02*
X197159524Y-84297676D01*
X197159524Y-84297676D02*
X197064286Y-84392914D01*
X197064286Y-84392914D02*
X196969048Y-84440533D01*
X198159524Y-84154819D02*
X198254762Y-84154819D01*
X198254762Y-84154819D02*
X198350000Y-84202438D01*
X198350000Y-84202438D02*
X198397619Y-84250057D01*
X198397619Y-84250057D02*
X198445238Y-84345295D01*
X198445238Y-84345295D02*
X198492857Y-84535771D01*
X198492857Y-84535771D02*
X198492857Y-84773866D01*
X198492857Y-84773866D02*
X198445238Y-84964342D01*
X198445238Y-84964342D02*
X198397619Y-85059580D01*
X198397619Y-85059580D02*
X198350000Y-85107200D01*
X198350000Y-85107200D02*
X198254762Y-85154819D01*
X198254762Y-85154819D02*
X198159524Y-85154819D01*
X198159524Y-85154819D02*
X198064286Y-85107200D01*
X198064286Y-85107200D02*
X198016667Y-85059580D01*
X198016667Y-85059580D02*
X197969048Y-84964342D01*
X197969048Y-84964342D02*
X197921429Y-84773866D01*
X197921429Y-84773866D02*
X197921429Y-84535771D01*
X197921429Y-84535771D02*
X197969048Y-84345295D01*
X197969048Y-84345295D02*
X198016667Y-84250057D01*
X198016667Y-84250057D02*
X198064286Y-84202438D01*
X198064286Y-84202438D02*
X198159524Y-84154819D01*
X186266666Y-84154819D02*
X186266666Y-84869104D01*
X186266666Y-84869104D02*
X186219047Y-85011961D01*
X186219047Y-85011961D02*
X186123809Y-85107200D01*
X186123809Y-85107200D02*
X185980952Y-85154819D01*
X185980952Y-85154819D02*
X185885714Y-85154819D01*
X186742857Y-85154819D02*
X186742857Y-84154819D01*
X186742857Y-84154819D02*
X187123809Y-84154819D01*
X187123809Y-84154819D02*
X187219047Y-84202438D01*
X187219047Y-84202438D02*
X187266666Y-84250057D01*
X187266666Y-84250057D02*
X187314285Y-84345295D01*
X187314285Y-84345295D02*
X187314285Y-84488152D01*
X187314285Y-84488152D02*
X187266666Y-84583390D01*
X187266666Y-84583390D02*
X187219047Y-84631009D01*
X187219047Y-84631009D02*
X187123809Y-84678628D01*
X187123809Y-84678628D02*
X186742857Y-84678628D01*
X187790476Y-85154819D02*
X187980952Y-85154819D01*
X187980952Y-85154819D02*
X188076190Y-85107200D01*
X188076190Y-85107200D02*
X188123809Y-85059580D01*
X188123809Y-85059580D02*
X188219047Y-84916723D01*
X188219047Y-84916723D02*
X188266666Y-84726247D01*
X188266666Y-84726247D02*
X188266666Y-84345295D01*
X188266666Y-84345295D02*
X188219047Y-84250057D01*
X188219047Y-84250057D02*
X188171428Y-84202438D01*
X188171428Y-84202438D02*
X188076190Y-84154819D01*
X188076190Y-84154819D02*
X187885714Y-84154819D01*
X187885714Y-84154819D02*
X187790476Y-84202438D01*
X187790476Y-84202438D02*
X187742857Y-84250057D01*
X187742857Y-84250057D02*
X187695238Y-84345295D01*
X187695238Y-84345295D02*
X187695238Y-84583390D01*
X187695238Y-84583390D02*
X187742857Y-84678628D01*
X187742857Y-84678628D02*
X187790476Y-84726247D01*
X187790476Y-84726247D02*
X187885714Y-84773866D01*
X187885714Y-84773866D02*
X188076190Y-84773866D01*
X188076190Y-84773866D02*
X188171428Y-84726247D01*
X188171428Y-84726247D02*
X188219047Y-84678628D01*
X188219047Y-84678628D02*
X188266666Y-84583390D01*
X171016666Y-83904819D02*
X171016666Y-84619104D01*
X171016666Y-84619104D02*
X170969047Y-84761961D01*
X170969047Y-84761961D02*
X170873809Y-84857200D01*
X170873809Y-84857200D02*
X170730952Y-84904819D01*
X170730952Y-84904819D02*
X170635714Y-84904819D01*
X171492857Y-84904819D02*
X171492857Y-83904819D01*
X171492857Y-83904819D02*
X171873809Y-83904819D01*
X171873809Y-83904819D02*
X171969047Y-83952438D01*
X171969047Y-83952438D02*
X172016666Y-84000057D01*
X172016666Y-84000057D02*
X172064285Y-84095295D01*
X172064285Y-84095295D02*
X172064285Y-84238152D01*
X172064285Y-84238152D02*
X172016666Y-84333390D01*
X172016666Y-84333390D02*
X171969047Y-84381009D01*
X171969047Y-84381009D02*
X171873809Y-84428628D01*
X171873809Y-84428628D02*
X171492857Y-84428628D01*
X172635714Y-84333390D02*
X172540476Y-84285771D01*
X172540476Y-84285771D02*
X172492857Y-84238152D01*
X172492857Y-84238152D02*
X172445238Y-84142914D01*
X172445238Y-84142914D02*
X172445238Y-84095295D01*
X172445238Y-84095295D02*
X172492857Y-84000057D01*
X172492857Y-84000057D02*
X172540476Y-83952438D01*
X172540476Y-83952438D02*
X172635714Y-83904819D01*
X172635714Y-83904819D02*
X172826190Y-83904819D01*
X172826190Y-83904819D02*
X172921428Y-83952438D01*
X172921428Y-83952438D02*
X172969047Y-84000057D01*
X172969047Y-84000057D02*
X173016666Y-84095295D01*
X173016666Y-84095295D02*
X173016666Y-84142914D01*
X173016666Y-84142914D02*
X172969047Y-84238152D01*
X172969047Y-84238152D02*
X172921428Y-84285771D01*
X172921428Y-84285771D02*
X172826190Y-84333390D01*
X172826190Y-84333390D02*
X172635714Y-84333390D01*
X172635714Y-84333390D02*
X172540476Y-84381009D01*
X172540476Y-84381009D02*
X172492857Y-84428628D01*
X172492857Y-84428628D02*
X172445238Y-84523866D01*
X172445238Y-84523866D02*
X172445238Y-84714342D01*
X172445238Y-84714342D02*
X172492857Y-84809580D01*
X172492857Y-84809580D02*
X172540476Y-84857200D01*
X172540476Y-84857200D02*
X172635714Y-84904819D01*
X172635714Y-84904819D02*
X172826190Y-84904819D01*
X172826190Y-84904819D02*
X172921428Y-84857200D01*
X172921428Y-84857200D02*
X172969047Y-84809580D01*
X172969047Y-84809580D02*
X173016666Y-84714342D01*
X173016666Y-84714342D02*
X173016666Y-84523866D01*
X173016666Y-84523866D02*
X172969047Y-84428628D01*
X172969047Y-84428628D02*
X172921428Y-84381009D01*
X172921428Y-84381009D02*
X172826190Y-84333390D01*
X191316666Y-84154819D02*
X191316666Y-84869104D01*
X191316666Y-84869104D02*
X191269047Y-85011961D01*
X191269047Y-85011961D02*
X191173809Y-85107200D01*
X191173809Y-85107200D02*
X191030952Y-85154819D01*
X191030952Y-85154819D02*
X190935714Y-85154819D01*
X191792857Y-85154819D02*
X191792857Y-84154819D01*
X191792857Y-84154819D02*
X192173809Y-84154819D01*
X192173809Y-84154819D02*
X192269047Y-84202438D01*
X192269047Y-84202438D02*
X192316666Y-84250057D01*
X192316666Y-84250057D02*
X192364285Y-84345295D01*
X192364285Y-84345295D02*
X192364285Y-84488152D01*
X192364285Y-84488152D02*
X192316666Y-84583390D01*
X192316666Y-84583390D02*
X192269047Y-84631009D01*
X192269047Y-84631009D02*
X192173809Y-84678628D01*
X192173809Y-84678628D02*
X191792857Y-84678628D01*
X192697619Y-84154819D02*
X193364285Y-84154819D01*
X193364285Y-84154819D02*
X192935714Y-85154819D01*
X176066666Y-83904819D02*
X176066666Y-84619104D01*
X176066666Y-84619104D02*
X176019047Y-84761961D01*
X176019047Y-84761961D02*
X175923809Y-84857200D01*
X175923809Y-84857200D02*
X175780952Y-84904819D01*
X175780952Y-84904819D02*
X175685714Y-84904819D01*
X176542857Y-84904819D02*
X176542857Y-83904819D01*
X176542857Y-83904819D02*
X176923809Y-83904819D01*
X176923809Y-83904819D02*
X177019047Y-83952438D01*
X177019047Y-83952438D02*
X177066666Y-84000057D01*
X177066666Y-84000057D02*
X177114285Y-84095295D01*
X177114285Y-84095295D02*
X177114285Y-84238152D01*
X177114285Y-84238152D02*
X177066666Y-84333390D01*
X177066666Y-84333390D02*
X177019047Y-84381009D01*
X177019047Y-84381009D02*
X176923809Y-84428628D01*
X176923809Y-84428628D02*
X176542857Y-84428628D01*
X177971428Y-83904819D02*
X177780952Y-83904819D01*
X177780952Y-83904819D02*
X177685714Y-83952438D01*
X177685714Y-83952438D02*
X177638095Y-84000057D01*
X177638095Y-84000057D02*
X177542857Y-84142914D01*
X177542857Y-84142914D02*
X177495238Y-84333390D01*
X177495238Y-84333390D02*
X177495238Y-84714342D01*
X177495238Y-84714342D02*
X177542857Y-84809580D01*
X177542857Y-84809580D02*
X177590476Y-84857200D01*
X177590476Y-84857200D02*
X177685714Y-84904819D01*
X177685714Y-84904819D02*
X177876190Y-84904819D01*
X177876190Y-84904819D02*
X177971428Y-84857200D01*
X177971428Y-84857200D02*
X178019047Y-84809580D01*
X178019047Y-84809580D02*
X178066666Y-84714342D01*
X178066666Y-84714342D02*
X178066666Y-84476247D01*
X178066666Y-84476247D02*
X178019047Y-84381009D01*
X178019047Y-84381009D02*
X177971428Y-84333390D01*
X177971428Y-84333390D02*
X177876190Y-84285771D01*
X177876190Y-84285771D02*
X177685714Y-84285771D01*
X177685714Y-84285771D02*
X177590476Y-84333390D01*
X177590476Y-84333390D02*
X177542857Y-84381009D01*
X177542857Y-84381009D02*
X177495238Y-84476247D01*
X165766666Y-83904819D02*
X165766666Y-84619104D01*
X165766666Y-84619104D02*
X165719047Y-84761961D01*
X165719047Y-84761961D02*
X165623809Y-84857200D01*
X165623809Y-84857200D02*
X165480952Y-84904819D01*
X165480952Y-84904819D02*
X165385714Y-84904819D01*
X166242857Y-84904819D02*
X166242857Y-83904819D01*
X166242857Y-83904819D02*
X166623809Y-83904819D01*
X166623809Y-83904819D02*
X166719047Y-83952438D01*
X166719047Y-83952438D02*
X166766666Y-84000057D01*
X166766666Y-84000057D02*
X166814285Y-84095295D01*
X166814285Y-84095295D02*
X166814285Y-84238152D01*
X166814285Y-84238152D02*
X166766666Y-84333390D01*
X166766666Y-84333390D02*
X166719047Y-84381009D01*
X166719047Y-84381009D02*
X166623809Y-84428628D01*
X166623809Y-84428628D02*
X166242857Y-84428628D01*
X167719047Y-83904819D02*
X167242857Y-83904819D01*
X167242857Y-83904819D02*
X167195238Y-84381009D01*
X167195238Y-84381009D02*
X167242857Y-84333390D01*
X167242857Y-84333390D02*
X167338095Y-84285771D01*
X167338095Y-84285771D02*
X167576190Y-84285771D01*
X167576190Y-84285771D02*
X167671428Y-84333390D01*
X167671428Y-84333390D02*
X167719047Y-84381009D01*
X167719047Y-84381009D02*
X167766666Y-84476247D01*
X167766666Y-84476247D02*
X167766666Y-84714342D01*
X167766666Y-84714342D02*
X167719047Y-84809580D01*
X167719047Y-84809580D02*
X167671428Y-84857200D01*
X167671428Y-84857200D02*
X167576190Y-84904819D01*
X167576190Y-84904819D02*
X167338095Y-84904819D01*
X167338095Y-84904819D02*
X167242857Y-84857200D01*
X167242857Y-84857200D02*
X167195238Y-84809580D01*
X201516666Y-78404819D02*
X201516666Y-79119104D01*
X201516666Y-79119104D02*
X201469047Y-79261961D01*
X201469047Y-79261961D02*
X201373809Y-79357200D01*
X201373809Y-79357200D02*
X201230952Y-79404819D01*
X201230952Y-79404819D02*
X201135714Y-79404819D01*
X201992857Y-79404819D02*
X201992857Y-78404819D01*
X201992857Y-78404819D02*
X202373809Y-78404819D01*
X202373809Y-78404819D02*
X202469047Y-78452438D01*
X202469047Y-78452438D02*
X202516666Y-78500057D01*
X202516666Y-78500057D02*
X202564285Y-78595295D01*
X202564285Y-78595295D02*
X202564285Y-78738152D01*
X202564285Y-78738152D02*
X202516666Y-78833390D01*
X202516666Y-78833390D02*
X202469047Y-78881009D01*
X202469047Y-78881009D02*
X202373809Y-78928628D01*
X202373809Y-78928628D02*
X201992857Y-78928628D01*
X203421428Y-78738152D02*
X203421428Y-79404819D01*
X203183333Y-78357200D02*
X202945238Y-79071485D01*
X202945238Y-79071485D02*
X203564285Y-79071485D01*
X196516666Y-78404819D02*
X196516666Y-79119104D01*
X196516666Y-79119104D02*
X196469047Y-79261961D01*
X196469047Y-79261961D02*
X196373809Y-79357200D01*
X196373809Y-79357200D02*
X196230952Y-79404819D01*
X196230952Y-79404819D02*
X196135714Y-79404819D01*
X196992857Y-79404819D02*
X196992857Y-78404819D01*
X196992857Y-78404819D02*
X197373809Y-78404819D01*
X197373809Y-78404819D02*
X197469047Y-78452438D01*
X197469047Y-78452438D02*
X197516666Y-78500057D01*
X197516666Y-78500057D02*
X197564285Y-78595295D01*
X197564285Y-78595295D02*
X197564285Y-78738152D01*
X197564285Y-78738152D02*
X197516666Y-78833390D01*
X197516666Y-78833390D02*
X197469047Y-78881009D01*
X197469047Y-78881009D02*
X197373809Y-78928628D01*
X197373809Y-78928628D02*
X196992857Y-78928628D01*
X197897619Y-78404819D02*
X198516666Y-78404819D01*
X198516666Y-78404819D02*
X198183333Y-78785771D01*
X198183333Y-78785771D02*
X198326190Y-78785771D01*
X198326190Y-78785771D02*
X198421428Y-78833390D01*
X198421428Y-78833390D02*
X198469047Y-78881009D01*
X198469047Y-78881009D02*
X198516666Y-78976247D01*
X198516666Y-78976247D02*
X198516666Y-79214342D01*
X198516666Y-79214342D02*
X198469047Y-79309580D01*
X198469047Y-79309580D02*
X198421428Y-79357200D01*
X198421428Y-79357200D02*
X198326190Y-79404819D01*
X198326190Y-79404819D02*
X198040476Y-79404819D01*
X198040476Y-79404819D02*
X197945238Y-79357200D01*
X197945238Y-79357200D02*
X197897619Y-79309580D01*
X166016666Y-78404819D02*
X166016666Y-79119104D01*
X166016666Y-79119104D02*
X165969047Y-79261961D01*
X165969047Y-79261961D02*
X165873809Y-79357200D01*
X165873809Y-79357200D02*
X165730952Y-79404819D01*
X165730952Y-79404819D02*
X165635714Y-79404819D01*
X166492857Y-79404819D02*
X166492857Y-78404819D01*
X166492857Y-78404819D02*
X166873809Y-78404819D01*
X166873809Y-78404819D02*
X166969047Y-78452438D01*
X166969047Y-78452438D02*
X167016666Y-78500057D01*
X167016666Y-78500057D02*
X167064285Y-78595295D01*
X167064285Y-78595295D02*
X167064285Y-78738152D01*
X167064285Y-78738152D02*
X167016666Y-78833390D01*
X167016666Y-78833390D02*
X166969047Y-78881009D01*
X166969047Y-78881009D02*
X166873809Y-78928628D01*
X166873809Y-78928628D02*
X166492857Y-78928628D01*
X167445238Y-78500057D02*
X167492857Y-78452438D01*
X167492857Y-78452438D02*
X167588095Y-78404819D01*
X167588095Y-78404819D02*
X167826190Y-78404819D01*
X167826190Y-78404819D02*
X167921428Y-78452438D01*
X167921428Y-78452438D02*
X167969047Y-78500057D01*
X167969047Y-78500057D02*
X168016666Y-78595295D01*
X168016666Y-78595295D02*
X168016666Y-78690533D01*
X168016666Y-78690533D02*
X167969047Y-78833390D01*
X167969047Y-78833390D02*
X167397619Y-79404819D01*
X167397619Y-79404819D02*
X168016666Y-79404819D01*
X160766666Y-78404819D02*
X160766666Y-79119104D01*
X160766666Y-79119104D02*
X160719047Y-79261961D01*
X160719047Y-79261961D02*
X160623809Y-79357200D01*
X160623809Y-79357200D02*
X160480952Y-79404819D01*
X160480952Y-79404819D02*
X160385714Y-79404819D01*
X161242857Y-79404819D02*
X161242857Y-78404819D01*
X161242857Y-78404819D02*
X161623809Y-78404819D01*
X161623809Y-78404819D02*
X161719047Y-78452438D01*
X161719047Y-78452438D02*
X161766666Y-78500057D01*
X161766666Y-78500057D02*
X161814285Y-78595295D01*
X161814285Y-78595295D02*
X161814285Y-78738152D01*
X161814285Y-78738152D02*
X161766666Y-78833390D01*
X161766666Y-78833390D02*
X161719047Y-78881009D01*
X161719047Y-78881009D02*
X161623809Y-78928628D01*
X161623809Y-78928628D02*
X161242857Y-78928628D01*
X162766666Y-79404819D02*
X162195238Y-79404819D01*
X162480952Y-79404819D02*
X162480952Y-78404819D01*
X162480952Y-78404819D02*
X162385714Y-78547676D01*
X162385714Y-78547676D02*
X162290476Y-78642914D01*
X162290476Y-78642914D02*
X162195238Y-78690533D01*
X200916666Y-95454819D02*
X200916666Y-96169104D01*
X200916666Y-96169104D02*
X200869047Y-96311961D01*
X200869047Y-96311961D02*
X200773809Y-96407200D01*
X200773809Y-96407200D02*
X200630952Y-96454819D01*
X200630952Y-96454819D02*
X200535714Y-96454819D01*
X201345238Y-95550057D02*
X201392857Y-95502438D01*
X201392857Y-95502438D02*
X201488095Y-95454819D01*
X201488095Y-95454819D02*
X201726190Y-95454819D01*
X201726190Y-95454819D02*
X201821428Y-95502438D01*
X201821428Y-95502438D02*
X201869047Y-95550057D01*
X201869047Y-95550057D02*
X201916666Y-95645295D01*
X201916666Y-95645295D02*
X201916666Y-95740533D01*
X201916666Y-95740533D02*
X201869047Y-95883390D01*
X201869047Y-95883390D02*
X201297619Y-96454819D01*
X201297619Y-96454819D02*
X201916666Y-96454819D01*
X213519819Y-77493094D02*
X212519819Y-77493094D01*
X212519819Y-77493094D02*
X212519819Y-77254999D01*
X212519819Y-77254999D02*
X212567438Y-77112142D01*
X212567438Y-77112142D02*
X212662676Y-77016904D01*
X212662676Y-77016904D02*
X212757914Y-76969285D01*
X212757914Y-76969285D02*
X212948390Y-76921666D01*
X212948390Y-76921666D02*
X213091247Y-76921666D01*
X213091247Y-76921666D02*
X213281723Y-76969285D01*
X213281723Y-76969285D02*
X213376961Y-77016904D01*
X213376961Y-77016904D02*
X213472200Y-77112142D01*
X213472200Y-77112142D02*
X213519819Y-77254999D01*
X213519819Y-77254999D02*
X213519819Y-77493094D01*
X212519819Y-76064523D02*
X212519819Y-76254999D01*
X212519819Y-76254999D02*
X212567438Y-76350237D01*
X212567438Y-76350237D02*
X212615057Y-76397856D01*
X212615057Y-76397856D02*
X212757914Y-76493094D01*
X212757914Y-76493094D02*
X212948390Y-76540713D01*
X212948390Y-76540713D02*
X213329342Y-76540713D01*
X213329342Y-76540713D02*
X213424580Y-76493094D01*
X213424580Y-76493094D02*
X213472200Y-76445475D01*
X213472200Y-76445475D02*
X213519819Y-76350237D01*
X213519819Y-76350237D02*
X213519819Y-76159761D01*
X213519819Y-76159761D02*
X213472200Y-76064523D01*
X213472200Y-76064523D02*
X213424580Y-76016904D01*
X213424580Y-76016904D02*
X213329342Y-75969285D01*
X213329342Y-75969285D02*
X213091247Y-75969285D01*
X213091247Y-75969285D02*
X212996009Y-76016904D01*
X212996009Y-76016904D02*
X212948390Y-76064523D01*
X212948390Y-76064523D02*
X212900771Y-76159761D01*
X212900771Y-76159761D02*
X212900771Y-76350237D01*
X212900771Y-76350237D02*
X212948390Y-76445475D01*
X212948390Y-76445475D02*
X212996009Y-76493094D01*
X212996009Y-76493094D02*
X213091247Y-76540713D01*
X173516905Y-78889819D02*
X173516905Y-77889819D01*
X173516905Y-77889819D02*
X173755000Y-77889819D01*
X173755000Y-77889819D02*
X173897857Y-77937438D01*
X173897857Y-77937438D02*
X173993095Y-78032676D01*
X173993095Y-78032676D02*
X174040714Y-78127914D01*
X174040714Y-78127914D02*
X174088333Y-78318390D01*
X174088333Y-78318390D02*
X174088333Y-78461247D01*
X174088333Y-78461247D02*
X174040714Y-78651723D01*
X174040714Y-78651723D02*
X173993095Y-78746961D01*
X173993095Y-78746961D02*
X173897857Y-78842200D01*
X173897857Y-78842200D02*
X173755000Y-78889819D01*
X173755000Y-78889819D02*
X173516905Y-78889819D01*
X174993095Y-77889819D02*
X174516905Y-77889819D01*
X174516905Y-77889819D02*
X174469286Y-78366009D01*
X174469286Y-78366009D02*
X174516905Y-78318390D01*
X174516905Y-78318390D02*
X174612143Y-78270771D01*
X174612143Y-78270771D02*
X174850238Y-78270771D01*
X174850238Y-78270771D02*
X174945476Y-78318390D01*
X174945476Y-78318390D02*
X174993095Y-78366009D01*
X174993095Y-78366009D02*
X175040714Y-78461247D01*
X175040714Y-78461247D02*
X175040714Y-78699342D01*
X175040714Y-78699342D02*
X174993095Y-78794580D01*
X174993095Y-78794580D02*
X174945476Y-78842200D01*
X174945476Y-78842200D02*
X174850238Y-78889819D01*
X174850238Y-78889819D02*
X174612143Y-78889819D01*
X174612143Y-78889819D02*
X174516905Y-78842200D01*
X174516905Y-78842200D02*
X174469286Y-78794580D01*
X151389819Y-92983094D02*
X150389819Y-92983094D01*
X150389819Y-92983094D02*
X150389819Y-92744999D01*
X150389819Y-92744999D02*
X150437438Y-92602142D01*
X150437438Y-92602142D02*
X150532676Y-92506904D01*
X150532676Y-92506904D02*
X150627914Y-92459285D01*
X150627914Y-92459285D02*
X150818390Y-92411666D01*
X150818390Y-92411666D02*
X150961247Y-92411666D01*
X150961247Y-92411666D02*
X151151723Y-92459285D01*
X151151723Y-92459285D02*
X151246961Y-92506904D01*
X151246961Y-92506904D02*
X151342200Y-92602142D01*
X151342200Y-92602142D02*
X151389819Y-92744999D01*
X151389819Y-92744999D02*
X151389819Y-92983094D01*
X150723152Y-91554523D02*
X151389819Y-91554523D01*
X150342200Y-91792618D02*
X151056485Y-92030713D01*
X151056485Y-92030713D02*
X151056485Y-91411666D01*
X189016905Y-78889819D02*
X189016905Y-77889819D01*
X189016905Y-77889819D02*
X189255000Y-77889819D01*
X189255000Y-77889819D02*
X189397857Y-77937438D01*
X189397857Y-77937438D02*
X189493095Y-78032676D01*
X189493095Y-78032676D02*
X189540714Y-78127914D01*
X189540714Y-78127914D02*
X189588333Y-78318390D01*
X189588333Y-78318390D02*
X189588333Y-78461247D01*
X189588333Y-78461247D02*
X189540714Y-78651723D01*
X189540714Y-78651723D02*
X189493095Y-78746961D01*
X189493095Y-78746961D02*
X189397857Y-78842200D01*
X189397857Y-78842200D02*
X189255000Y-78889819D01*
X189255000Y-78889819D02*
X189016905Y-78889819D01*
X189969286Y-77985057D02*
X190016905Y-77937438D01*
X190016905Y-77937438D02*
X190112143Y-77889819D01*
X190112143Y-77889819D02*
X190350238Y-77889819D01*
X190350238Y-77889819D02*
X190445476Y-77937438D01*
X190445476Y-77937438D02*
X190493095Y-77985057D01*
X190493095Y-77985057D02*
X190540714Y-78080295D01*
X190540714Y-78080295D02*
X190540714Y-78175533D01*
X190540714Y-78175533D02*
X190493095Y-78318390D01*
X190493095Y-78318390D02*
X189921667Y-78889819D01*
X189921667Y-78889819D02*
X190540714Y-78889819D01*
X151389819Y-77483094D02*
X150389819Y-77483094D01*
X150389819Y-77483094D02*
X150389819Y-77244999D01*
X150389819Y-77244999D02*
X150437438Y-77102142D01*
X150437438Y-77102142D02*
X150532676Y-77006904D01*
X150532676Y-77006904D02*
X150627914Y-76959285D01*
X150627914Y-76959285D02*
X150818390Y-76911666D01*
X150818390Y-76911666D02*
X150961247Y-76911666D01*
X150961247Y-76911666D02*
X151151723Y-76959285D01*
X151151723Y-76959285D02*
X151246961Y-77006904D01*
X151246961Y-77006904D02*
X151342200Y-77102142D01*
X151342200Y-77102142D02*
X151389819Y-77244999D01*
X151389819Y-77244999D02*
X151389819Y-77483094D01*
X151389819Y-75959285D02*
X151389819Y-76530713D01*
X151389819Y-76244999D02*
X150389819Y-76244999D01*
X150389819Y-76244999D02*
X150532676Y-76340237D01*
X150532676Y-76340237D02*
X150627914Y-76435475D01*
X150627914Y-76435475D02*
X150675533Y-76530713D01*
D11*
%TO.C,D3*%
X216235000Y-94815000D02*
X222395000Y-94815000D01*
X216235000Y-94815000D02*
X216235000Y-89695000D01*
X216105000Y-93525000D02*
X216105000Y-93525000D01*
X216105000Y-93525000D02*
X216235000Y-93525000D01*
X216235000Y-93525000D02*
X216105000Y-93525000D01*
X216235000Y-93525000D02*
X216235000Y-93525000D01*
X216105000Y-90985000D02*
X216105000Y-90985000D01*
X216105000Y-90985000D02*
X216235000Y-90985000D01*
X216235000Y-90985000D02*
X216105000Y-90985000D01*
X216235000Y-90985000D02*
X216235000Y-90985000D01*
X216235000Y-89695000D02*
X222395000Y-89695000D01*
X216235000Y-89695000D02*
X216235000Y-89295000D01*
X217355000Y-89695000D02*
X216235000Y-89695000D01*
X216235000Y-89295000D02*
X217355000Y-89295000D01*
X217355000Y-89295000D02*
X217355000Y-89695000D01*
X222395000Y-89695000D02*
G75*
G02*
X222395000Y-94815000I0J-2560000D01*
G01*
%TO.C,D9*%
X222395000Y-81945000D02*
G75*
G02*
X222395000Y-87065000I0J-2560000D01*
G01*
X217355000Y-81545000D02*
X217355000Y-81945000D01*
X216235000Y-81545000D02*
X217355000Y-81545000D01*
X217355000Y-81945000D02*
X216235000Y-81945000D01*
X216235000Y-81945000D02*
X216235000Y-81545000D01*
X216235000Y-81945000D02*
X222395000Y-81945000D01*
X216235000Y-83235000D02*
X216235000Y-83235000D01*
X216235000Y-83235000D02*
X216105000Y-83235000D01*
X216105000Y-83235000D02*
X216235000Y-83235000D01*
X216105000Y-83235000D02*
X216105000Y-83235000D01*
X216235000Y-85775000D02*
X216235000Y-85775000D01*
X216235000Y-85775000D02*
X216105000Y-85775000D01*
X216105000Y-85775000D02*
X216235000Y-85775000D01*
X216105000Y-85775000D02*
X216105000Y-85775000D01*
X216235000Y-87065000D02*
X216235000Y-81945000D01*
X216235000Y-87065000D02*
X222395000Y-87065000D01*
%TO.C,D8*%
X184565000Y-75265000D02*
X184565000Y-69105000D01*
X184565000Y-75265000D02*
X179445000Y-75265000D01*
X183275000Y-75395000D02*
X183275000Y-75395000D01*
X183275000Y-75395000D02*
X183275000Y-75265000D01*
X183275000Y-75265000D02*
X183275000Y-75395000D01*
X183275000Y-75265000D02*
X183275000Y-75265000D01*
X180735000Y-75395000D02*
X180735000Y-75395000D01*
X180735000Y-75395000D02*
X180735000Y-75265000D01*
X180735000Y-75265000D02*
X180735000Y-75395000D01*
X180735000Y-75265000D02*
X180735000Y-75265000D01*
X179445000Y-75265000D02*
X179445000Y-69105000D01*
X179445000Y-75265000D02*
X179045000Y-75265000D01*
X179445000Y-74145000D02*
X179445000Y-75265000D01*
X179045000Y-75265000D02*
X179045000Y-74145000D01*
X179045000Y-74145000D02*
X179445000Y-74145000D01*
X179445000Y-69105000D02*
G75*
G02*
X184565000Y-69105000I2560000J0D01*
G01*
%TO.C,D7*%
X147765000Y-81935000D02*
X141605000Y-81935000D01*
X147765000Y-81935000D02*
X147765000Y-87055000D01*
X147895000Y-83225000D02*
X147895000Y-83225000D01*
X147895000Y-83225000D02*
X147765000Y-83225000D01*
X147765000Y-83225000D02*
X147895000Y-83225000D01*
X147765000Y-83225000D02*
X147765000Y-83225000D01*
X147895000Y-85765000D02*
X147895000Y-85765000D01*
X147895000Y-85765000D02*
X147765000Y-85765000D01*
X147765000Y-85765000D02*
X147895000Y-85765000D01*
X147765000Y-85765000D02*
X147765000Y-85765000D01*
X147765000Y-87055000D02*
X141605000Y-87055000D01*
X147765000Y-87055000D02*
X147765000Y-87455000D01*
X146645000Y-87055000D02*
X147765000Y-87055000D01*
X147765000Y-87455000D02*
X146645000Y-87455000D01*
X146645000Y-87455000D02*
X146645000Y-87055000D01*
X141605000Y-87055000D02*
G75*
G02*
X141605000Y-81935000I0J2560000D01*
G01*
%TO.C,TP5*%
X201300000Y-84550000D02*
X203700000Y-84550000D01*
X201300000Y-86950000D02*
X201300000Y-84550000D01*
X203700000Y-84550000D02*
X203700000Y-86950000D01*
X203700000Y-86950000D02*
X201300000Y-86950000D01*
%TO.C,TP4*%
X160550000Y-84300000D02*
X162950000Y-84300000D01*
X160550000Y-86700000D02*
X160550000Y-84300000D01*
X162950000Y-84300000D02*
X162950000Y-86700000D01*
X162950000Y-86700000D02*
X160550000Y-86700000D01*
%TO.C,TP3*%
X199550000Y-74300000D02*
X201950000Y-74300000D01*
X199550000Y-76700000D02*
X199550000Y-74300000D01*
X201950000Y-74300000D02*
X201950000Y-76700000D01*
X201950000Y-76700000D02*
X199550000Y-76700000D01*
%TO.C,TP2*%
X195050000Y-74300000D02*
X197450000Y-74300000D01*
X195050000Y-76700000D02*
X195050000Y-74300000D01*
X197450000Y-74300000D02*
X197450000Y-76700000D01*
X197450000Y-76700000D02*
X195050000Y-76700000D01*
%TO.C,TP1*%
X158800000Y-74300000D02*
X161200000Y-74300000D01*
X158800000Y-76700000D02*
X158800000Y-74300000D01*
X161200000Y-74300000D02*
X161200000Y-76700000D01*
X161200000Y-76700000D02*
X158800000Y-76700000D01*
%TO.C,R16*%
X204262742Y-96022500D02*
X204737258Y-96022500D01*
X204262742Y-94977500D02*
X204737258Y-94977500D01*
%TO.C,R15*%
X204262742Y-94272500D02*
X204737258Y-94272500D01*
X204262742Y-93227500D02*
X204737258Y-93227500D01*
%TO.C,R14*%
X159187742Y-94977500D02*
X159662258Y-94977500D01*
X159187742Y-96022500D02*
X159662258Y-96022500D01*
%TO.C,R13*%
X159187742Y-94272500D02*
X159662258Y-94272500D01*
X159187742Y-93227500D02*
X159662258Y-93227500D01*
%TO.C,R12*%
X207227500Y-84562258D02*
X207227500Y-84087742D01*
X208272500Y-84562258D02*
X208272500Y-84087742D01*
%TO.C,R11*%
X182312258Y-83772500D02*
X181837742Y-83772500D01*
X182312258Y-82727500D02*
X181837742Y-82727500D01*
%TO.C,R10*%
X155227500Y-84562258D02*
X155227500Y-84087742D01*
X156272500Y-84562258D02*
X156272500Y-84087742D01*
%TO.C,R9*%
X211522500Y-84562258D02*
X211522500Y-84087742D01*
X210477500Y-84562258D02*
X210477500Y-84087742D01*
%TO.C,R8*%
X182312258Y-80772500D02*
X181837742Y-80772500D01*
X182312258Y-79727500D02*
X181837742Y-79727500D01*
%TO.C,R7*%
X153272500Y-84087742D02*
X153272500Y-84562258D01*
X152227500Y-84087742D02*
X152227500Y-84562258D01*
%TO.C,R6*%
X210477500Y-77062258D02*
X210477500Y-76587742D01*
X211522500Y-77062258D02*
X211522500Y-76587742D01*
%TO.C,R5*%
X174562258Y-80772500D02*
X174087742Y-80772500D01*
X174562258Y-79727500D02*
X174087742Y-79727500D01*
%TO.C,R4*%
X153272500Y-91687742D02*
X153272500Y-92162258D01*
X152227500Y-91687742D02*
X152227500Y-92162258D01*
%TO.C,R3*%
X211522500Y-92562258D02*
X211522500Y-92087742D01*
X210477500Y-92562258D02*
X210477500Y-92087742D01*
%TO.C,R2*%
X190062258Y-80772500D02*
X189587742Y-80772500D01*
X190062258Y-79727500D02*
X189587742Y-79727500D01*
%TO.C,R1*%
X153272500Y-76587742D02*
X153272500Y-77062258D01*
X152227500Y-76587742D02*
X152227500Y-77062258D01*
%TO.C,Q2*%
X203337500Y-88990000D02*
X203097500Y-88660000D01*
X203577500Y-88660000D01*
X203337500Y-88990000D01*
G36*
X203337500Y-88990000D02*
G01*
X203097500Y-88660000D01*
X203577500Y-88660000D01*
X203337500Y-88990000D01*
G37*
X204500000Y-92060000D02*
X205150000Y-92060000D01*
X204500000Y-92060000D02*
X203850000Y-92060000D01*
X204500000Y-88940000D02*
X205150000Y-88940000D01*
X204500000Y-88940000D02*
X203850000Y-88940000D01*
%TO.C,Q1*%
X159312500Y-88940000D02*
X158662500Y-88940000D01*
X159312500Y-88940000D02*
X159962500Y-88940000D01*
X159312500Y-92060000D02*
X158662500Y-92060000D01*
X159312500Y-92060000D02*
X159962500Y-92060000D01*
X158150000Y-88990000D02*
X157910000Y-88660000D01*
X158390000Y-88660000D01*
X158150000Y-88990000D01*
G36*
X158150000Y-88990000D02*
G01*
X157910000Y-88660000D01*
X158390000Y-88660000D01*
X158150000Y-88990000D01*
G37*
%TO.C,JP10*%
X195450000Y-86800000D02*
X195450000Y-86200000D01*
X196150000Y-85500000D02*
X197550000Y-85500000D01*
X197550000Y-87500000D02*
X196150000Y-87500000D01*
X198250000Y-86200000D02*
X198250000Y-86800000D01*
X195450000Y-86200000D02*
G75*
G02*
X196150000Y-85500000I699999J1D01*
G01*
X196150000Y-87500000D02*
G75*
G02*
X195450000Y-86800000I-1J699999D01*
G01*
X197550000Y-85500000D02*
G75*
G02*
X198250000Y-86200000I0J-700000D01*
G01*
X198250000Y-86800000D02*
G75*
G02*
X197550000Y-87500000I-700000J0D01*
G01*
%TO.C,JP9*%
X185700000Y-86800000D02*
X185700000Y-86200000D01*
X186400000Y-85500000D02*
X187800000Y-85500000D01*
X187800000Y-87500000D02*
X186400000Y-87500000D01*
X188500000Y-86200000D02*
X188500000Y-86800000D01*
X185700000Y-86200000D02*
G75*
G02*
X186400000Y-85500000I699999J1D01*
G01*
X186400000Y-87500000D02*
G75*
G02*
X185700000Y-86800000I-1J699999D01*
G01*
X187800000Y-85500000D02*
G75*
G02*
X188500000Y-86200000I0J-700000D01*
G01*
X188500000Y-86800000D02*
G75*
G02*
X187800000Y-87500000I-700000J0D01*
G01*
%TO.C,JP8*%
X173250000Y-86550000D02*
G75*
G02*
X172550000Y-87250000I-700000J0D01*
G01*
X172550000Y-85250000D02*
G75*
G02*
X173250000Y-85950000I0J-700000D01*
G01*
X171150000Y-87250000D02*
G75*
G02*
X170450000Y-86550000I-1J699999D01*
G01*
X170450000Y-85950000D02*
G75*
G02*
X171150000Y-85250000I699999J1D01*
G01*
X173250000Y-85950000D02*
X173250000Y-86550000D01*
X172550000Y-87250000D02*
X171150000Y-87250000D01*
X171150000Y-85250000D02*
X172550000Y-85250000D01*
X170450000Y-86550000D02*
X170450000Y-85950000D01*
%TO.C,JP7*%
X190750000Y-86800000D02*
X190750000Y-86200000D01*
X191450000Y-85500000D02*
X192850000Y-85500000D01*
X192850000Y-87500000D02*
X191450000Y-87500000D01*
X193550000Y-86200000D02*
X193550000Y-86800000D01*
X190750000Y-86200000D02*
G75*
G02*
X191450000Y-85500000I699999J1D01*
G01*
X191450000Y-87500000D02*
G75*
G02*
X190750000Y-86800000I-1J699999D01*
G01*
X192850000Y-85500000D02*
G75*
G02*
X193550000Y-86200000I0J-700000D01*
G01*
X193550000Y-86800000D02*
G75*
G02*
X192850000Y-87500000I-700000J0D01*
G01*
%TO.C,JP6*%
X175500000Y-86550000D02*
X175500000Y-85950000D01*
X176200000Y-85250000D02*
X177600000Y-85250000D01*
X177600000Y-87250000D02*
X176200000Y-87250000D01*
X178300000Y-85950000D02*
X178300000Y-86550000D01*
X175500000Y-85950000D02*
G75*
G02*
X176200000Y-85250000I699999J1D01*
G01*
X176200000Y-87250000D02*
G75*
G02*
X175500000Y-86550000I-1J699999D01*
G01*
X177600000Y-85250000D02*
G75*
G02*
X178300000Y-85950000I0J-700000D01*
G01*
X178300000Y-86550000D02*
G75*
G02*
X177600000Y-87250000I-700000J0D01*
G01*
%TO.C,JP5*%
X165200000Y-86550000D02*
X165200000Y-85950000D01*
X165900000Y-85250000D02*
X167300000Y-85250000D01*
X167300000Y-87250000D02*
X165900000Y-87250000D01*
X168000000Y-85950000D02*
X168000000Y-86550000D01*
X165200000Y-85950000D02*
G75*
G02*
X165900000Y-85250000I699999J1D01*
G01*
X165900000Y-87250000D02*
G75*
G02*
X165200000Y-86550000I-1J699999D01*
G01*
X167300000Y-85250000D02*
G75*
G02*
X168000000Y-85950000I0J-700000D01*
G01*
X168000000Y-86550000D02*
G75*
G02*
X167300000Y-87250000I-700000J0D01*
G01*
%TO.C,JP4*%
X203750000Y-81050000D02*
G75*
G02*
X203050000Y-81750000I-700000J0D01*
G01*
X203050000Y-79750000D02*
G75*
G02*
X203750000Y-80450000I0J-700000D01*
G01*
X201650000Y-81750000D02*
G75*
G02*
X200950000Y-81050000I-1J699999D01*
G01*
X200950000Y-80450000D02*
G75*
G02*
X201650000Y-79750000I699999J1D01*
G01*
X203750000Y-80450000D02*
X203750000Y-81050000D01*
X203050000Y-81750000D02*
X201650000Y-81750000D01*
X201650000Y-79750000D02*
X203050000Y-79750000D01*
X200950000Y-81050000D02*
X200950000Y-80450000D01*
%TO.C,JP3*%
X195950000Y-81050000D02*
X195950000Y-80450000D01*
X196650000Y-79750000D02*
X198050000Y-79750000D01*
X198050000Y-81750000D02*
X196650000Y-81750000D01*
X198750000Y-80450000D02*
X198750000Y-81050000D01*
X195950000Y-80450000D02*
G75*
G02*
X196650000Y-79750000I699999J1D01*
G01*
X196650000Y-81750000D02*
G75*
G02*
X195950000Y-81050000I-1J699999D01*
G01*
X198050000Y-79750000D02*
G75*
G02*
X198750000Y-80450000I0J-700000D01*
G01*
X198750000Y-81050000D02*
G75*
G02*
X198050000Y-81750000I-700000J0D01*
G01*
%TO.C,JP2*%
X165450000Y-81050000D02*
X165450000Y-80450000D01*
X166150000Y-79750000D02*
X167550000Y-79750000D01*
X167550000Y-81750000D02*
X166150000Y-81750000D01*
X168250000Y-80450000D02*
X168250000Y-81050000D01*
X165450000Y-80450000D02*
G75*
G02*
X166150000Y-79750000I699999J1D01*
G01*
X166150000Y-81750000D02*
G75*
G02*
X165450000Y-81050000I-1J699999D01*
G01*
X167550000Y-79750000D02*
G75*
G02*
X168250000Y-80450000I0J-700000D01*
G01*
X168250000Y-81050000D02*
G75*
G02*
X167550000Y-81750000I-700000J0D01*
G01*
%TO.C,JP1*%
X160200000Y-81050000D02*
X160200000Y-80450000D01*
X160900000Y-79750000D02*
X162300000Y-79750000D01*
X162300000Y-81750000D02*
X160900000Y-81750000D01*
X163000000Y-80450000D02*
X163000000Y-81050000D01*
X160200000Y-80450000D02*
G75*
G02*
X160900000Y-79750000I699999J1D01*
G01*
X160900000Y-81750000D02*
G75*
G02*
X160200000Y-81050000I-1J699999D01*
G01*
X162300000Y-79750000D02*
G75*
G02*
X163000000Y-80450000I0J-700000D01*
G01*
X163000000Y-81050000D02*
G75*
G02*
X162300000Y-81750000I-700000J0D01*
G01*
%TO.C,J2*%
X199780000Y-90920000D02*
X164100000Y-90920000D01*
X199780000Y-90920000D02*
X199780000Y-93520000D01*
X164100000Y-90920000D02*
X164100000Y-96120000D01*
X199780000Y-93520000D02*
X197180000Y-93520000D01*
X197180000Y-93520000D02*
X197180000Y-96120000D01*
X199780000Y-94790000D02*
X199780000Y-96120000D01*
X199780000Y-96120000D02*
X198450000Y-96120000D01*
X197180000Y-96120000D02*
X164100000Y-96120000D01*
%TO.C,D6*%
X216235000Y-79315000D02*
X222395000Y-79315000D01*
X216235000Y-79315000D02*
X216235000Y-74195000D01*
X216105000Y-78025000D02*
X216105000Y-78025000D01*
X216105000Y-78025000D02*
X216235000Y-78025000D01*
X216235000Y-78025000D02*
X216105000Y-78025000D01*
X216235000Y-78025000D02*
X216235000Y-78025000D01*
X216105000Y-75485000D02*
X216105000Y-75485000D01*
X216105000Y-75485000D02*
X216235000Y-75485000D01*
X216235000Y-75485000D02*
X216105000Y-75485000D01*
X216235000Y-75485000D02*
X216235000Y-75485000D01*
X216235000Y-74195000D02*
X222395000Y-74195000D01*
X216235000Y-74195000D02*
X216235000Y-73795000D01*
X217355000Y-74195000D02*
X216235000Y-74195000D01*
X216235000Y-73795000D02*
X217355000Y-73795000D01*
X217355000Y-73795000D02*
X217355000Y-74195000D01*
X222395000Y-74195000D02*
G75*
G02*
X222395000Y-79315000I0J-2560000D01*
G01*
%TO.C,D5*%
X176815000Y-75265000D02*
X176815000Y-69105000D01*
X176815000Y-75265000D02*
X171695000Y-75265000D01*
X175525000Y-75395000D02*
X175525000Y-75395000D01*
X175525000Y-75395000D02*
X175525000Y-75265000D01*
X175525000Y-75265000D02*
X175525000Y-75395000D01*
X175525000Y-75265000D02*
X175525000Y-75265000D01*
X172985000Y-75395000D02*
X172985000Y-75395000D01*
X172985000Y-75395000D02*
X172985000Y-75265000D01*
X172985000Y-75265000D02*
X172985000Y-75395000D01*
X172985000Y-75265000D02*
X172985000Y-75265000D01*
X171695000Y-75265000D02*
X171695000Y-69105000D01*
X171695000Y-75265000D02*
X171295000Y-75265000D01*
X171695000Y-74145000D02*
X171695000Y-75265000D01*
X171295000Y-75265000D02*
X171295000Y-74145000D01*
X171295000Y-74145000D02*
X171695000Y-74145000D01*
X171695000Y-69105000D02*
G75*
G02*
X176815000Y-69105000I2560000J0D01*
G01*
%TO.C,D4*%
X147765000Y-89685000D02*
X141605000Y-89685000D01*
X147765000Y-89685000D02*
X147765000Y-94805000D01*
X147895000Y-90975000D02*
X147895000Y-90975000D01*
X147895000Y-90975000D02*
X147765000Y-90975000D01*
X147765000Y-90975000D02*
X147895000Y-90975000D01*
X147765000Y-90975000D02*
X147765000Y-90975000D01*
X147895000Y-93515000D02*
X147895000Y-93515000D01*
X147895000Y-93515000D02*
X147765000Y-93515000D01*
X147765000Y-93515000D02*
X147895000Y-93515000D01*
X147765000Y-93515000D02*
X147765000Y-93515000D01*
X147765000Y-94805000D02*
X141605000Y-94805000D01*
X147765000Y-94805000D02*
X147765000Y-95205000D01*
X146645000Y-94805000D02*
X147765000Y-94805000D01*
X147765000Y-95205000D02*
X146645000Y-95205000D01*
X146645000Y-95205000D02*
X146645000Y-94805000D01*
X141605000Y-94805000D02*
G75*
G02*
X141605000Y-89685000I0J2560000D01*
G01*
%TO.C,D2*%
X192315000Y-75265000D02*
X192315000Y-69105000D01*
X192315000Y-75265000D02*
X187195000Y-75265000D01*
X191025000Y-75395000D02*
X191025000Y-75395000D01*
X191025000Y-75395000D02*
X191025000Y-75265000D01*
X191025000Y-75265000D02*
X191025000Y-75395000D01*
X191025000Y-75265000D02*
X191025000Y-75265000D01*
X188485000Y-75395000D02*
X188485000Y-75395000D01*
X188485000Y-75395000D02*
X188485000Y-75265000D01*
X188485000Y-75265000D02*
X188485000Y-75395000D01*
X188485000Y-75265000D02*
X188485000Y-75265000D01*
X187195000Y-75265000D02*
X187195000Y-69105000D01*
X187195000Y-75265000D02*
X186795000Y-75265000D01*
X187195000Y-74145000D02*
X187195000Y-75265000D01*
X186795000Y-75265000D02*
X186795000Y-74145000D01*
X186795000Y-74145000D02*
X187195000Y-74145000D01*
X187195000Y-69105000D02*
G75*
G02*
X192315000Y-69105000I2560000J0D01*
G01*
%TO.C,D1*%
X147765000Y-74185000D02*
X141605000Y-74185000D01*
X147765000Y-74185000D02*
X147765000Y-79305000D01*
X147895000Y-75475000D02*
X147895000Y-75475000D01*
X147895000Y-75475000D02*
X147765000Y-75475000D01*
X147765000Y-75475000D02*
X147895000Y-75475000D01*
X147765000Y-75475000D02*
X147765000Y-75475000D01*
X147895000Y-78015000D02*
X147895000Y-78015000D01*
X147895000Y-78015000D02*
X147765000Y-78015000D01*
X147765000Y-78015000D02*
X147895000Y-78015000D01*
X147765000Y-78015000D02*
X147765000Y-78015000D01*
X147765000Y-79305000D02*
X141605000Y-79305000D01*
X147765000Y-79305000D02*
X147765000Y-79705000D01*
X146645000Y-79305000D02*
X147765000Y-79305000D01*
X147765000Y-79705000D02*
X146645000Y-79705000D01*
X146645000Y-79705000D02*
X146645000Y-79305000D01*
X141605000Y-79305000D02*
G75*
G02*
X141605000Y-74185000I0J2560000D01*
G01*
%TD*%
M02*
