M48
; DRILL file {KiCad 8.0.1} date 2024-03-24T20:28:12+0200
; FORMAT={-:-/ absolute / inch / decimal}
; #@! TF.CreationDate,2024-03-24T20:28:12+02:00
; #@! TF.GenerationSoftware,Kicad,Pcbnew,8.0.1
; #@! TF.FileFunction,Plated,1,2,PTH
FMAT,2
INCH
; #@! TA.AperFunction,Plated,PTH,ViaDrill
T1C0.0157
; #@! TA.AperFunction,Plated,PTH,ComponentDrill
T2C0.0354
; #@! TA.AperFunction,Plated,PTH,ComponentDrill
T3C0.0394
%
G90
G05
T1
X5.9941Y-3.75
X6.0925Y-3.1299
X6.1319Y-2.9528
X6.1417Y-3.5925
X6.2352Y-3.6004
X6.2421Y-3.2874
X6.2815Y-3.7283
X6.3146Y-3.5646
X6.3366Y-3.1791
X6.4173Y-3.563
X6.4567Y-3.1791
X6.4567Y-3.4449
X6.5157Y-3.3189
X6.5354Y-3.4941
X6.5433Y-3.1791
X6.624Y-3.3268
X6.7421Y-3.1988
X6.7913Y-3.3957
X6.8307Y-3.1594
X7.0374Y-3.1299
X7.1358Y-3.1594
X7.2736Y-3.2185
X7.2933Y-3.0807
X7.3031Y-3.1496
X7.4409Y-3.1594
X7.5197Y-3.5236
X7.5906Y-3.4055
X7.6378Y-3.4843
X7.6673Y-3.0709
X7.7264Y-2.9724
X7.8346Y-3.2579
X7.8839Y-3.4744
X7.9035Y-3.6909
X7.9724Y-3.376
X7.9744Y-3.6614
X8.0187Y-3.7598
X8.0512Y-3.189
X8.1693Y-3.6417
X8.248Y-3.4055
X8.3071Y-2.9921
X8.3858Y-3.5433
T2
X5.8652Y-2.9715
X5.8652Y-3.0715
X5.8652Y-3.2766
X5.8652Y-3.3766
X5.8652Y-3.5817
X5.8652Y-3.6817
X6.8104Y-3.0108
X6.9104Y-3.0108
X7.1156Y-3.0108
X7.2156Y-3.0108
X7.4207Y-3.0108
X7.5207Y-3.0108
X8.4656Y-2.9719
X8.4656Y-3.0719
X8.4656Y-3.277
X8.4656Y-3.377
X8.4656Y-3.5821
X8.4656Y-3.6821
T3
X6.513Y-3.6319
X6.513Y-3.7319
X6.613Y-3.6319
X6.613Y-3.7319
X6.713Y-3.6319
X6.713Y-3.7319
X6.813Y-3.6319
X6.813Y-3.7319
X6.913Y-3.6319
X6.913Y-3.7319
X7.013Y-3.6319
X7.013Y-3.7319
X7.113Y-3.6319
X7.113Y-3.7319
X7.213Y-3.6319
X7.213Y-3.7319
X7.313Y-3.6319
X7.313Y-3.7319
X7.413Y-3.6319
X7.413Y-3.7319
X7.513Y-3.6319
X7.513Y-3.7319
X7.613Y-3.6319
X7.613Y-3.7319
X7.713Y-3.6319
X7.713Y-3.7319
X7.813Y-3.6319
X7.813Y-3.7319
M30
