%TF.GenerationSoftware,KiCad,Pcbnew,8.0.1*%
%TF.CreationDate,2024-03-24T20:28:12+02:00*%
%TF.ProjectId,EEE3088_HLDZUH001_Sensing,45454533-3038-4385-9f48-4c445a554830,rev?*%
%TF.SameCoordinates,Original*%
%TF.FileFunction,Copper,L2,Bot*%
%TF.FilePolarity,Positive*%
%FSLAX46Y46*%
G04 Gerber Fmt 4.6, Leading zero omitted, Abs format (unit mm)*
G04 Created by KiCad (PCBNEW 8.0.1) date 2024-03-24 20:28:12*
%MOMM*%
%LPD*%
G01*
G04 APERTURE LIST*
%TA.AperFunction,ComponentPad*%
%ADD10R,1.800000X1.800000*%
%TD*%
%TA.AperFunction,ComponentPad*%
%ADD11C,1.800000*%
%TD*%
%TA.AperFunction,ComponentPad*%
%ADD12R,1.700000X1.700000*%
%TD*%
%TA.AperFunction,ComponentPad*%
%ADD13O,1.700000X1.700000*%
%TD*%
%TA.AperFunction,ViaPad*%
%ADD14C,0.800000*%
%TD*%
%TA.AperFunction,Conductor*%
%ADD15C,0.400000*%
%TD*%
%TA.AperFunction,Conductor*%
%ADD16C,0.600000*%
%TD*%
%TA.AperFunction,Conductor*%
%ADD17C,0.250000*%
%TD*%
G04 APERTURE END LIST*
D10*
%TO.P,D9,1,K*%
%TO.N,+BATT*%
X215025000Y-85775000D03*
D11*
%TO.P,D9,2,A*%
%TO.N,/PA3*%
X215025000Y-83235000D03*
%TD*%
D10*
%TO.P,D8,1,K*%
%TO.N,+BATT*%
X183275000Y-76475000D03*
D11*
%TO.P,D8,2,A*%
%TO.N,/PA6*%
X180735000Y-76475000D03*
%TD*%
D10*
%TO.P,D7,1,K*%
%TO.N,+BATT*%
X148975000Y-83225000D03*
D11*
%TO.P,D7,2,A*%
%TO.N,/AB0*%
X148975000Y-85765000D03*
%TD*%
D10*
%TO.P,D6,1,K*%
%TO.N,Net-(D6-K)*%
X215025000Y-78025000D03*
D11*
%TO.P,D6,2,A*%
%TO.N,+BATT*%
X215025000Y-75485000D03*
%TD*%
D10*
%TO.P,D5,1,K*%
%TO.N,Net-(D5-K)*%
X175525000Y-76475000D03*
D11*
%TO.P,D5,2,A*%
%TO.N,+BATT*%
X172985000Y-76475000D03*
%TD*%
D10*
%TO.P,D4,1,K*%
%TO.N,Net-(D4-K)*%
X148975000Y-90975000D03*
D11*
%TO.P,D4,2,A*%
%TO.N,+BATT*%
X148975000Y-93515000D03*
%TD*%
D10*
%TO.P,D3,1,K*%
%TO.N,Net-(D3-K)*%
X215025000Y-93525000D03*
D11*
%TO.P,D3,2,A*%
%TO.N,+BATT*%
X215025000Y-90985000D03*
%TD*%
D10*
%TO.P,D2,1,K*%
%TO.N,Net-(D2-K)*%
X191025000Y-76475000D03*
D11*
%TO.P,D2,2,A*%
%TO.N,+BATT*%
X188485000Y-76475000D03*
%TD*%
D10*
%TO.P,D1,1,K*%
%TO.N,Net-(D1-K)*%
X148975000Y-75475000D03*
D11*
%TO.P,D1,2,A*%
%TO.N,+BATT*%
X148975000Y-78015000D03*
%TD*%
D12*
%TO.P,J2,1,Pin_1*%
%TO.N,unconnected-(J2-Pin_1-Pad1)*%
X198450000Y-94790000D03*
D13*
%TO.P,J2,2,Pin_2*%
%TO.N,unconnected-(J2-Pin_2-Pad2)*%
X198450000Y-92250000D03*
%TO.P,J2,3,Pin_3*%
%TO.N,GND*%
X195910000Y-94790000D03*
%TO.P,J2,4,Pin_4*%
%TO.N,+BATT*%
X195910000Y-92250000D03*
%TO.P,J2,5,Pin_5*%
%TO.N,/PA3*%
X193370000Y-94790000D03*
%TO.P,J2,6,Pin_6*%
%TO.N,unconnected-(J2-Pin_6-Pad6)*%
X193370000Y-92250000D03*
%TO.P,J2,7,Pin_7*%
%TO.N,unconnected-(J2-Pin_7-Pad7)*%
X190830000Y-94790000D03*
%TO.P,J2,8,Pin_8*%
%TO.N,/PE15*%
X190830000Y-92250000D03*
%TO.P,J2,9,Pin_9*%
%TO.N,GND*%
X188290000Y-94790000D03*
%TO.P,J2,10,Pin_10*%
%TO.N,unconnected-(J2-Pin_10-Pad10)*%
X188290000Y-92250000D03*
%TO.P,J2,11,Pin_11*%
%TO.N,unconnected-(J2-Pin_11-Pad11)*%
X185750000Y-94790000D03*
%TO.P,J2,12,Pin_12*%
%TO.N,unconnected-(J2-Pin_12-Pad12)*%
X185750000Y-92250000D03*
%TO.P,J2,13,Pin_13*%
%TO.N,/PA6*%
X183210000Y-94790000D03*
%TO.P,J2,14,Pin_14*%
%TO.N,unconnected-(J2-Pin_14-Pad14)*%
X183210000Y-92250000D03*
%TO.P,J2,15,Pin_15*%
%TO.N,GND*%
X180670000Y-94790000D03*
%TO.P,J2,16,Pin_16*%
%TO.N,unconnected-(J2-Pin_16-Pad16)*%
X180670000Y-92250000D03*
%TO.P,J2,17,Pin_17*%
%TO.N,unconnected-(J2-Pin_17-Pad17)*%
X178130000Y-94790000D03*
%TO.P,J2,18,Pin_18*%
%TO.N,unconnected-(J2-Pin_18-Pad18)*%
X178130000Y-92250000D03*
%TO.P,J2,19,Pin_19*%
%TO.N,unconnected-(J2-Pin_19-Pad19)*%
X175590000Y-94790000D03*
%TO.P,J2,20,Pin_20*%
%TO.N,unconnected-(J2-Pin_20-Pad20)*%
X175590000Y-92250000D03*
%TO.P,J2,21,Pin_21*%
%TO.N,GND*%
X173050000Y-94790000D03*
%TO.P,J2,22,Pin_22*%
%TO.N,/PE8*%
X173050000Y-92250000D03*
%TO.P,J2,23,Pin_23*%
%TO.N,unconnected-(J2-Pin_23-Pad23)*%
X170510000Y-94790000D03*
%TO.P,J2,24,Pin_24*%
%TO.N,unconnected-(J2-Pin_24-Pad24)*%
X170510000Y-92250000D03*
%TO.P,J2,25,Pin_25*%
%TO.N,/AB0*%
X167970000Y-94790000D03*
%TO.P,J2,26,Pin_26*%
%TO.N,+BATT*%
X167970000Y-92250000D03*
%TO.P,J2,27,Pin_27*%
%TO.N,GND*%
X165430000Y-94790000D03*
%TO.P,J2,28,Pin_28*%
%TO.N,unconnected-(J2-Pin_28-Pad28)*%
X165430000Y-92250000D03*
%TD*%
D14*
%TO.N,GND*%
X160390686Y-90540686D03*
X163000000Y-90500000D03*
%TO.N,/PE8*%
X160950000Y-80750000D03*
X171250000Y-81250000D03*
%TO.N,Net-(Q2-C)*%
X194000000Y-88500000D03*
X191000000Y-89500000D03*
X178750000Y-79500000D03*
%TO.N,Net-(JP1-B)*%
X159550000Y-94700000D03*
X165500000Y-84300000D03*
%TO.N,/PE8*%
X154750000Y-79500000D03*
X156000000Y-91250000D03*
%TO.N,Net-(Q2-C)*%
X211000000Y-76000000D03*
X207500000Y-92500000D03*
%TO.N,Net-(Q1-C)*%
X189000000Y-80250000D03*
X209500000Y-86500000D03*
%TO.N,Net-(JP2-B)*%
X168250000Y-84500000D03*
X164000000Y-87500000D03*
%TO.N,Net-(Q1-C)*%
X185500000Y-80000000D03*
%TO.N,Net-(JP1-B)*%
X166200000Y-80750000D03*
X164000000Y-80750000D03*
%TO.N,/PE15*%
X202550000Y-93000000D03*
%TO.N,Net-(JP3-B)*%
X203675000Y-95500000D03*
X200750000Y-93750000D03*
X200250000Y-88250000D03*
X199000000Y-82750000D03*
%TO.N,Net-(JP4-B)*%
X202500000Y-85750000D03*
X204500000Y-81000000D03*
%TO.N,/PA3*%
X192800000Y-86500000D03*
X194750000Y-78000000D03*
%TO.N,Net-(JP6-A)*%
X184750000Y-81750000D03*
X181250000Y-80250000D03*
%TO.N,/PA6*%
X196250000Y-75500000D03*
X185250000Y-78250000D03*
%TO.N,Net-(JP5-A)*%
X172500000Y-86250000D03*
X166000000Y-88750000D03*
%TO.N,Net-(Q2-C)*%
X173500000Y-80250000D03*
X158550000Y-83500000D03*
%TO.N,Net-(Q1-C)*%
X155750000Y-75000000D03*
X158375000Y-91450000D03*
%TO.N,+BATT*%
X213000000Y-90000000D03*
X152250000Y-95250000D03*
%TD*%
D15*
%TO.N,GND*%
X181960000Y-93500000D02*
X180670000Y-94790000D01*
X187000000Y-93500000D02*
X181960000Y-93500000D01*
X188290000Y-94790000D02*
X187000000Y-93500000D01*
X171760000Y-93500000D02*
X166720000Y-93500000D01*
X173050000Y-94790000D02*
X171760000Y-93500000D01*
X166720000Y-93500000D02*
X165430000Y-94790000D01*
X189540000Y-96040000D02*
X188290000Y-94790000D01*
X194660000Y-96040000D02*
X189540000Y-96040000D01*
X195910000Y-94790000D02*
X194660000Y-96040000D01*
%TO.N,Net-(Q2-C)*%
X170250000Y-83500000D02*
X173500000Y-80250000D01*
X158550000Y-83500000D02*
X170250000Y-83500000D01*
%TO.N,Net-(Q1-C)*%
X157750000Y-90825000D02*
X158375000Y-91450000D01*
X157500000Y-79250000D02*
X157750000Y-79500000D01*
X157500000Y-78000000D02*
X157500000Y-79250000D01*
X157750000Y-79500000D02*
X157750000Y-90825000D01*
%TO.N,Net-(JP1-B)*%
X159250000Y-90000000D02*
X159250000Y-94400000D01*
X159250000Y-94400000D02*
X159550000Y-94700000D01*
X164950000Y-84300000D02*
X159250000Y-90000000D01*
X165500000Y-84300000D02*
X164950000Y-84300000D01*
%TO.N,GND*%
X160431372Y-90500000D02*
X160390686Y-90540686D01*
X163000000Y-90500000D02*
X160431372Y-90500000D01*
%TO.N,Net-(Q1-C)*%
X192900000Y-77200000D02*
X189850000Y-80250000D01*
X189850000Y-80250000D02*
X189000000Y-80250000D01*
X205200000Y-77200000D02*
X192900000Y-77200000D01*
X209500000Y-81500000D02*
X205200000Y-77200000D01*
X209500000Y-86500000D02*
X209500000Y-81500000D01*
%TO.N,Net-(Q2-C)*%
X184750000Y-89500000D02*
X191000000Y-89500000D01*
X177750000Y-82500000D02*
X184750000Y-89500000D01*
X177750000Y-80500000D02*
X177750000Y-82500000D01*
X178750000Y-79500000D02*
X177750000Y-80500000D01*
%TO.N,/PE8*%
X156000000Y-90750000D02*
X156000000Y-91250000D01*
X154000000Y-88750000D02*
X156000000Y-90750000D01*
X154750000Y-79500000D02*
X154000000Y-80250000D01*
X154000000Y-80250000D02*
X154000000Y-88750000D01*
%TO.N,Net-(Q1-C)*%
X157500000Y-76750000D02*
X157500000Y-78000000D01*
X155750000Y-75000000D02*
X157500000Y-76750000D01*
X160475000Y-77775000D02*
X160250000Y-78000000D01*
X160250000Y-78000000D02*
X157500000Y-78000000D01*
X183275000Y-77775000D02*
X160475000Y-77775000D01*
X185500000Y-80000000D02*
X183275000Y-77775000D01*
D16*
%TO.N,+BATT*%
X166620000Y-90900000D02*
X167970000Y-92250000D01*
X164870811Y-90900000D02*
X166620000Y-90900000D01*
X160170811Y-95600000D02*
X164870811Y-90900000D01*
X152250000Y-95250000D02*
X158827207Y-95250000D01*
X159177207Y-95600000D02*
X160170811Y-95600000D01*
X158827207Y-95250000D02*
X159177207Y-95600000D01*
D15*
%TO.N,/PE8*%
X162700000Y-79000000D02*
X160950000Y-80750000D01*
X169500000Y-79000000D02*
X162700000Y-79000000D01*
X171250000Y-80750000D02*
X169500000Y-79000000D01*
X171250000Y-81250000D02*
X171250000Y-80750000D01*
%TO.N,Net-(Q2-C)*%
X216950000Y-89050000D02*
X217250000Y-88750000D01*
X194550000Y-89050000D02*
X216950000Y-89050000D01*
X194000000Y-88500000D02*
X194550000Y-89050000D01*
X217250000Y-88750000D02*
X217250000Y-82850000D01*
X217250000Y-94250000D02*
X217250000Y-88750000D01*
X211000000Y-76600000D02*
X211000000Y-76000000D01*
X215750000Y-95750000D02*
X217250000Y-94250000D01*
X217250000Y-82850000D02*
X211000000Y-76600000D01*
X210750000Y-95750000D02*
X215750000Y-95750000D01*
X207500000Y-92500000D02*
X210750000Y-95750000D01*
D16*
%TO.N,+BATT*%
X187585000Y-83925000D02*
X195910000Y-92250000D01*
X187585000Y-77375000D02*
X187585000Y-83925000D01*
X188485000Y-76475000D02*
X187585000Y-77375000D01*
D15*
%TO.N,Net-(JP2-B)*%
X164000000Y-87500000D02*
X165250000Y-87500000D01*
X165250000Y-87500000D02*
X168250000Y-84500000D01*
%TO.N,Net-(JP1-B)*%
X164000000Y-80750000D02*
X166200000Y-80750000D01*
%TO.N,/PE15*%
X199740000Y-93500000D02*
X192080000Y-93500000D01*
X200490000Y-92750000D02*
X199740000Y-93500000D01*
X202300000Y-92750000D02*
X200490000Y-92750000D01*
X202550000Y-93000000D02*
X202300000Y-92750000D01*
X192080000Y-93500000D02*
X190830000Y-92250000D01*
%TO.N,Net-(JP3-B)*%
X200750000Y-93750000D02*
X201925000Y-93750000D01*
X199000000Y-83500000D02*
X200250000Y-84750000D01*
X201925000Y-93750000D02*
X203675000Y-95500000D01*
X200250000Y-84750000D02*
X200250000Y-88250000D01*
X199000000Y-82750000D02*
X199000000Y-83500000D01*
%TO.N,Net-(JP4-B)*%
X204500000Y-81000000D02*
X204500000Y-83750000D01*
X204500000Y-83750000D02*
X202500000Y-85750000D01*
D17*
%TO.N,/PA3*%
X192800000Y-79950000D02*
X192800000Y-86500000D01*
X194750000Y-78000000D02*
X192800000Y-79950000D01*
%TO.N,Net-(JP6-A)*%
X184750000Y-81750000D02*
X182750000Y-81750000D01*
X182750000Y-81750000D02*
X181250000Y-80250000D01*
%TO.N,/PA6*%
X195250000Y-74500000D02*
X196250000Y-75500000D01*
X186750000Y-74500000D02*
X195250000Y-74500000D01*
X185250000Y-76000000D02*
X186750000Y-74500000D01*
X185250000Y-78250000D02*
X185250000Y-76000000D01*
%TO.N,Net-(JP5-A)*%
X166000000Y-88750000D02*
X170000000Y-88750000D01*
X170000000Y-88750000D02*
X172500000Y-86250000D01*
D16*
%TO.N,+BATT*%
X213000000Y-90000000D02*
X198160000Y-90000000D01*
X198160000Y-90000000D02*
X195910000Y-92250000D01*
%TD*%
%TA.AperFunction,Conductor*%
%TO.N,GND*%
G36*
X178320768Y-78495185D02*
G01*
X178366523Y-78547989D01*
X178376467Y-78617147D01*
X178347442Y-78680703D01*
X178304167Y-78712778D01*
X178300722Y-78714311D01*
X178297267Y-78715850D01*
X178297265Y-78715851D01*
X178144129Y-78827111D01*
X178017466Y-78967785D01*
X177922821Y-79131715D01*
X177922818Y-79131722D01*
X177864327Y-79311739D01*
X177864325Y-79311750D01*
X177859134Y-79361129D01*
X177832549Y-79425743D01*
X177823495Y-79435846D01*
X177205887Y-80053454D01*
X177129224Y-80168191D01*
X177076421Y-80295667D01*
X177076418Y-80295679D01*
X177052050Y-80418186D01*
X177052049Y-80418191D01*
X177049500Y-80431002D01*
X177049500Y-80431007D01*
X177049500Y-82431006D01*
X177049500Y-82568994D01*
X177049500Y-82568996D01*
X177049499Y-82568996D01*
X177076418Y-82704322D01*
X177076421Y-82704331D01*
X177129222Y-82831807D01*
X177205887Y-82946545D01*
X184303454Y-90044112D01*
X184418192Y-90120777D01*
X184523678Y-90164470D01*
X184545672Y-90173580D01*
X184545676Y-90173580D01*
X184545677Y-90173581D01*
X184681003Y-90200500D01*
X184681006Y-90200500D01*
X184681007Y-90200500D01*
X190391844Y-90200500D01*
X190458883Y-90220185D01*
X190464729Y-90224182D01*
X190547265Y-90284148D01*
X190547270Y-90284151D01*
X190720192Y-90361142D01*
X190720197Y-90361144D01*
X190905354Y-90400500D01*
X190905355Y-90400500D01*
X191094644Y-90400500D01*
X191094646Y-90400500D01*
X191279803Y-90361144D01*
X191452730Y-90284151D01*
X191605871Y-90172888D01*
X191732533Y-90032216D01*
X191827179Y-89868284D01*
X191885674Y-89688256D01*
X191889933Y-89647729D01*
X191916516Y-89583118D01*
X191973813Y-89543133D01*
X192043632Y-89540472D01*
X192100934Y-89573012D01*
X193230026Y-90702104D01*
X193263511Y-90763427D01*
X193258527Y-90833119D01*
X193216655Y-90889052D01*
X193153154Y-90913313D01*
X193134596Y-90914936D01*
X193134586Y-90914938D01*
X192906344Y-90976094D01*
X192906335Y-90976098D01*
X192692171Y-91075964D01*
X192692169Y-91075965D01*
X192498597Y-91211505D01*
X192331505Y-91378597D01*
X192201575Y-91564158D01*
X192146998Y-91607783D01*
X192077500Y-91614977D01*
X192015145Y-91583454D01*
X191998425Y-91564158D01*
X191868494Y-91378597D01*
X191701402Y-91211506D01*
X191701395Y-91211501D01*
X191507834Y-91075967D01*
X191507830Y-91075965D01*
X191424016Y-91036882D01*
X191293663Y-90976097D01*
X191293659Y-90976096D01*
X191293655Y-90976094D01*
X191065413Y-90914938D01*
X191065403Y-90914936D01*
X190830001Y-90894341D01*
X190829999Y-90894341D01*
X190594596Y-90914936D01*
X190594586Y-90914938D01*
X190366344Y-90976094D01*
X190366335Y-90976098D01*
X190152171Y-91075964D01*
X190152169Y-91075965D01*
X189958597Y-91211505D01*
X189791505Y-91378597D01*
X189661575Y-91564158D01*
X189606998Y-91607783D01*
X189537500Y-91614977D01*
X189475145Y-91583454D01*
X189458425Y-91564158D01*
X189328494Y-91378597D01*
X189161402Y-91211506D01*
X189161395Y-91211501D01*
X188967834Y-91075967D01*
X188967830Y-91075965D01*
X188884016Y-91036882D01*
X188753663Y-90976097D01*
X188753659Y-90976096D01*
X188753655Y-90976094D01*
X188525413Y-90914938D01*
X188525403Y-90914936D01*
X188290001Y-90894341D01*
X188289999Y-90894341D01*
X188054596Y-90914936D01*
X188054586Y-90914938D01*
X187826344Y-90976094D01*
X187826335Y-90976098D01*
X187612171Y-91075964D01*
X187612169Y-91075965D01*
X187418597Y-91211505D01*
X187251505Y-91378597D01*
X187121575Y-91564158D01*
X187066998Y-91607783D01*
X186997500Y-91614977D01*
X186935145Y-91583454D01*
X186918425Y-91564158D01*
X186788494Y-91378597D01*
X186621402Y-91211506D01*
X186621395Y-91211501D01*
X186427834Y-91075967D01*
X186427830Y-91075965D01*
X186344016Y-91036882D01*
X186213663Y-90976097D01*
X186213659Y-90976096D01*
X186213655Y-90976094D01*
X185985413Y-90914938D01*
X185985403Y-90914936D01*
X185750001Y-90894341D01*
X185749999Y-90894341D01*
X185514596Y-90914936D01*
X185514586Y-90914938D01*
X185286344Y-90976094D01*
X185286335Y-90976098D01*
X185072171Y-91075964D01*
X185072169Y-91075965D01*
X184878597Y-91211505D01*
X184711505Y-91378597D01*
X184581575Y-91564158D01*
X184526998Y-91607783D01*
X184457500Y-91614977D01*
X184395145Y-91583454D01*
X184378425Y-91564158D01*
X184248494Y-91378597D01*
X184081402Y-91211506D01*
X184081395Y-91211501D01*
X183887834Y-91075967D01*
X183887830Y-91075965D01*
X183804016Y-91036882D01*
X183673663Y-90976097D01*
X183673659Y-90976096D01*
X183673655Y-90976094D01*
X183445413Y-90914938D01*
X183445403Y-90914936D01*
X183210001Y-90894341D01*
X183209999Y-90894341D01*
X182974596Y-90914936D01*
X182974586Y-90914938D01*
X182746344Y-90976094D01*
X182746335Y-90976098D01*
X182532171Y-91075964D01*
X182532169Y-91075965D01*
X182338597Y-91211505D01*
X182171505Y-91378597D01*
X182041575Y-91564158D01*
X181986998Y-91607783D01*
X181917500Y-91614977D01*
X181855145Y-91583454D01*
X181838425Y-91564158D01*
X181708494Y-91378597D01*
X181541402Y-91211506D01*
X181541395Y-91211501D01*
X181347834Y-91075967D01*
X181347830Y-91075965D01*
X181264016Y-91036882D01*
X181133663Y-90976097D01*
X181133659Y-90976096D01*
X181133655Y-90976094D01*
X180905413Y-90914938D01*
X180905403Y-90914936D01*
X180670001Y-90894341D01*
X180669999Y-90894341D01*
X180434596Y-90914936D01*
X180434586Y-90914938D01*
X180206344Y-90976094D01*
X180206335Y-90976098D01*
X179992171Y-91075964D01*
X179992169Y-91075965D01*
X179798597Y-91211505D01*
X179631505Y-91378597D01*
X179501575Y-91564158D01*
X179446998Y-91607783D01*
X179377500Y-91614977D01*
X179315145Y-91583454D01*
X179298425Y-91564158D01*
X179168494Y-91378597D01*
X179001402Y-91211506D01*
X179001395Y-91211501D01*
X178807834Y-91075967D01*
X178807830Y-91075965D01*
X178724016Y-91036882D01*
X178593663Y-90976097D01*
X178593659Y-90976096D01*
X178593655Y-90976094D01*
X178365413Y-90914938D01*
X178365403Y-90914936D01*
X178130001Y-90894341D01*
X178129999Y-90894341D01*
X177894596Y-90914936D01*
X177894586Y-90914938D01*
X177666344Y-90976094D01*
X177666335Y-90976098D01*
X177452171Y-91075964D01*
X177452169Y-91075965D01*
X177258597Y-91211505D01*
X177091505Y-91378597D01*
X176961575Y-91564158D01*
X176906998Y-91607783D01*
X176837500Y-91614977D01*
X176775145Y-91583454D01*
X176758425Y-91564158D01*
X176628494Y-91378597D01*
X176461402Y-91211506D01*
X176461395Y-91211501D01*
X176267834Y-91075967D01*
X176267830Y-91075965D01*
X176184016Y-91036882D01*
X176053663Y-90976097D01*
X176053659Y-90976096D01*
X176053655Y-90976094D01*
X175825413Y-90914938D01*
X175825403Y-90914936D01*
X175590001Y-90894341D01*
X175589999Y-90894341D01*
X175354596Y-90914936D01*
X175354586Y-90914938D01*
X175126344Y-90976094D01*
X175126335Y-90976098D01*
X174912171Y-91075964D01*
X174912169Y-91075965D01*
X174718597Y-91211505D01*
X174551505Y-91378597D01*
X174421575Y-91564158D01*
X174366998Y-91607783D01*
X174297500Y-91614977D01*
X174235145Y-91583454D01*
X174218425Y-91564158D01*
X174088494Y-91378597D01*
X173921402Y-91211506D01*
X173921395Y-91211501D01*
X173727834Y-91075967D01*
X173727830Y-91075965D01*
X173644016Y-91036882D01*
X173513663Y-90976097D01*
X173513659Y-90976096D01*
X173513655Y-90976094D01*
X173285413Y-90914938D01*
X173285403Y-90914936D01*
X173050001Y-90894341D01*
X173049999Y-90894341D01*
X172814596Y-90914936D01*
X172814586Y-90914938D01*
X172586344Y-90976094D01*
X172586335Y-90976098D01*
X172372171Y-91075964D01*
X172372169Y-91075965D01*
X172178597Y-91211505D01*
X172011505Y-91378597D01*
X171881575Y-91564158D01*
X171826998Y-91607783D01*
X171757500Y-91614977D01*
X171695145Y-91583454D01*
X171678425Y-91564158D01*
X171548494Y-91378597D01*
X171381402Y-91211506D01*
X171381395Y-91211501D01*
X171187834Y-91075967D01*
X171187830Y-91075965D01*
X171104016Y-91036882D01*
X170973663Y-90976097D01*
X170973659Y-90976096D01*
X170973655Y-90976094D01*
X170745413Y-90914938D01*
X170745403Y-90914936D01*
X170510001Y-90894341D01*
X170509999Y-90894341D01*
X170274596Y-90914936D01*
X170274586Y-90914938D01*
X170046344Y-90976094D01*
X170046335Y-90976098D01*
X169832171Y-91075964D01*
X169832169Y-91075965D01*
X169638597Y-91211505D01*
X169471505Y-91378597D01*
X169341575Y-91564158D01*
X169286998Y-91607783D01*
X169217500Y-91614977D01*
X169155145Y-91583454D01*
X169138425Y-91564158D01*
X169008494Y-91378597D01*
X168841402Y-91211506D01*
X168841395Y-91211501D01*
X168647834Y-91075967D01*
X168647830Y-91075965D01*
X168564016Y-91036882D01*
X168433663Y-90976097D01*
X168433659Y-90976096D01*
X168433655Y-90976094D01*
X168205413Y-90914938D01*
X168205403Y-90914936D01*
X167970001Y-90894341D01*
X167969998Y-90894341D01*
X167822007Y-90907288D01*
X167753507Y-90893521D01*
X167723519Y-90871441D01*
X167130292Y-90278213D01*
X167130288Y-90278210D01*
X166999185Y-90190609D01*
X166999172Y-90190602D01*
X166853501Y-90130264D01*
X166853489Y-90130261D01*
X166698845Y-90099500D01*
X166698842Y-90099500D01*
X164949654Y-90099500D01*
X164791969Y-90099500D01*
X164791964Y-90099500D01*
X164637321Y-90130260D01*
X164637313Y-90130262D01*
X164491635Y-90190604D01*
X164491625Y-90190609D01*
X164360522Y-90278210D01*
X164360518Y-90278213D01*
X160464199Y-94174532D01*
X160402876Y-94208017D01*
X160333184Y-94203033D01*
X160284368Y-94169823D01*
X160282534Y-94167786D01*
X160282533Y-94167784D01*
X160155871Y-94027112D01*
X160155870Y-94027111D01*
X160001615Y-93915038D01*
X159958949Y-93859708D01*
X159950500Y-93814720D01*
X159950500Y-90341518D01*
X159970185Y-90274479D01*
X159986814Y-90253842D01*
X162888501Y-87352154D01*
X162949822Y-87318671D01*
X163019514Y-87323655D01*
X163075447Y-87365527D01*
X163099864Y-87430991D01*
X163099500Y-87452798D01*
X163094540Y-87500000D01*
X163114326Y-87688256D01*
X163114327Y-87688259D01*
X163172818Y-87868277D01*
X163172821Y-87868284D01*
X163267467Y-88032216D01*
X163362409Y-88137659D01*
X163394129Y-88172888D01*
X163547265Y-88284148D01*
X163547270Y-88284151D01*
X163720192Y-88361142D01*
X163720197Y-88361144D01*
X163905354Y-88400500D01*
X163905355Y-88400500D01*
X164094644Y-88400500D01*
X164094646Y-88400500D01*
X164279803Y-88361144D01*
X164452730Y-88284151D01*
X164515616Y-88238462D01*
X164535271Y-88224182D01*
X164601077Y-88200702D01*
X164608156Y-88200500D01*
X165062672Y-88200500D01*
X165129711Y-88220185D01*
X165175466Y-88272989D01*
X165185410Y-88342147D01*
X165173997Y-88375134D01*
X165175462Y-88375786D01*
X165172818Y-88381722D01*
X165135635Y-88496161D01*
X165114326Y-88561744D01*
X165094540Y-88750000D01*
X165114326Y-88938256D01*
X165114327Y-88938259D01*
X165172818Y-89118277D01*
X165172821Y-89118284D01*
X165267467Y-89282216D01*
X165388401Y-89416526D01*
X165394129Y-89422888D01*
X165547265Y-89534148D01*
X165547270Y-89534151D01*
X165720192Y-89611142D01*
X165720197Y-89611144D01*
X165905354Y-89650500D01*
X165905355Y-89650500D01*
X166094644Y-89650500D01*
X166094646Y-89650500D01*
X166279803Y-89611144D01*
X166452730Y-89534151D01*
X166605871Y-89422888D01*
X166608788Y-89419647D01*
X166611600Y-89416526D01*
X166671087Y-89379879D01*
X166703748Y-89375500D01*
X170061608Y-89375500D01*
X170061608Y-89375499D01*
X170133781Y-89361144D01*
X170133783Y-89361144D01*
X170158282Y-89356270D01*
X170182452Y-89351463D01*
X170232496Y-89330734D01*
X170296286Y-89304312D01*
X170347509Y-89270084D01*
X170398733Y-89235858D01*
X170485858Y-89148733D01*
X170485859Y-89148731D01*
X170492925Y-89141665D01*
X170492927Y-89141661D01*
X172447771Y-87186819D01*
X172509094Y-87153334D01*
X172535452Y-87150500D01*
X172594644Y-87150500D01*
X172594646Y-87150500D01*
X172779803Y-87111144D01*
X172952730Y-87034151D01*
X173105871Y-86922888D01*
X173232533Y-86782216D01*
X173327179Y-86618284D01*
X173385674Y-86438256D01*
X173405460Y-86250000D01*
X173385674Y-86061744D01*
X173327179Y-85881716D01*
X173232533Y-85717784D01*
X173105871Y-85577112D01*
X173084719Y-85561744D01*
X172952734Y-85465851D01*
X172952729Y-85465848D01*
X172779807Y-85388857D01*
X172779802Y-85388855D01*
X172634001Y-85357865D01*
X172594646Y-85349500D01*
X172405354Y-85349500D01*
X172372897Y-85356398D01*
X172220197Y-85388855D01*
X172220192Y-85388857D01*
X172047270Y-85465848D01*
X172047265Y-85465851D01*
X171894129Y-85577111D01*
X171767466Y-85717785D01*
X171672821Y-85881715D01*
X171672818Y-85881722D01*
X171614327Y-86061740D01*
X171614326Y-86061744D01*
X171608384Y-86118277D01*
X171596678Y-86229651D01*
X171570093Y-86294266D01*
X171561038Y-86304370D01*
X169777229Y-88088181D01*
X169715906Y-88121666D01*
X169689548Y-88124500D01*
X166703748Y-88124500D01*
X166636709Y-88104815D01*
X166611600Y-88083474D01*
X166605873Y-88077114D01*
X166605869Y-88077110D01*
X166452734Y-87965851D01*
X166452729Y-87965848D01*
X166279807Y-87888857D01*
X166279802Y-87888855D01*
X166150215Y-87861311D01*
X166088733Y-87828119D01*
X166054957Y-87766956D01*
X166059609Y-87697241D01*
X166088313Y-87652342D01*
X168312975Y-85427681D01*
X168374296Y-85394198D01*
X168374362Y-85394183D01*
X168529803Y-85361144D01*
X168529807Y-85361142D01*
X168529808Y-85361142D01*
X168588058Y-85335206D01*
X168702730Y-85284151D01*
X168855871Y-85172888D01*
X168982533Y-85032216D01*
X169077179Y-84868284D01*
X169135674Y-84688256D01*
X169155460Y-84500000D01*
X169138376Y-84337458D01*
X169150945Y-84268732D01*
X169198677Y-84217708D01*
X169261697Y-84200500D01*
X170318996Y-84200500D01*
X170410040Y-84182389D01*
X170454328Y-84173580D01*
X170518069Y-84147177D01*
X170581807Y-84120777D01*
X170581808Y-84120776D01*
X170581811Y-84120775D01*
X170696543Y-84044114D01*
X173562975Y-81177681D01*
X173624296Y-81144198D01*
X173624362Y-81144183D01*
X173779803Y-81111144D01*
X173779807Y-81111142D01*
X173779808Y-81111142D01*
X173856244Y-81077110D01*
X173952730Y-81034151D01*
X174105871Y-80922888D01*
X174232533Y-80782216D01*
X174327179Y-80618284D01*
X174385674Y-80438256D01*
X174405460Y-80250000D01*
X174385674Y-80061744D01*
X174327179Y-79881716D01*
X174232533Y-79717784D01*
X174105871Y-79577112D01*
X174104144Y-79575857D01*
X173952734Y-79465851D01*
X173952729Y-79465848D01*
X173779807Y-79388857D01*
X173779802Y-79388855D01*
X173634001Y-79357865D01*
X173594646Y-79349500D01*
X173405354Y-79349500D01*
X173372897Y-79356398D01*
X173220197Y-79388855D01*
X173220192Y-79388857D01*
X173047270Y-79465848D01*
X173047265Y-79465851D01*
X172894129Y-79577111D01*
X172767466Y-79717785D01*
X172672821Y-79881715D01*
X172672818Y-79881722D01*
X172614327Y-80061739D01*
X172614325Y-80061750D01*
X172609134Y-80111129D01*
X172582549Y-80175743D01*
X172573495Y-80185846D01*
X172135748Y-80623593D01*
X172074425Y-80657078D01*
X172004733Y-80652094D01*
X171948800Y-80610222D01*
X171926450Y-80560102D01*
X171923580Y-80545672D01*
X171879087Y-80438256D01*
X171870776Y-80418191D01*
X171858955Y-80400500D01*
X171794114Y-80303457D01*
X171794112Y-80303454D01*
X171794111Y-80303453D01*
X170177838Y-78687181D01*
X170144353Y-78625858D01*
X170149337Y-78556166D01*
X170191209Y-78500233D01*
X170256673Y-78475816D01*
X170265519Y-78475500D01*
X178253729Y-78475500D01*
X178320768Y-78495185D01*
G37*
%TD.AperFunction*%
%TA.AperFunction,Conductor*%
G36*
X166784855Y-92916546D02*
G01*
X166801575Y-92935842D01*
X166931501Y-93121396D01*
X166931506Y-93121402D01*
X167098597Y-93288493D01*
X167098603Y-93288498D01*
X167284158Y-93418425D01*
X167327783Y-93473002D01*
X167334977Y-93542500D01*
X167303454Y-93604855D01*
X167284158Y-93621575D01*
X167098597Y-93751505D01*
X166931508Y-93918594D01*
X166801269Y-94104595D01*
X166746692Y-94148219D01*
X166677193Y-94155412D01*
X166614839Y-94123890D01*
X166598119Y-94104594D01*
X166468113Y-93918926D01*
X166468108Y-93918920D01*
X166301078Y-93751890D01*
X166115405Y-93621879D01*
X166071780Y-93567302D01*
X166064588Y-93497804D01*
X166096110Y-93435449D01*
X166115406Y-93418730D01*
X166150620Y-93394073D01*
X166301401Y-93288495D01*
X166468495Y-93121401D01*
X166598425Y-92935842D01*
X166653002Y-92892217D01*
X166722500Y-92885023D01*
X166784855Y-92916546D01*
G37*
%TD.AperFunction*%
%TA.AperFunction,Conductor*%
G36*
X171864855Y-92916546D02*
G01*
X171881575Y-92935842D01*
X172011501Y-93121396D01*
X172011506Y-93121402D01*
X172178597Y-93288493D01*
X172178603Y-93288498D01*
X172364594Y-93418730D01*
X172408219Y-93473307D01*
X172415413Y-93542805D01*
X172383890Y-93605160D01*
X172364595Y-93621880D01*
X172178922Y-93751890D01*
X172178920Y-93751891D01*
X172011891Y-93918920D01*
X172011890Y-93918922D01*
X171881880Y-94104595D01*
X171827303Y-94148219D01*
X171757804Y-94155412D01*
X171695450Y-94123890D01*
X171678730Y-94104594D01*
X171548494Y-93918597D01*
X171381402Y-93751506D01*
X171381396Y-93751501D01*
X171195842Y-93621575D01*
X171152217Y-93566998D01*
X171145023Y-93497500D01*
X171176546Y-93435145D01*
X171195842Y-93418425D01*
X171230620Y-93394073D01*
X171381401Y-93288495D01*
X171548495Y-93121401D01*
X171678425Y-92935842D01*
X171733002Y-92892217D01*
X171802500Y-92885023D01*
X171864855Y-92916546D01*
G37*
%TD.AperFunction*%
%TA.AperFunction,Conductor*%
G36*
X182024855Y-92916546D02*
G01*
X182041575Y-92935842D01*
X182171501Y-93121396D01*
X182171506Y-93121402D01*
X182338597Y-93288493D01*
X182338603Y-93288498D01*
X182524158Y-93418425D01*
X182567783Y-93473002D01*
X182574977Y-93542500D01*
X182543454Y-93604855D01*
X182524158Y-93621575D01*
X182338597Y-93751505D01*
X182171508Y-93918594D01*
X182041269Y-94104595D01*
X181986692Y-94148219D01*
X181917193Y-94155412D01*
X181854839Y-94123890D01*
X181838119Y-94104594D01*
X181708113Y-93918926D01*
X181708108Y-93918920D01*
X181541078Y-93751890D01*
X181355405Y-93621879D01*
X181311780Y-93567302D01*
X181304588Y-93497804D01*
X181336110Y-93435449D01*
X181355406Y-93418730D01*
X181390620Y-93394073D01*
X181541401Y-93288495D01*
X181708495Y-93121401D01*
X181838425Y-92935842D01*
X181893002Y-92892217D01*
X181962500Y-92885023D01*
X182024855Y-92916546D01*
G37*
%TD.AperFunction*%
%TA.AperFunction,Conductor*%
G36*
X187104855Y-92916546D02*
G01*
X187121575Y-92935842D01*
X187251501Y-93121396D01*
X187251506Y-93121402D01*
X187418597Y-93288493D01*
X187418603Y-93288498D01*
X187604594Y-93418730D01*
X187648219Y-93473307D01*
X187655413Y-93542805D01*
X187623890Y-93605160D01*
X187604595Y-93621880D01*
X187418922Y-93751890D01*
X187418920Y-93751891D01*
X187251891Y-93918920D01*
X187251890Y-93918922D01*
X187121880Y-94104595D01*
X187067303Y-94148219D01*
X186997804Y-94155412D01*
X186935450Y-94123890D01*
X186918730Y-94104594D01*
X186788494Y-93918597D01*
X186621402Y-93751506D01*
X186621396Y-93751501D01*
X186435842Y-93621575D01*
X186392217Y-93566998D01*
X186385023Y-93497500D01*
X186416546Y-93435145D01*
X186435842Y-93418425D01*
X186470620Y-93394073D01*
X186621401Y-93288495D01*
X186788495Y-93121401D01*
X186918425Y-92935842D01*
X186973002Y-92892217D01*
X187042500Y-92885023D01*
X187104855Y-92916546D01*
G37*
%TD.AperFunction*%
%TA.AperFunction,Conductor*%
G36*
X169324855Y-92916546D02*
G01*
X169341575Y-92935842D01*
X169471501Y-93121396D01*
X169471506Y-93121402D01*
X169638597Y-93288493D01*
X169638603Y-93288498D01*
X169824158Y-93418425D01*
X169867783Y-93473002D01*
X169874977Y-93542500D01*
X169843454Y-93604855D01*
X169824158Y-93621575D01*
X169638597Y-93751505D01*
X169471505Y-93918597D01*
X169341575Y-94104158D01*
X169286998Y-94147783D01*
X169217500Y-94154977D01*
X169155145Y-94123454D01*
X169138425Y-94104158D01*
X169008494Y-93918597D01*
X168841402Y-93751506D01*
X168841396Y-93751501D01*
X168655842Y-93621575D01*
X168612217Y-93566998D01*
X168605023Y-93497500D01*
X168636546Y-93435145D01*
X168655842Y-93418425D01*
X168690620Y-93394073D01*
X168841401Y-93288495D01*
X169008495Y-93121401D01*
X169138425Y-92935842D01*
X169193002Y-92892217D01*
X169262500Y-92885023D01*
X169324855Y-92916546D01*
G37*
%TD.AperFunction*%
%TA.AperFunction,Conductor*%
G36*
X184564855Y-92916546D02*
G01*
X184581575Y-92935842D01*
X184711501Y-93121396D01*
X184711506Y-93121402D01*
X184878597Y-93288493D01*
X184878603Y-93288498D01*
X185064158Y-93418425D01*
X185107783Y-93473002D01*
X185114977Y-93542500D01*
X185083454Y-93604855D01*
X185064158Y-93621575D01*
X184878597Y-93751505D01*
X184711505Y-93918597D01*
X184581575Y-94104158D01*
X184526998Y-94147783D01*
X184457500Y-94154977D01*
X184395145Y-94123454D01*
X184378425Y-94104158D01*
X184248494Y-93918597D01*
X184081402Y-93751506D01*
X184081396Y-93751501D01*
X183895842Y-93621575D01*
X183852217Y-93566998D01*
X183845023Y-93497500D01*
X183876546Y-93435145D01*
X183895842Y-93418425D01*
X183930620Y-93394073D01*
X184081401Y-93288495D01*
X184248495Y-93121401D01*
X184378425Y-92935842D01*
X184433002Y-92892217D01*
X184502500Y-92885023D01*
X184564855Y-92916546D01*
G37*
%TD.AperFunction*%
%TA.AperFunction,Conductor*%
G36*
X220693039Y-70519685D02*
G01*
X220738794Y-70572489D01*
X220750000Y-70624000D01*
X220750000Y-96876000D01*
X220730315Y-96943039D01*
X220677511Y-96988794D01*
X220626000Y-97000000D01*
X143374000Y-97000000D01*
X143306961Y-96980315D01*
X143261206Y-96927511D01*
X143250000Y-96876000D01*
X143250000Y-95250000D01*
X151344540Y-95250000D01*
X151364326Y-95438256D01*
X151364327Y-95438259D01*
X151422818Y-95618277D01*
X151422821Y-95618284D01*
X151517467Y-95782216D01*
X151607609Y-95882328D01*
X151644129Y-95922888D01*
X151797265Y-96034148D01*
X151797270Y-96034151D01*
X151970192Y-96111142D01*
X151970197Y-96111144D01*
X152155354Y-96150500D01*
X152155355Y-96150500D01*
X152344644Y-96150500D01*
X152344646Y-96150500D01*
X152529803Y-96111144D01*
X152591234Y-96083793D01*
X152641931Y-96061221D01*
X152692367Y-96050500D01*
X158444267Y-96050500D01*
X158511306Y-96070185D01*
X158531943Y-96086814D01*
X158618017Y-96172888D01*
X158666919Y-96221790D01*
X158798021Y-96309390D01*
X158798025Y-96309392D01*
X158798028Y-96309394D01*
X158943710Y-96369738D01*
X159098360Y-96400499D01*
X159098364Y-96400500D01*
X159098365Y-96400500D01*
X160249655Y-96400500D01*
X160249656Y-96400499D01*
X160404308Y-96369737D01*
X160549990Y-96309394D01*
X160681100Y-96221789D01*
X164041412Y-92861475D01*
X164102733Y-92827992D01*
X164172425Y-92832976D01*
X164228358Y-92874848D01*
X164241473Y-92896752D01*
X164255966Y-92927832D01*
X164329057Y-93032216D01*
X164391501Y-93121396D01*
X164391506Y-93121402D01*
X164558597Y-93288493D01*
X164558603Y-93288498D01*
X164744594Y-93418730D01*
X164788219Y-93473307D01*
X164795413Y-93542805D01*
X164763890Y-93605160D01*
X164744595Y-93621880D01*
X164558922Y-93751890D01*
X164558920Y-93751891D01*
X164391891Y-93918920D01*
X164391886Y-93918926D01*
X164256400Y-94112420D01*
X164256399Y-94112422D01*
X164156570Y-94326507D01*
X164156567Y-94326513D01*
X164099364Y-94539999D01*
X164099364Y-94540000D01*
X164996988Y-94540000D01*
X164964075Y-94597007D01*
X164930000Y-94724174D01*
X164930000Y-94855826D01*
X164964075Y-94982993D01*
X164996988Y-95040000D01*
X164099364Y-95040000D01*
X164156567Y-95253486D01*
X164156570Y-95253492D01*
X164256399Y-95467578D01*
X164391894Y-95661082D01*
X164558917Y-95828105D01*
X164752421Y-95963600D01*
X164966507Y-96063429D01*
X164966516Y-96063433D01*
X165180000Y-96120634D01*
X165180000Y-95223012D01*
X165237007Y-95255925D01*
X165364174Y-95290000D01*
X165495826Y-95290000D01*
X165622993Y-95255925D01*
X165680000Y-95223012D01*
X165680000Y-96120633D01*
X165893483Y-96063433D01*
X165893492Y-96063429D01*
X166107578Y-95963600D01*
X166301082Y-95828105D01*
X166468105Y-95661082D01*
X166598119Y-95475405D01*
X166652696Y-95431781D01*
X166722195Y-95424588D01*
X166784549Y-95456110D01*
X166801269Y-95475405D01*
X166931505Y-95661401D01*
X167098599Y-95828495D01*
X167195384Y-95896265D01*
X167292165Y-95964032D01*
X167292167Y-95964033D01*
X167292170Y-95964035D01*
X167506337Y-96063903D01*
X167734592Y-96125063D01*
X167911034Y-96140500D01*
X167969999Y-96145659D01*
X167970000Y-96145659D01*
X167970001Y-96145659D01*
X168028966Y-96140500D01*
X168205408Y-96125063D01*
X168433663Y-96063903D01*
X168647830Y-95964035D01*
X168841401Y-95828495D01*
X169008495Y-95661401D01*
X169138425Y-95475842D01*
X169193002Y-95432217D01*
X169262500Y-95425023D01*
X169324855Y-95456546D01*
X169341575Y-95475842D01*
X169471281Y-95661082D01*
X169471505Y-95661401D01*
X169638599Y-95828495D01*
X169735384Y-95896265D01*
X169832165Y-95964032D01*
X169832167Y-95964033D01*
X169832170Y-95964035D01*
X170046337Y-96063903D01*
X170274592Y-96125063D01*
X170451034Y-96140500D01*
X170509999Y-96145659D01*
X170510000Y-96145659D01*
X170510001Y-96145659D01*
X170568966Y-96140500D01*
X170745408Y-96125063D01*
X170973663Y-96063903D01*
X171187830Y-95964035D01*
X171381401Y-95828495D01*
X171548495Y-95661401D01*
X171678730Y-95475405D01*
X171733307Y-95431781D01*
X171802805Y-95424587D01*
X171865160Y-95456110D01*
X171881879Y-95475405D01*
X172011890Y-95661078D01*
X172178917Y-95828105D01*
X172372421Y-95963600D01*
X172586507Y-96063429D01*
X172586516Y-96063433D01*
X172800000Y-96120634D01*
X172800000Y-95223012D01*
X172857007Y-95255925D01*
X172984174Y-95290000D01*
X173115826Y-95290000D01*
X173242993Y-95255925D01*
X173300000Y-95223012D01*
X173300000Y-96120633D01*
X173513483Y-96063433D01*
X173513492Y-96063429D01*
X173727578Y-95963600D01*
X173921082Y-95828105D01*
X174088105Y-95661082D01*
X174218119Y-95475405D01*
X174272696Y-95431781D01*
X174342195Y-95424588D01*
X174404549Y-95456110D01*
X174421269Y-95475405D01*
X174551505Y-95661401D01*
X174718599Y-95828495D01*
X174815384Y-95896265D01*
X174912165Y-95964032D01*
X174912167Y-95964033D01*
X174912170Y-95964035D01*
X175126337Y-96063903D01*
X175354592Y-96125063D01*
X175531034Y-96140500D01*
X175589999Y-96145659D01*
X175590000Y-96145659D01*
X175590001Y-96145659D01*
X175648966Y-96140500D01*
X175825408Y-96125063D01*
X176053663Y-96063903D01*
X176267830Y-95964035D01*
X176461401Y-95828495D01*
X176628495Y-95661401D01*
X176758425Y-95475842D01*
X176813002Y-95432217D01*
X176882500Y-95425023D01*
X176944855Y-95456546D01*
X176961575Y-95475842D01*
X177091281Y-95661082D01*
X177091505Y-95661401D01*
X177258599Y-95828495D01*
X177355384Y-95896265D01*
X177452165Y-95964032D01*
X177452167Y-95964033D01*
X177452170Y-95964035D01*
X177666337Y-96063903D01*
X177894592Y-96125063D01*
X178071034Y-96140500D01*
X178129999Y-96145659D01*
X178130000Y-96145659D01*
X178130001Y-96145659D01*
X178188966Y-96140500D01*
X178365408Y-96125063D01*
X178593663Y-96063903D01*
X178807830Y-95964035D01*
X179001401Y-95828495D01*
X179168495Y-95661401D01*
X179298730Y-95475405D01*
X179353307Y-95431781D01*
X179422805Y-95424587D01*
X179485160Y-95456110D01*
X179501879Y-95475405D01*
X179631890Y-95661078D01*
X179798917Y-95828105D01*
X179992421Y-95963600D01*
X180206507Y-96063429D01*
X180206516Y-96063433D01*
X180420000Y-96120634D01*
X180420000Y-95223012D01*
X180477007Y-95255925D01*
X180604174Y-95290000D01*
X180735826Y-95290000D01*
X180862993Y-95255925D01*
X180920000Y-95223012D01*
X180920000Y-96120633D01*
X181133483Y-96063433D01*
X181133492Y-96063429D01*
X181347578Y-95963600D01*
X181541082Y-95828105D01*
X181708105Y-95661082D01*
X181838119Y-95475405D01*
X181892696Y-95431781D01*
X181962195Y-95424588D01*
X182024549Y-95456110D01*
X182041269Y-95475405D01*
X182171505Y-95661401D01*
X182338599Y-95828495D01*
X182435384Y-95896265D01*
X182532165Y-95964032D01*
X182532167Y-95964033D01*
X182532170Y-95964035D01*
X182746337Y-96063903D01*
X182974592Y-96125063D01*
X183151034Y-96140500D01*
X183209999Y-96145659D01*
X183210000Y-96145659D01*
X183210001Y-96145659D01*
X183268966Y-96140500D01*
X183445408Y-96125063D01*
X183673663Y-96063903D01*
X183887830Y-95964035D01*
X184081401Y-95828495D01*
X184248495Y-95661401D01*
X184378425Y-95475842D01*
X184433002Y-95432217D01*
X184502500Y-95425023D01*
X184564855Y-95456546D01*
X184581575Y-95475842D01*
X184711281Y-95661082D01*
X184711505Y-95661401D01*
X184878599Y-95828495D01*
X184975384Y-95896265D01*
X185072165Y-95964032D01*
X185072167Y-95964033D01*
X185072170Y-95964035D01*
X185286337Y-96063903D01*
X185514592Y-96125063D01*
X185691034Y-96140500D01*
X185749999Y-96145659D01*
X185750000Y-96145659D01*
X185750001Y-96145659D01*
X185808966Y-96140500D01*
X185985408Y-96125063D01*
X186213663Y-96063903D01*
X186427830Y-95964035D01*
X186621401Y-95828495D01*
X186788495Y-95661401D01*
X186918730Y-95475405D01*
X186973307Y-95431781D01*
X187042805Y-95424587D01*
X187105160Y-95456110D01*
X187121879Y-95475405D01*
X187251890Y-95661078D01*
X187418917Y-95828105D01*
X187612421Y-95963600D01*
X187826507Y-96063429D01*
X187826516Y-96063433D01*
X188040000Y-96120634D01*
X188040000Y-95223012D01*
X188097007Y-95255925D01*
X188224174Y-95290000D01*
X188355826Y-95290000D01*
X188482993Y-95255925D01*
X188540000Y-95223012D01*
X188540000Y-96120633D01*
X188753483Y-96063433D01*
X188753492Y-96063429D01*
X188967578Y-95963600D01*
X189161082Y-95828105D01*
X189328105Y-95661082D01*
X189458119Y-95475405D01*
X189512696Y-95431781D01*
X189582195Y-95424588D01*
X189644549Y-95456110D01*
X189661269Y-95475405D01*
X189791505Y-95661401D01*
X189958599Y-95828495D01*
X190055384Y-95896265D01*
X190152165Y-95964032D01*
X190152167Y-95964033D01*
X190152170Y-95964035D01*
X190366337Y-96063903D01*
X190594592Y-96125063D01*
X190771034Y-96140500D01*
X190829999Y-96145659D01*
X190830000Y-96145659D01*
X190830001Y-96145659D01*
X190888966Y-96140500D01*
X191065408Y-96125063D01*
X191293663Y-96063903D01*
X191507830Y-95964035D01*
X191701401Y-95828495D01*
X191868495Y-95661401D01*
X191998425Y-95475842D01*
X192053002Y-95432217D01*
X192122500Y-95425023D01*
X192184855Y-95456546D01*
X192201575Y-95475842D01*
X192331281Y-95661082D01*
X192331505Y-95661401D01*
X192498599Y-95828495D01*
X192595384Y-95896265D01*
X192692165Y-95964032D01*
X192692167Y-95964033D01*
X192692170Y-95964035D01*
X192906337Y-96063903D01*
X193134592Y-96125063D01*
X193311034Y-96140500D01*
X193369999Y-96145659D01*
X193370000Y-96145659D01*
X193370001Y-96145659D01*
X193428966Y-96140500D01*
X193605408Y-96125063D01*
X193833663Y-96063903D01*
X194047830Y-95964035D01*
X194241401Y-95828495D01*
X194408495Y-95661401D01*
X194538730Y-95475405D01*
X194593307Y-95431781D01*
X194662805Y-95424587D01*
X194725160Y-95456110D01*
X194741879Y-95475405D01*
X194871890Y-95661078D01*
X195038917Y-95828105D01*
X195232421Y-95963600D01*
X195446507Y-96063429D01*
X195446516Y-96063433D01*
X195660000Y-96120634D01*
X195660000Y-95223012D01*
X195717007Y-95255925D01*
X195844174Y-95290000D01*
X195975826Y-95290000D01*
X196102993Y-95255925D01*
X196160000Y-95223012D01*
X196160000Y-96120633D01*
X196373483Y-96063433D01*
X196373492Y-96063429D01*
X196587578Y-95963600D01*
X196781078Y-95828108D01*
X196903133Y-95706053D01*
X196964456Y-95672568D01*
X197034148Y-95677552D01*
X197090082Y-95719423D01*
X197106997Y-95750401D01*
X197156202Y-95882328D01*
X197156206Y-95882335D01*
X197242452Y-95997544D01*
X197242455Y-95997547D01*
X197357664Y-96083793D01*
X197357671Y-96083797D01*
X197492517Y-96134091D01*
X197492516Y-96134091D01*
X197499444Y-96134835D01*
X197552127Y-96140500D01*
X199347872Y-96140499D01*
X199407483Y-96134091D01*
X199542331Y-96083796D01*
X199657546Y-95997546D01*
X199743796Y-95882331D01*
X199794091Y-95747483D01*
X199800500Y-95687873D01*
X199800499Y-94364278D01*
X199820184Y-94297240D01*
X199872987Y-94251485D01*
X199942146Y-94241541D01*
X200005702Y-94270566D01*
X200016649Y-94281307D01*
X200017466Y-94282214D01*
X200017467Y-94282216D01*
X200113486Y-94388856D01*
X200144129Y-94422888D01*
X200297265Y-94534148D01*
X200297270Y-94534151D01*
X200470192Y-94611142D01*
X200470197Y-94611144D01*
X200655354Y-94650500D01*
X200655355Y-94650500D01*
X200844644Y-94650500D01*
X200844646Y-94650500D01*
X201029803Y-94611144D01*
X201202730Y-94534151D01*
X201267877Y-94486819D01*
X201285271Y-94474182D01*
X201351077Y-94450702D01*
X201358156Y-94450500D01*
X201583481Y-94450500D01*
X201650520Y-94470185D01*
X201671162Y-94486819D01*
X202748495Y-95564152D01*
X202781980Y-95625475D01*
X202784134Y-95638869D01*
X202789325Y-95688249D01*
X202789327Y-95688260D01*
X202847818Y-95868277D01*
X202847821Y-95868284D01*
X202942467Y-96032216D01*
X203026067Y-96125063D01*
X203069129Y-96172888D01*
X203222265Y-96284148D01*
X203222270Y-96284151D01*
X203395192Y-96361142D01*
X203395197Y-96361144D01*
X203580354Y-96400500D01*
X203580355Y-96400500D01*
X203769644Y-96400500D01*
X203769646Y-96400500D01*
X203954803Y-96361144D01*
X204127730Y-96284151D01*
X204280871Y-96172888D01*
X204407533Y-96032216D01*
X204502179Y-95868284D01*
X204560674Y-95688256D01*
X204580460Y-95500000D01*
X204560674Y-95311744D01*
X204502179Y-95131716D01*
X204407533Y-94967784D01*
X204280871Y-94827112D01*
X204280870Y-94827111D01*
X204127734Y-94715851D01*
X204127729Y-94715848D01*
X203954807Y-94638857D01*
X203954802Y-94638855D01*
X203818490Y-94609882D01*
X203799872Y-94605924D01*
X203738391Y-94572733D01*
X203737973Y-94572316D01*
X203074739Y-93909082D01*
X203041254Y-93847759D01*
X203046238Y-93778067D01*
X203088110Y-93722134D01*
X203089446Y-93721148D01*
X203155871Y-93672888D01*
X203282533Y-93532216D01*
X203377179Y-93368284D01*
X203435674Y-93188256D01*
X203455460Y-93000000D01*
X203435674Y-92811744D01*
X203377179Y-92631716D01*
X203282533Y-92467784D01*
X203155871Y-92327112D01*
X203134719Y-92311744D01*
X203002734Y-92215851D01*
X203002729Y-92215848D01*
X202829807Y-92138857D01*
X202829802Y-92138855D01*
X202684001Y-92107865D01*
X202644646Y-92099500D01*
X202644645Y-92099500D01*
X202584713Y-92099500D01*
X202537260Y-92090061D01*
X202504328Y-92076420D01*
X202504322Y-92076418D01*
X202368996Y-92049500D01*
X202368994Y-92049500D01*
X202368993Y-92049500D01*
X200421007Y-92049500D01*
X200421005Y-92049500D01*
X200349706Y-92063682D01*
X200314056Y-92070774D01*
X200285671Y-92076420D01*
X200285670Y-92076420D01*
X200158190Y-92129224D01*
X200043454Y-92205887D01*
X200009272Y-92240069D01*
X199947949Y-92273554D01*
X199878257Y-92268568D01*
X199822324Y-92226696D01*
X199798064Y-92163194D01*
X199785063Y-92014592D01*
X199738626Y-91841285D01*
X199723905Y-91786344D01*
X199723904Y-91786343D01*
X199723903Y-91786337D01*
X199624035Y-91572171D01*
X199618425Y-91564158D01*
X199488494Y-91378597D01*
X199321402Y-91211506D01*
X199321395Y-91211501D01*
X199127834Y-91075967D01*
X199127830Y-91075965D01*
X199044016Y-91036882D01*
X198991577Y-90990710D01*
X198972425Y-90923516D01*
X198992641Y-90856635D01*
X199045806Y-90811300D01*
X199096421Y-90800500D01*
X212557633Y-90800500D01*
X212608069Y-90811221D01*
X212720192Y-90861142D01*
X212720197Y-90861144D01*
X212905354Y-90900500D01*
X212905355Y-90900500D01*
X213094644Y-90900500D01*
X213094646Y-90900500D01*
X213279803Y-90861144D01*
X213452073Y-90784443D01*
X213521319Y-90775158D01*
X213584596Y-90804786D01*
X213621810Y-90863921D01*
X213626083Y-90907961D01*
X213619700Y-90985003D01*
X213619700Y-90985006D01*
X213638864Y-91216297D01*
X213638866Y-91216308D01*
X213695842Y-91441300D01*
X213789075Y-91653848D01*
X213916016Y-91848147D01*
X213916019Y-91848151D01*
X213916021Y-91848153D01*
X214010803Y-91951114D01*
X214041724Y-92013767D01*
X214033864Y-92083193D01*
X213989716Y-92137348D01*
X213962906Y-92151277D01*
X213882669Y-92181203D01*
X213882664Y-92181206D01*
X213767455Y-92267452D01*
X213767452Y-92267455D01*
X213681206Y-92382664D01*
X213681202Y-92382671D01*
X213630908Y-92517517D01*
X213624501Y-92577116D01*
X213624500Y-92577135D01*
X213624500Y-94472870D01*
X213624501Y-94472876D01*
X213630908Y-94532483D01*
X213681202Y-94667328D01*
X213681206Y-94667335D01*
X213750358Y-94759709D01*
X213767454Y-94782546D01*
X213825813Y-94826234D01*
X213867684Y-94882167D01*
X213872668Y-94951859D01*
X213839183Y-95013182D01*
X213777859Y-95046666D01*
X213751502Y-95049500D01*
X211091519Y-95049500D01*
X211024480Y-95029815D01*
X211003838Y-95013181D01*
X208426503Y-92435846D01*
X208393018Y-92374523D01*
X208390865Y-92361143D01*
X208385674Y-92311744D01*
X208385478Y-92311142D01*
X208327181Y-92131722D01*
X208327180Y-92131721D01*
X208327179Y-92131716D01*
X208232533Y-91967784D01*
X208105871Y-91827112D01*
X208105870Y-91827111D01*
X207952734Y-91715851D01*
X207952729Y-91715848D01*
X207779807Y-91638857D01*
X207779802Y-91638855D01*
X207633615Y-91607783D01*
X207594646Y-91599500D01*
X207405354Y-91599500D01*
X207372897Y-91606398D01*
X207220197Y-91638855D01*
X207220192Y-91638857D01*
X207047270Y-91715848D01*
X207047265Y-91715851D01*
X206894129Y-91827111D01*
X206767466Y-91967785D01*
X206672821Y-92131715D01*
X206672818Y-92131722D01*
X206614521Y-92311144D01*
X206614326Y-92311744D01*
X206594540Y-92500000D01*
X206614326Y-92688256D01*
X206614327Y-92688259D01*
X206672818Y-92868277D01*
X206672821Y-92868284D01*
X206767467Y-93032216D01*
X206847770Y-93121401D01*
X206894129Y-93172888D01*
X207047265Y-93284148D01*
X207047270Y-93284151D01*
X207220191Y-93361142D01*
X207220193Y-93361142D01*
X207220197Y-93361144D01*
X207375130Y-93394075D01*
X207436607Y-93427266D01*
X207437026Y-93427683D01*
X210303453Y-96294111D01*
X210303454Y-96294112D01*
X210418192Y-96370777D01*
X210545667Y-96423578D01*
X210545672Y-96423580D01*
X210545676Y-96423580D01*
X210545677Y-96423581D01*
X210681003Y-96450500D01*
X210681006Y-96450500D01*
X215818996Y-96450500D01*
X215910040Y-96432389D01*
X215954328Y-96423580D01*
X216018069Y-96397177D01*
X216081807Y-96370777D01*
X216081808Y-96370776D01*
X216081811Y-96370775D01*
X216196543Y-96294114D01*
X217794113Y-94696543D01*
X217826264Y-94648425D01*
X217832660Y-94638855D01*
X217870774Y-94581813D01*
X217906455Y-94495672D01*
X217911707Y-94482993D01*
X217923580Y-94454329D01*
X217939942Y-94372070D01*
X217945221Y-94345531D01*
X217950500Y-94318994D01*
X217950500Y-82781006D01*
X217937539Y-82715851D01*
X217935247Y-82704328D01*
X217923580Y-82645672D01*
X217870775Y-82518189D01*
X217794114Y-82403457D01*
X217794112Y-82403454D01*
X217794111Y-82403453D01*
X215027837Y-79637180D01*
X214994352Y-79575857D01*
X214999336Y-79506165D01*
X215041208Y-79450232D01*
X215106672Y-79425815D01*
X215115518Y-79425499D01*
X215972871Y-79425499D01*
X215972872Y-79425499D01*
X216032483Y-79419091D01*
X216167331Y-79368796D01*
X216282546Y-79282546D01*
X216368796Y-79167331D01*
X216419091Y-79032483D01*
X216425500Y-78972873D01*
X216425499Y-77077128D01*
X216419091Y-77017517D01*
X216411001Y-76995827D01*
X216368797Y-76882671D01*
X216368793Y-76882664D01*
X216282547Y-76767455D01*
X216282544Y-76767452D01*
X216167335Y-76681206D01*
X216167328Y-76681202D01*
X216087094Y-76651277D01*
X216031160Y-76609406D01*
X216006743Y-76543941D01*
X216021595Y-76475668D01*
X216039190Y-76451121D01*
X216133979Y-76348153D01*
X216260924Y-76153849D01*
X216354157Y-75941300D01*
X216411134Y-75716305D01*
X216411135Y-75716297D01*
X216430300Y-75485006D01*
X216430300Y-75484993D01*
X216411135Y-75253702D01*
X216411133Y-75253691D01*
X216354157Y-75028699D01*
X216260924Y-74816151D01*
X216133983Y-74621852D01*
X216133980Y-74621849D01*
X216133979Y-74621847D01*
X215976784Y-74451087D01*
X215976779Y-74451083D01*
X215976777Y-74451081D01*
X215793634Y-74308535D01*
X215793628Y-74308531D01*
X215589504Y-74198064D01*
X215589495Y-74198061D01*
X215369984Y-74122702D01*
X215198282Y-74094050D01*
X215141049Y-74084500D01*
X214908951Y-74084500D01*
X214863164Y-74092140D01*
X214680015Y-74122702D01*
X214460504Y-74198061D01*
X214460495Y-74198064D01*
X214256371Y-74308531D01*
X214256365Y-74308535D01*
X214073222Y-74451081D01*
X214073219Y-74451084D01*
X214073216Y-74451086D01*
X214073216Y-74451087D01*
X214014267Y-74515122D01*
X213916016Y-74621852D01*
X213789075Y-74816151D01*
X213695842Y-75028699D01*
X213638866Y-75253691D01*
X213638864Y-75253702D01*
X213619700Y-75484993D01*
X213619700Y-75485006D01*
X213638864Y-75716297D01*
X213638866Y-75716308D01*
X213695842Y-75941300D01*
X213789075Y-76153848D01*
X213916016Y-76348147D01*
X213916019Y-76348151D01*
X213916021Y-76348153D01*
X214010803Y-76451114D01*
X214041724Y-76513767D01*
X214033864Y-76583193D01*
X213989716Y-76637348D01*
X213962906Y-76651277D01*
X213882669Y-76681203D01*
X213882664Y-76681206D01*
X213767455Y-76767452D01*
X213767452Y-76767455D01*
X213681206Y-76882664D01*
X213681202Y-76882671D01*
X213630908Y-77017517D01*
X213624856Y-77073814D01*
X213624501Y-77077123D01*
X213624500Y-77077135D01*
X213624500Y-77934481D01*
X213604815Y-78001520D01*
X213552011Y-78047275D01*
X213482853Y-78057219D01*
X213419297Y-78028194D01*
X213412819Y-78022162D01*
X211864175Y-76473518D01*
X211830690Y-76412195D01*
X211833924Y-76347522D01*
X211885674Y-76188256D01*
X211905460Y-76000000D01*
X211885674Y-75811744D01*
X211827179Y-75631716D01*
X211732533Y-75467784D01*
X211605871Y-75327112D01*
X211605870Y-75327111D01*
X211452734Y-75215851D01*
X211452729Y-75215848D01*
X211279807Y-75138857D01*
X211279802Y-75138855D01*
X211134001Y-75107865D01*
X211094646Y-75099500D01*
X210905354Y-75099500D01*
X210872897Y-75106398D01*
X210720197Y-75138855D01*
X210720192Y-75138857D01*
X210547270Y-75215848D01*
X210547265Y-75215851D01*
X210394129Y-75327111D01*
X210267466Y-75467785D01*
X210172821Y-75631715D01*
X210172818Y-75631722D01*
X210116143Y-75806151D01*
X210114326Y-75811744D01*
X210094540Y-76000000D01*
X210114326Y-76188256D01*
X210114327Y-76188259D01*
X210172818Y-76368277D01*
X210172821Y-76368284D01*
X210267466Y-76532215D01*
X210267648Y-76532417D01*
X210267716Y-76532559D01*
X210271285Y-76537471D01*
X210270386Y-76538123D01*
X210297879Y-76595408D01*
X210299500Y-76615391D01*
X210299500Y-76668994D01*
X210326418Y-76804322D01*
X210326421Y-76804332D01*
X210379222Y-76931807D01*
X210455887Y-77046545D01*
X210455888Y-77046546D01*
X215032162Y-81622819D01*
X215065647Y-81684142D01*
X215060663Y-81753834D01*
X215018791Y-81809767D01*
X214953327Y-81834184D01*
X214944481Y-81834500D01*
X214908951Y-81834500D01*
X214863164Y-81842140D01*
X214680015Y-81872702D01*
X214460504Y-81948061D01*
X214460495Y-81948064D01*
X214256371Y-82058531D01*
X214256365Y-82058535D01*
X214073222Y-82201081D01*
X214073219Y-82201084D01*
X214073216Y-82201086D01*
X214073216Y-82201087D01*
X214041207Y-82235858D01*
X213916016Y-82371852D01*
X213789075Y-82566151D01*
X213695842Y-82778699D01*
X213638866Y-83003691D01*
X213638864Y-83003702D01*
X213619700Y-83234993D01*
X213619700Y-83235006D01*
X213638864Y-83466297D01*
X213638866Y-83466308D01*
X213695842Y-83691300D01*
X213789075Y-83903848D01*
X213916016Y-84098147D01*
X213916019Y-84098151D01*
X213916021Y-84098153D01*
X214010803Y-84201114D01*
X214041724Y-84263767D01*
X214033864Y-84333193D01*
X213989716Y-84387348D01*
X213962906Y-84401277D01*
X213882669Y-84431203D01*
X213882664Y-84431206D01*
X213767455Y-84517452D01*
X213767452Y-84517455D01*
X213681206Y-84632664D01*
X213681202Y-84632671D01*
X213630908Y-84767517D01*
X213624501Y-84827116D01*
X213624500Y-84827135D01*
X213624500Y-86722870D01*
X213624501Y-86722876D01*
X213630908Y-86782483D01*
X213681202Y-86917328D01*
X213681206Y-86917335D01*
X213767452Y-87032544D01*
X213767455Y-87032547D01*
X213882664Y-87118793D01*
X213882671Y-87118797D01*
X214017517Y-87169091D01*
X214017516Y-87169091D01*
X214024444Y-87169835D01*
X214077127Y-87175500D01*
X215972872Y-87175499D01*
X216032483Y-87169091D01*
X216167331Y-87118796D01*
X216282546Y-87032546D01*
X216326234Y-86974186D01*
X216382167Y-86932316D01*
X216451859Y-86927332D01*
X216513182Y-86960817D01*
X216546666Y-87022141D01*
X216549500Y-87048498D01*
X216549500Y-88225500D01*
X216529815Y-88292539D01*
X216477011Y-88338294D01*
X216425500Y-88349500D01*
X201277568Y-88349500D01*
X201210529Y-88329815D01*
X201164774Y-88277011D01*
X201154247Y-88238462D01*
X201151477Y-88212104D01*
X201135674Y-88061744D01*
X201077179Y-87881716D01*
X200982533Y-87717784D01*
X200982344Y-87717574D01*
X200982273Y-87717427D01*
X200978714Y-87712528D01*
X200979610Y-87711876D01*
X200952119Y-87654580D01*
X200950500Y-87634608D01*
X200950500Y-85750000D01*
X201594540Y-85750000D01*
X201614326Y-85938256D01*
X201614327Y-85938259D01*
X201672818Y-86118277D01*
X201672821Y-86118284D01*
X201767467Y-86282216D01*
X201894129Y-86422888D01*
X202047265Y-86534148D01*
X202047270Y-86534151D01*
X202220192Y-86611142D01*
X202220197Y-86611144D01*
X202405354Y-86650500D01*
X202405355Y-86650500D01*
X202594644Y-86650500D01*
X202594646Y-86650500D01*
X202779803Y-86611144D01*
X202952730Y-86534151D01*
X203105871Y-86422888D01*
X203232533Y-86282216D01*
X203327179Y-86118284D01*
X203385674Y-85938256D01*
X203390864Y-85888869D01*
X203417447Y-85824258D01*
X203426494Y-85814161D01*
X205044114Y-84196543D01*
X205120775Y-84081811D01*
X205136391Y-84044112D01*
X205173578Y-83954332D01*
X205173580Y-83954328D01*
X205195097Y-83846158D01*
X205200500Y-83818995D01*
X205200500Y-81615391D01*
X205220185Y-81548352D01*
X205232352Y-81532417D01*
X205232533Y-81532216D01*
X205327179Y-81368284D01*
X205385674Y-81188256D01*
X205405460Y-81000000D01*
X205385674Y-80811744D01*
X205327179Y-80631716D01*
X205232533Y-80467784D01*
X205105871Y-80327112D01*
X205073313Y-80303457D01*
X204952734Y-80215851D01*
X204952729Y-80215848D01*
X204779807Y-80138857D01*
X204779802Y-80138855D01*
X204634001Y-80107865D01*
X204594646Y-80099500D01*
X204405354Y-80099500D01*
X204372897Y-80106398D01*
X204220197Y-80138855D01*
X204220192Y-80138857D01*
X204047270Y-80215848D01*
X204047265Y-80215851D01*
X203894129Y-80327111D01*
X203767466Y-80467785D01*
X203672821Y-80631715D01*
X203672818Y-80631722D01*
X203621340Y-80790157D01*
X203614326Y-80811744D01*
X203594540Y-81000000D01*
X203614326Y-81188256D01*
X203614327Y-81188259D01*
X203672818Y-81368277D01*
X203672821Y-81368284D01*
X203767466Y-81532215D01*
X203767648Y-81532417D01*
X203767716Y-81532559D01*
X203771285Y-81537471D01*
X203770386Y-81538123D01*
X203797879Y-81595408D01*
X203799500Y-81615391D01*
X203799500Y-83408481D01*
X203779815Y-83475520D01*
X203763181Y-83496162D01*
X202437026Y-84822316D01*
X202375703Y-84855801D01*
X202375126Y-84855925D01*
X202220197Y-84888855D01*
X202220192Y-84888857D01*
X202047270Y-84965848D01*
X202047265Y-84965851D01*
X201894129Y-85077111D01*
X201767466Y-85217785D01*
X201672821Y-85381715D01*
X201672818Y-85381722D01*
X201623437Y-85533702D01*
X201614326Y-85561744D01*
X201594540Y-85750000D01*
X200950500Y-85750000D01*
X200950500Y-84681004D01*
X200923581Y-84545677D01*
X200923580Y-84545676D01*
X200923580Y-84545672D01*
X200897433Y-84482547D01*
X200870777Y-84418192D01*
X200794112Y-84303454D01*
X200794111Y-84303453D01*
X199814578Y-83323921D01*
X199781093Y-83262598D01*
X199786077Y-83192907D01*
X199794866Y-83174249D01*
X199827179Y-83118284D01*
X199885674Y-82938256D01*
X199905460Y-82750000D01*
X199885674Y-82561744D01*
X199827179Y-82381716D01*
X199732533Y-82217784D01*
X199605871Y-82077112D01*
X199580302Y-82058535D01*
X199452734Y-81965851D01*
X199452729Y-81965848D01*
X199279807Y-81888857D01*
X199279802Y-81888855D01*
X199134001Y-81857865D01*
X199094646Y-81849500D01*
X198905354Y-81849500D01*
X198879064Y-81855088D01*
X198720197Y-81888855D01*
X198720192Y-81888857D01*
X198547270Y-81965848D01*
X198547265Y-81965851D01*
X198394129Y-82077111D01*
X198267466Y-82217785D01*
X198172821Y-82381715D01*
X198172818Y-82381722D01*
X198114327Y-82561740D01*
X198114326Y-82561744D01*
X198094540Y-82750000D01*
X198114326Y-82938256D01*
X198114327Y-82938259D01*
X198172818Y-83118277D01*
X198172821Y-83118284D01*
X198267466Y-83282215D01*
X198267648Y-83282417D01*
X198267716Y-83282559D01*
X198271285Y-83287471D01*
X198270386Y-83288123D01*
X198297879Y-83345408D01*
X198299500Y-83365391D01*
X198299500Y-83431006D01*
X198299500Y-83568994D01*
X198299500Y-83568996D01*
X198299499Y-83568996D01*
X198326418Y-83704322D01*
X198326421Y-83704332D01*
X198379222Y-83831807D01*
X198455887Y-83946545D01*
X198455888Y-83946546D01*
X199513181Y-85003838D01*
X199546666Y-85065161D01*
X199549500Y-85091519D01*
X199549500Y-87634608D01*
X199529815Y-87701647D01*
X199517656Y-87717574D01*
X199517468Y-87717782D01*
X199517464Y-87717787D01*
X199422821Y-87881715D01*
X199422818Y-87881722D01*
X199394855Y-87967785D01*
X199364326Y-88061744D01*
X199348523Y-88212104D01*
X199345753Y-88238462D01*
X199319168Y-88303076D01*
X199261871Y-88343061D01*
X199222432Y-88349500D01*
X194988033Y-88349500D01*
X194920994Y-88329815D01*
X194875239Y-88277011D01*
X194870102Y-88263818D01*
X194827181Y-88131722D01*
X194827180Y-88131721D01*
X194827179Y-88131716D01*
X194732533Y-87967784D01*
X194605871Y-87827112D01*
X194605870Y-87827111D01*
X194452734Y-87715851D01*
X194452729Y-87715848D01*
X194279807Y-87638857D01*
X194279802Y-87638855D01*
X194134001Y-87607865D01*
X194094646Y-87599500D01*
X193905354Y-87599500D01*
X193872897Y-87606398D01*
X193720197Y-87638855D01*
X193720192Y-87638857D01*
X193547270Y-87715848D01*
X193547265Y-87715851D01*
X193394129Y-87827111D01*
X193267466Y-87967785D01*
X193172821Y-88131715D01*
X193170175Y-88137659D01*
X193167859Y-88136627D01*
X193134813Y-88184925D01*
X193070446Y-88212104D01*
X193001603Y-88200169D01*
X192968667Y-88176589D01*
X192331792Y-87539714D01*
X192298307Y-87478391D01*
X192303291Y-87408699D01*
X192345163Y-87352766D01*
X192410627Y-87328349D01*
X192469908Y-87338753D01*
X192520197Y-87361144D01*
X192705354Y-87400500D01*
X192705355Y-87400500D01*
X192894644Y-87400500D01*
X192894646Y-87400500D01*
X193079803Y-87361144D01*
X193252730Y-87284151D01*
X193405871Y-87172888D01*
X193532533Y-87032216D01*
X193627179Y-86868284D01*
X193685674Y-86688256D01*
X193705460Y-86500000D01*
X193685674Y-86311744D01*
X193627179Y-86131716D01*
X193532533Y-85967784D01*
X193532212Y-85967427D01*
X193457350Y-85884284D01*
X193427120Y-85821292D01*
X193425500Y-85801312D01*
X193425500Y-80260452D01*
X193445185Y-80193413D01*
X193461819Y-80172771D01*
X194697772Y-78936819D01*
X194759095Y-78903334D01*
X194785453Y-78900500D01*
X194844644Y-78900500D01*
X194844646Y-78900500D01*
X195029803Y-78861144D01*
X195202730Y-78784151D01*
X195355871Y-78672888D01*
X195482533Y-78532216D01*
X195577179Y-78368284D01*
X195635674Y-78188256D01*
X195654247Y-78011536D01*
X195680832Y-77946924D01*
X195738129Y-77906939D01*
X195777568Y-77900500D01*
X204858481Y-77900500D01*
X204925520Y-77920185D01*
X204946162Y-77936819D01*
X208763181Y-81753837D01*
X208796666Y-81815160D01*
X208799500Y-81841518D01*
X208799500Y-85884608D01*
X208779815Y-85951647D01*
X208767656Y-85967574D01*
X208767468Y-85967782D01*
X208767464Y-85967787D01*
X208672821Y-86131715D01*
X208672818Y-86131722D01*
X208623921Y-86282214D01*
X208614326Y-86311744D01*
X208594540Y-86500000D01*
X208614326Y-86688256D01*
X208614327Y-86688259D01*
X208672818Y-86868277D01*
X208672821Y-86868284D01*
X208767467Y-87032216D01*
X208887477Y-87165500D01*
X208894129Y-87172888D01*
X209047265Y-87284148D01*
X209047270Y-87284151D01*
X209220192Y-87361142D01*
X209220197Y-87361144D01*
X209405354Y-87400500D01*
X209405355Y-87400500D01*
X209594644Y-87400500D01*
X209594646Y-87400500D01*
X209779803Y-87361144D01*
X209952730Y-87284151D01*
X210105871Y-87172888D01*
X210232533Y-87032216D01*
X210327179Y-86868284D01*
X210385674Y-86688256D01*
X210405460Y-86500000D01*
X210385674Y-86311744D01*
X210327179Y-86131716D01*
X210232533Y-85967784D01*
X210232344Y-85967574D01*
X210232273Y-85967427D01*
X210228714Y-85962528D01*
X210229610Y-85961876D01*
X210202119Y-85904580D01*
X210200500Y-85884608D01*
X210200500Y-81431004D01*
X210200499Y-81431002D01*
X210173581Y-81295677D01*
X210173580Y-81295674D01*
X210173580Y-81295672D01*
X210168006Y-81282216D01*
X210154662Y-81250000D01*
X210120778Y-81168194D01*
X210120771Y-81168182D01*
X210044115Y-81053459D01*
X210020987Y-81030331D01*
X209946542Y-80955886D01*
X208872371Y-79881715D01*
X205646546Y-76655888D01*
X205646545Y-76655887D01*
X205531807Y-76579222D01*
X205404332Y-76526421D01*
X205404322Y-76526418D01*
X205268996Y-76499500D01*
X205268994Y-76499500D01*
X205268993Y-76499500D01*
X196787961Y-76499500D01*
X196720922Y-76479815D01*
X196675167Y-76427011D01*
X196665223Y-76357853D01*
X196694248Y-76294297D01*
X196715076Y-76275182D01*
X196791306Y-76219796D01*
X196855871Y-76172888D01*
X196982533Y-76032216D01*
X197077179Y-75868284D01*
X197135674Y-75688256D01*
X197155460Y-75500000D01*
X197135674Y-75311744D01*
X197077179Y-75131716D01*
X196982533Y-74967784D01*
X196855871Y-74827112D01*
X196855870Y-74827111D01*
X196702734Y-74715851D01*
X196702729Y-74715848D01*
X196529807Y-74638857D01*
X196529802Y-74638855D01*
X196384001Y-74607865D01*
X196344646Y-74599500D01*
X196344645Y-74599500D01*
X196285453Y-74599500D01*
X196218414Y-74579815D01*
X196197772Y-74563181D01*
X195742928Y-74108338D01*
X195742925Y-74108334D01*
X195742925Y-74108335D01*
X195735858Y-74101268D01*
X195735858Y-74101267D01*
X195648733Y-74014142D01*
X195648732Y-74014141D01*
X195648731Y-74014140D01*
X195597509Y-73979915D01*
X195546287Y-73945689D01*
X195546286Y-73945688D01*
X195546283Y-73945686D01*
X195546280Y-73945685D01*
X195465792Y-73912347D01*
X195432453Y-73898537D01*
X195422427Y-73896543D01*
X195372029Y-73886518D01*
X195311610Y-73874500D01*
X195311607Y-73874500D01*
X195311606Y-73874500D01*
X186811606Y-73874500D01*
X186688393Y-73874500D01*
X186688389Y-73874500D01*
X186627971Y-73886518D01*
X186584743Y-73895116D01*
X186567546Y-73898537D01*
X186453712Y-73945689D01*
X186453706Y-73945693D01*
X186351266Y-74014142D01*
X186351262Y-74014145D01*
X184867681Y-75497727D01*
X184806358Y-75531212D01*
X184736666Y-75526228D01*
X184680733Y-75484356D01*
X184663818Y-75453379D01*
X184618797Y-75332671D01*
X184618793Y-75332664D01*
X184532547Y-75217455D01*
X184532544Y-75217452D01*
X184417335Y-75131206D01*
X184417328Y-75131202D01*
X184282482Y-75080908D01*
X184282483Y-75080908D01*
X184222883Y-75074501D01*
X184222881Y-75074500D01*
X184222873Y-75074500D01*
X184222864Y-75074500D01*
X182327129Y-75074500D01*
X182327123Y-75074501D01*
X182267516Y-75080908D01*
X182132671Y-75131202D01*
X182132664Y-75131206D01*
X182017455Y-75217452D01*
X182017452Y-75217455D01*
X181931206Y-75332664D01*
X181931203Y-75332670D01*
X181902544Y-75409508D01*
X181860672Y-75465441D01*
X181795208Y-75489858D01*
X181726935Y-75475006D01*
X181695135Y-75450158D01*
X181686784Y-75441087D01*
X181686778Y-75441082D01*
X181686777Y-75441081D01*
X181503634Y-75298535D01*
X181503628Y-75298531D01*
X181299504Y-75188064D01*
X181299495Y-75188061D01*
X181079984Y-75112702D01*
X180889450Y-75080908D01*
X180851049Y-75074500D01*
X180618951Y-75074500D01*
X180580550Y-75080908D01*
X180390015Y-75112702D01*
X180170504Y-75188061D01*
X180170495Y-75188064D01*
X179966371Y-75298531D01*
X179966365Y-75298535D01*
X179783222Y-75441081D01*
X179783219Y-75441084D01*
X179783216Y-75441086D01*
X179783216Y-75441087D01*
X179746368Y-75481115D01*
X179626016Y-75611852D01*
X179499075Y-75806151D01*
X179405842Y-76018699D01*
X179348866Y-76243691D01*
X179348864Y-76243702D01*
X179329700Y-76474993D01*
X179329700Y-76475006D01*
X179348864Y-76706297D01*
X179348868Y-76706317D01*
X179402996Y-76920059D01*
X179400372Y-76989880D01*
X179360416Y-77047197D01*
X179295815Y-77073814D01*
X179282791Y-77074500D01*
X177049500Y-77074500D01*
X176982461Y-77054815D01*
X176936706Y-77002011D01*
X176925500Y-76950500D01*
X176925499Y-75527129D01*
X176925498Y-75527123D01*
X176924102Y-75514140D01*
X176919091Y-75467517D01*
X176910927Y-75445629D01*
X176868797Y-75332671D01*
X176868793Y-75332664D01*
X176782547Y-75217455D01*
X176782544Y-75217452D01*
X176667335Y-75131206D01*
X176667328Y-75131202D01*
X176532482Y-75080908D01*
X176532483Y-75080908D01*
X176472883Y-75074501D01*
X176472881Y-75074500D01*
X176472873Y-75074500D01*
X176472864Y-75074500D01*
X174577129Y-75074500D01*
X174577123Y-75074501D01*
X174517516Y-75080908D01*
X174382671Y-75131202D01*
X174382664Y-75131206D01*
X174267455Y-75217452D01*
X174267452Y-75217455D01*
X174181206Y-75332664D01*
X174181203Y-75332670D01*
X174152544Y-75409508D01*
X174110672Y-75465441D01*
X174045208Y-75489858D01*
X173976935Y-75475006D01*
X173945135Y-75450158D01*
X173936784Y-75441087D01*
X173936778Y-75441082D01*
X173936777Y-75441081D01*
X173753634Y-75298535D01*
X173753628Y-75298531D01*
X173549504Y-75188064D01*
X173549495Y-75188061D01*
X173329984Y-75112702D01*
X173139450Y-75080908D01*
X173101049Y-75074500D01*
X172868951Y-75074500D01*
X172830550Y-75080908D01*
X172640015Y-75112702D01*
X172420504Y-75188061D01*
X172420495Y-75188064D01*
X172216371Y-75298531D01*
X172216365Y-75298535D01*
X172033222Y-75441081D01*
X172033219Y-75441084D01*
X172033216Y-75441086D01*
X172033216Y-75441087D01*
X171996368Y-75481115D01*
X171876016Y-75611852D01*
X171749075Y-75806151D01*
X171655842Y-76018699D01*
X171598866Y-76243691D01*
X171598864Y-76243702D01*
X171579700Y-76474993D01*
X171579700Y-76475006D01*
X171598864Y-76706297D01*
X171598868Y-76706317D01*
X171652996Y-76920059D01*
X171650372Y-76989880D01*
X171610416Y-77047197D01*
X171545815Y-77073814D01*
X171532791Y-77074500D01*
X160406004Y-77074500D01*
X160270677Y-77101418D01*
X160270667Y-77101421D01*
X160143192Y-77154222D01*
X160028454Y-77230887D01*
X160028453Y-77230888D01*
X159996163Y-77263180D01*
X159934841Y-77296666D01*
X159908481Y-77299500D01*
X158324500Y-77299500D01*
X158257461Y-77279815D01*
X158211706Y-77227011D01*
X158200500Y-77175500D01*
X158200500Y-76681006D01*
X158198110Y-76668994D01*
X158173580Y-76545672D01*
X158170183Y-76537471D01*
X158120777Y-76418192D01*
X158044112Y-76303454D01*
X158044111Y-76303453D01*
X156676503Y-74935846D01*
X156643018Y-74874523D01*
X156640865Y-74861143D01*
X156635674Y-74811744D01*
X156577179Y-74631716D01*
X156482533Y-74467784D01*
X156355871Y-74327112D01*
X156330302Y-74308535D01*
X156202734Y-74215851D01*
X156202729Y-74215848D01*
X156029807Y-74138857D01*
X156029802Y-74138855D01*
X155884001Y-74107865D01*
X155844646Y-74099500D01*
X155655354Y-74099500D01*
X155622897Y-74106398D01*
X155470197Y-74138855D01*
X155470192Y-74138857D01*
X155297270Y-74215848D01*
X155297265Y-74215851D01*
X155144129Y-74327111D01*
X155017466Y-74467785D01*
X154922821Y-74631715D01*
X154922818Y-74631722D01*
X154864327Y-74811740D01*
X154864326Y-74811744D01*
X154844540Y-75000000D01*
X154864326Y-75188256D01*
X154864327Y-75188259D01*
X154922818Y-75368277D01*
X154922821Y-75368284D01*
X155017467Y-75532216D01*
X155107063Y-75631722D01*
X155144129Y-75672888D01*
X155297265Y-75784148D01*
X155297270Y-75784151D01*
X155470191Y-75861142D01*
X155470193Y-75861142D01*
X155470197Y-75861144D01*
X155625130Y-75894075D01*
X155686607Y-75927266D01*
X155687026Y-75927683D01*
X156763181Y-77003838D01*
X156796666Y-77065161D01*
X156799500Y-77091519D01*
X156799500Y-77931006D01*
X156799500Y-77931007D01*
X156799500Y-79181006D01*
X156799500Y-79318994D01*
X156799500Y-79318996D01*
X156799499Y-79318996D01*
X156826418Y-79454322D01*
X156826421Y-79454332D01*
X156879222Y-79581807D01*
X156955885Y-79696542D01*
X157013181Y-79753838D01*
X157046666Y-79815161D01*
X157049500Y-79841519D01*
X157049500Y-90804013D01*
X157029815Y-90871052D01*
X156977011Y-90916807D01*
X156907853Y-90926751D01*
X156844297Y-90897726D01*
X156818113Y-90866013D01*
X156732535Y-90717787D01*
X156732531Y-90717782D01*
X156723621Y-90707886D01*
X156694155Y-90649106D01*
X156682153Y-90588774D01*
X156673580Y-90545672D01*
X156673578Y-90545667D01*
X156620777Y-90418193D01*
X156620776Y-90418191D01*
X156601175Y-90388856D01*
X156601175Y-90388855D01*
X156544115Y-90303458D01*
X156544109Y-90303451D01*
X154736819Y-88496161D01*
X154703334Y-88434838D01*
X154700500Y-88408480D01*
X154700500Y-80591519D01*
X154720185Y-80524480D01*
X154736813Y-80503843D01*
X154812976Y-80427680D01*
X154874295Y-80394198D01*
X154874305Y-80394195D01*
X155029803Y-80361144D01*
X155029807Y-80361142D01*
X155029808Y-80361142D01*
X155157320Y-80304369D01*
X155202730Y-80284151D01*
X155355871Y-80172888D01*
X155482533Y-80032216D01*
X155577179Y-79868284D01*
X155635674Y-79688256D01*
X155655460Y-79500000D01*
X155635674Y-79311744D01*
X155577179Y-79131716D01*
X155482533Y-78967784D01*
X155355871Y-78827112D01*
X155352276Y-78824500D01*
X155202734Y-78715851D01*
X155202729Y-78715848D01*
X155029807Y-78638857D01*
X155029802Y-78638855D01*
X154884001Y-78607865D01*
X154844646Y-78599500D01*
X154655354Y-78599500D01*
X154622897Y-78606398D01*
X154470197Y-78638855D01*
X154470192Y-78638857D01*
X154297270Y-78715848D01*
X154297265Y-78715851D01*
X154144129Y-78827111D01*
X154017466Y-78967785D01*
X153922821Y-79131715D01*
X153922818Y-79131722D01*
X153864327Y-79311739D01*
X153864325Y-79311750D01*
X153859134Y-79361129D01*
X153832549Y-79425743D01*
X153823495Y-79435846D01*
X153455887Y-79803454D01*
X153379222Y-79918192D01*
X153326421Y-80045667D01*
X153326418Y-80045679D01*
X153302050Y-80168186D01*
X153302049Y-80168191D01*
X153299500Y-80181002D01*
X153299500Y-80181007D01*
X153299500Y-88681006D01*
X153299500Y-88818994D01*
X153299500Y-88818996D01*
X153299499Y-88818996D01*
X153326418Y-88954322D01*
X153326421Y-88954332D01*
X153379222Y-89081807D01*
X153455887Y-89196545D01*
X153455888Y-89196546D01*
X155111300Y-90851957D01*
X155144785Y-90913280D01*
X155141550Y-90977955D01*
X155114326Y-91061744D01*
X155094540Y-91250000D01*
X155114326Y-91438256D01*
X155114327Y-91438259D01*
X155172818Y-91618277D01*
X155172821Y-91618284D01*
X155267467Y-91782216D01*
X155394107Y-91922864D01*
X155394129Y-91922888D01*
X155547265Y-92034148D01*
X155547270Y-92034151D01*
X155720192Y-92111142D01*
X155720197Y-92111144D01*
X155905354Y-92150500D01*
X155905355Y-92150500D01*
X156094644Y-92150500D01*
X156094646Y-92150500D01*
X156279803Y-92111144D01*
X156452730Y-92034151D01*
X156605871Y-91922888D01*
X156732533Y-91782216D01*
X156827179Y-91618284D01*
X156885674Y-91438256D01*
X156905460Y-91250000D01*
X156904542Y-91241269D01*
X156917108Y-91172542D01*
X156964837Y-91121516D01*
X157032577Y-91104395D01*
X157098819Y-91126614D01*
X157130964Y-91159415D01*
X157205882Y-91271538D01*
X157205888Y-91271546D01*
X157448495Y-91514152D01*
X157481980Y-91575475D01*
X157484134Y-91588869D01*
X157489325Y-91638249D01*
X157489327Y-91638260D01*
X157547818Y-91818277D01*
X157547821Y-91818284D01*
X157642467Y-91982216D01*
X157748070Y-92099500D01*
X157769129Y-92122888D01*
X157922265Y-92234148D01*
X157922270Y-92234151D01*
X158095192Y-92311142D01*
X158095197Y-92311144D01*
X158280354Y-92350500D01*
X158280355Y-92350500D01*
X158425500Y-92350500D01*
X158492539Y-92370185D01*
X158538294Y-92422989D01*
X158549500Y-92474500D01*
X158549500Y-94325500D01*
X158529815Y-94392539D01*
X158477011Y-94438294D01*
X158425500Y-94449500D01*
X152692367Y-94449500D01*
X152641931Y-94438779D01*
X152529807Y-94388857D01*
X152529802Y-94388855D01*
X152384001Y-94357865D01*
X152344646Y-94349500D01*
X152155354Y-94349500D01*
X152122897Y-94356398D01*
X151970197Y-94388855D01*
X151970192Y-94388857D01*
X151797270Y-94465848D01*
X151797265Y-94465851D01*
X151644129Y-94577111D01*
X151517466Y-94717785D01*
X151422821Y-94881715D01*
X151422818Y-94881722D01*
X151376132Y-95025408D01*
X151364326Y-95061744D01*
X151344540Y-95250000D01*
X143250000Y-95250000D01*
X143250000Y-93515006D01*
X147569700Y-93515006D01*
X147588864Y-93746297D01*
X147588866Y-93746308D01*
X147645842Y-93971300D01*
X147739075Y-94183848D01*
X147866016Y-94378147D01*
X147866019Y-94378151D01*
X147866021Y-94378153D01*
X148023216Y-94548913D01*
X148023219Y-94548915D01*
X148023222Y-94548918D01*
X148206365Y-94691464D01*
X148206371Y-94691468D01*
X148206374Y-94691470D01*
X148410497Y-94801936D01*
X148524487Y-94841068D01*
X148630015Y-94877297D01*
X148630017Y-94877297D01*
X148630019Y-94877298D01*
X148858951Y-94915500D01*
X148858952Y-94915500D01*
X149091048Y-94915500D01*
X149091049Y-94915500D01*
X149319981Y-94877298D01*
X149539503Y-94801936D01*
X149743626Y-94691470D01*
X149796265Y-94650500D01*
X149846832Y-94611142D01*
X149926784Y-94548913D01*
X150083979Y-94378153D01*
X150210924Y-94183849D01*
X150304157Y-93971300D01*
X150361134Y-93746305D01*
X150363224Y-93721082D01*
X150380300Y-93515006D01*
X150380300Y-93514993D01*
X150361135Y-93283702D01*
X150361133Y-93283691D01*
X150304157Y-93058699D01*
X150210924Y-92846151D01*
X150083983Y-92651852D01*
X150083980Y-92651849D01*
X150083979Y-92651847D01*
X149989195Y-92548884D01*
X149958275Y-92486232D01*
X149966135Y-92416806D01*
X150010283Y-92362651D01*
X150037095Y-92348722D01*
X150117326Y-92318798D01*
X150117326Y-92318797D01*
X150117331Y-92318796D01*
X150232546Y-92232546D01*
X150318796Y-92117331D01*
X150369091Y-91982483D01*
X150375500Y-91922873D01*
X150375499Y-90027128D01*
X150369091Y-89967517D01*
X150318796Y-89832669D01*
X150318795Y-89832668D01*
X150318793Y-89832664D01*
X150232547Y-89717455D01*
X150232544Y-89717452D01*
X150117335Y-89631206D01*
X150117328Y-89631202D01*
X149982482Y-89580908D01*
X149982483Y-89580908D01*
X149922883Y-89574501D01*
X149922881Y-89574500D01*
X149922873Y-89574500D01*
X149922864Y-89574500D01*
X148027129Y-89574500D01*
X148027123Y-89574501D01*
X147967516Y-89580908D01*
X147832671Y-89631202D01*
X147832664Y-89631206D01*
X147717455Y-89717452D01*
X147717452Y-89717455D01*
X147631206Y-89832664D01*
X147631202Y-89832671D01*
X147580908Y-89967517D01*
X147574501Y-90027116D01*
X147574501Y-90027123D01*
X147574500Y-90027135D01*
X147574500Y-91922870D01*
X147574501Y-91922876D01*
X147580908Y-91982483D01*
X147631202Y-92117328D01*
X147631206Y-92117335D01*
X147717452Y-92232544D01*
X147717455Y-92232547D01*
X147832664Y-92318793D01*
X147832673Y-92318798D01*
X147912904Y-92348722D01*
X147968838Y-92390593D01*
X147993256Y-92456057D01*
X147978405Y-92524330D01*
X147960802Y-92548886D01*
X147866019Y-92651849D01*
X147739075Y-92846151D01*
X147645842Y-93058699D01*
X147588866Y-93283691D01*
X147588864Y-93283702D01*
X147569700Y-93514993D01*
X147569700Y-93515006D01*
X143250000Y-93515006D01*
X143250000Y-85765006D01*
X147569700Y-85765006D01*
X147588864Y-85996297D01*
X147588866Y-85996308D01*
X147645842Y-86221300D01*
X147739075Y-86433848D01*
X147866016Y-86628147D01*
X147866019Y-86628151D01*
X147866021Y-86628153D01*
X148023216Y-86798913D01*
X148023219Y-86798915D01*
X148023222Y-86798918D01*
X148206365Y-86941464D01*
X148206371Y-86941468D01*
X148206374Y-86941470D01*
X148410497Y-87051936D01*
X148524487Y-87091068D01*
X148630015Y-87127297D01*
X148630017Y-87127297D01*
X148630019Y-87127298D01*
X148858951Y-87165500D01*
X148858952Y-87165500D01*
X149091048Y-87165500D01*
X149091049Y-87165500D01*
X149319981Y-87127298D01*
X149539503Y-87051936D01*
X149743626Y-86941470D01*
X149926784Y-86798913D01*
X150083979Y-86628153D01*
X150210924Y-86433849D01*
X150304157Y-86221300D01*
X150361134Y-85996305D01*
X150363497Y-85967787D01*
X150380300Y-85765006D01*
X150380300Y-85764993D01*
X150361135Y-85533702D01*
X150361133Y-85533691D01*
X150304157Y-85308699D01*
X150210924Y-85096151D01*
X150083983Y-84901852D01*
X150083980Y-84901849D01*
X150083979Y-84901847D01*
X149989195Y-84798884D01*
X149958275Y-84736232D01*
X149966135Y-84666806D01*
X150010283Y-84612651D01*
X150037095Y-84598722D01*
X150117326Y-84568798D01*
X150117326Y-84568797D01*
X150117331Y-84568796D01*
X150232546Y-84482546D01*
X150318796Y-84367331D01*
X150369091Y-84232483D01*
X150375500Y-84172873D01*
X150375499Y-82277128D01*
X150369091Y-82217517D01*
X150343436Y-82148733D01*
X150318797Y-82082671D01*
X150318793Y-82082664D01*
X150232547Y-81967455D01*
X150232544Y-81967452D01*
X150117335Y-81881206D01*
X150117328Y-81881202D01*
X149982482Y-81830908D01*
X149982483Y-81830908D01*
X149922883Y-81824501D01*
X149922881Y-81824500D01*
X149922873Y-81824500D01*
X149922864Y-81824500D01*
X148027129Y-81824500D01*
X148027123Y-81824501D01*
X147967516Y-81830908D01*
X147832671Y-81881202D01*
X147832664Y-81881206D01*
X147717455Y-81967452D01*
X147717452Y-81967455D01*
X147631206Y-82082664D01*
X147631202Y-82082671D01*
X147580908Y-82217517D01*
X147577829Y-82246162D01*
X147574501Y-82277123D01*
X147574500Y-82277135D01*
X147574500Y-84172870D01*
X147574501Y-84172876D01*
X147580908Y-84232483D01*
X147631202Y-84367328D01*
X147631206Y-84367335D01*
X147717452Y-84482544D01*
X147717455Y-84482547D01*
X147832664Y-84568793D01*
X147832673Y-84568798D01*
X147912904Y-84598722D01*
X147968838Y-84640593D01*
X147993256Y-84706057D01*
X147978405Y-84774330D01*
X147960802Y-84798886D01*
X147866019Y-84901849D01*
X147739075Y-85096151D01*
X147645842Y-85308699D01*
X147588866Y-85533691D01*
X147588864Y-85533702D01*
X147569700Y-85764993D01*
X147569700Y-85765006D01*
X143250000Y-85765006D01*
X143250000Y-78015006D01*
X147569700Y-78015006D01*
X147588864Y-78246297D01*
X147588866Y-78246308D01*
X147645842Y-78471300D01*
X147739075Y-78683848D01*
X147866016Y-78878147D01*
X147866019Y-78878151D01*
X147866021Y-78878153D01*
X148023216Y-79048913D01*
X148023219Y-79048915D01*
X148023222Y-79048918D01*
X148206365Y-79191464D01*
X148206371Y-79191468D01*
X148206374Y-79191470D01*
X148373860Y-79282109D01*
X148410478Y-79301926D01*
X148410497Y-79301936D01*
X148524487Y-79341068D01*
X148630015Y-79377297D01*
X148630017Y-79377297D01*
X148630019Y-79377298D01*
X148858951Y-79415500D01*
X148858952Y-79415500D01*
X149091048Y-79415500D01*
X149091049Y-79415500D01*
X149319981Y-79377298D01*
X149539503Y-79301936D01*
X149743626Y-79191470D01*
X149926784Y-79048913D01*
X150083979Y-78878153D01*
X150210924Y-78683849D01*
X150304157Y-78471300D01*
X150361134Y-78246305D01*
X150372248Y-78112181D01*
X150380300Y-78015006D01*
X150380300Y-78014993D01*
X150361135Y-77783702D01*
X150361133Y-77783691D01*
X150304157Y-77558699D01*
X150210924Y-77346151D01*
X150083983Y-77151852D01*
X150083980Y-77151849D01*
X150083979Y-77151847D01*
X149989195Y-77048884D01*
X149958275Y-76986232D01*
X149966135Y-76916806D01*
X150010283Y-76862651D01*
X150037095Y-76848722D01*
X150117326Y-76818798D01*
X150117326Y-76818797D01*
X150117331Y-76818796D01*
X150232546Y-76732546D01*
X150318796Y-76617331D01*
X150369091Y-76482483D01*
X150375500Y-76422873D01*
X150375499Y-74527128D01*
X150369091Y-74467517D01*
X150318796Y-74332669D01*
X150318795Y-74332668D01*
X150318793Y-74332664D01*
X150232547Y-74217455D01*
X150232544Y-74217452D01*
X150117335Y-74131206D01*
X150117328Y-74131202D01*
X149982482Y-74080908D01*
X149982483Y-74080908D01*
X149922883Y-74074501D01*
X149922881Y-74074500D01*
X149922873Y-74074500D01*
X149922864Y-74074500D01*
X148027129Y-74074500D01*
X148027123Y-74074501D01*
X147967516Y-74080908D01*
X147832671Y-74131202D01*
X147832664Y-74131206D01*
X147717455Y-74217452D01*
X147717452Y-74217455D01*
X147631206Y-74332664D01*
X147631202Y-74332671D01*
X147580908Y-74467517D01*
X147574501Y-74527116D01*
X147574501Y-74527123D01*
X147574500Y-74527135D01*
X147574500Y-76422870D01*
X147574501Y-76422876D01*
X147580908Y-76482483D01*
X147631202Y-76617328D01*
X147631206Y-76617335D01*
X147717452Y-76732544D01*
X147717455Y-76732547D01*
X147832664Y-76818793D01*
X147832673Y-76818798D01*
X147912904Y-76848722D01*
X147968838Y-76890593D01*
X147993256Y-76956057D01*
X147978405Y-77024330D01*
X147960802Y-77048886D01*
X147866019Y-77151849D01*
X147739075Y-77346151D01*
X147645842Y-77558699D01*
X147588866Y-77783691D01*
X147588864Y-77783702D01*
X147569700Y-78014993D01*
X147569700Y-78015006D01*
X143250000Y-78015006D01*
X143250000Y-70624000D01*
X143269685Y-70556961D01*
X143322489Y-70511206D01*
X143374000Y-70500000D01*
X220626000Y-70500000D01*
X220693039Y-70519685D01*
G37*
%TD.AperFunction*%
%TD*%
M02*
